<?xml version="1.0" encoding="UTF-8"?>
<svg version="1.1" xmlns="http://www.w3.org/2000/svg" width="2414" height="3105">
<path d="M0 0 C8.05252583 0.4790584 15.54327986 2.20280425 23.3125 4.3125 C25.22409912 4.82731934 25.22409912 4.82731934 27.17431641 5.35253906 C38.16669137 8.35605417 49.03105279 11.7526779 59.875 15.25 C60.67354401 15.50584869 61.47208801 15.76169739 62.29483032 16.02529907 C64.59243294 16.76420466 66.88655738 17.51296725 69.1796875 18.265625 C70.18897057 18.59034035 70.18897057 18.59034035 71.21864319 18.9216156 C75.42287053 20.32035275 79.29326637 22.07263252 83.23013306 24.10284424 C85.19020437 25.09641569 87.16278516 25.90891178 89.234375 26.640625 C89.96366211 26.90262695 90.69294922 27.16462891 91.44433594 27.43457031 C92.20520508 27.70366211 92.96607422 27.97275391 93.75 28.25 C100.80116521 30.79492911 107.79310393 33.45738835 114.75 36.25 C115.57081055 36.5790332 116.39162109 36.90806641 117.23730469 37.24707031 C121.8510878 39.10663955 126.43539355 41.02281753 131 43 C131 43.66 131 44.32 131 45 C131.78697266 45.185625 131.78697266 45.185625 132.58984375 45.375 C140.76018177 47.55013159 148.12245544 51.21511613 155.69628906 54.88867188 C159.59528196 56.76957646 163.51760666 58.60066609 167.4375 60.4375 C174.66224863 63.83112431 174.66224863 63.83112431 177 65 C177 65.66 177 66.32 177 67 C178.00160156 67.24492188 179.00320313 67.48984375 180.03515625 67.7421875 C184.22282633 68.94226761 187.70960398 70.91121049 191.4375 73.125 C199.45887329 77.77080725 207.67189312 81.93561805 216 86 C216 86.66 216 87.32 216 88 C216.97453125 88.35191406 216.97453125 88.35191406 217.96875 88.7109375 C221.97242548 90.41353145 225.70722365 92.49994381 229.5 94.625 C230.29664063 95.07012939 231.09328125 95.51525879 231.9140625 95.97387695 C240.46145605 100.77920924 248.89081075 105.73076801 256.875 111.4375 C260.98301968 114.37275713 265.22336623 116.98957324 269.5625 119.5625 C273.89058642 122.13275922 278.20976339 124.70347475 282.4375 127.4375 C283.48744141 128.11619141 283.48744141 128.11619141 284.55859375 128.80859375 C285.03425781 129.20175781 285.50992187 129.59492188 286 130 C286 130.66 286 131.32 286 132 C286.65613281 132.21269531 287.31226563 132.42539063 287.98828125 132.64453125 C292.10136319 134.49568486 295.54350676 137.04964797 299.1875 139.6875 C300.71466081 140.78150542 302.24200354 141.87525693 303.76953125 142.96875 C304.50123535 143.4946875 305.23293945 144.020625 305.98681641 144.5625 C308.42672269 146.30469842 310.89907012 147.99701003 313.375 149.6875 C317.8844044 152.82879697 322.07074905 156.31062334 326.29296875 159.82421875 C328.73576269 161.78761879 331.21377197 163.56441944 333.8125 165.3125 C338.77563045 168.70003348 343.22140064 172.56546688 347.73950195 176.51123047 C352.19863795 180.38032102 356.83017387 183.89586578 361.64453125 187.31640625 C364.58197542 189.41597248 367.34084102 191.5564485 370 194 C370 194.66 370 195.32 370 196 C370.88945312 196.41185547 370.88945312 196.41185547 371.796875 196.83203125 C373.90839925 197.95143861 375.46805207 199.10883253 377.25 200.6875 C377.8584375 201.22246094 378.466875 201.75742188 379.09375 202.30859375 C379.7228125 202.86675781 380.351875 203.42492187 381 204 C381.6084375 204.52722656 382.216875 205.05445313 382.84375 205.59765625 C387.74644827 209.84733118 392.54095114 214.21118573 397.33203125 218.5859375 C399.59230826 220.63110762 401.87718881 222.63695226 404.1875 224.625 C407.54136776 227.53487305 410.66645227 230.61882557 413.75 233.8125 C415.67347238 235.68254259 417.63692175 237.42625478 419.66967773 239.17407227 C423.78542454 242.76592806 427.67970489 246.53463515 431.53515625 250.40234375 C432.21750839 251.08373917 432.89986053 251.76513458 433.60289001 252.46717834 C435.03344437 253.89705741 436.46275767 255.32817911 437.89086914 256.76049805 C440.05699074 258.93197711 442.22840174 261.09806325 444.40039062 263.26367188 C445.79979987 264.66374202 447.19889884 266.06412238 448.59765625 267.46484375 C449.55575951 268.41991066 449.55575951 268.41991066 450.53321838 269.39427185 C454.34201859 273.22261573 457.96197727 277.16477111 461.47950745 281.26275635 C463.49763319 283.5685724 465.66667015 285.68967787 467.875 287.8125 C473.0131679 292.88819778 477.49758363 298.36332105 482 304 C483.07562939 305.2980891 484.15793399 306.59070809 485.25 307.875 C485.66765625 308.36742187 486.0853125 308.85984375 486.515625 309.3671875 C487.74577036 310.7203474 489.0341429 312.02030822 490.3359375 313.3046875 C493.17280566 316.17483271 495.7835191 319.16040436 498.375 322.25 C498.85469238 322.81847656 499.33438477 323.38695312 499.82861328 323.97265625 C503.1229684 327.8970914 506.30257764 331.89246008 509.3671875 336 C511.02020886 338.10804442 511.02020886 338.10804442 513.26953125 340.171875 C516.87912054 343.91056262 519.78856295 348.03312614 522.8125 352.25 C527.0207565 358.05211932 531.2611799 363.59645393 536.1484375 368.84765625 C538.8947482 372.04009759 541.21529627 375.50809432 543.57324219 378.98925781 C546.14108236 382.77819966 548.80383366 386.4704781 551.5625 390.125 C552.31144531 391.11757813 553.06039063 392.11015625 553.83203125 393.1328125 C555.18310622 394.91963958 556.53459573 396.70615337 557.88671875 398.4921875 C562.99857533 405.37229636 567.64629169 412.52067873 572.25683594 419.74414062 C574.68548507 423.53063217 577.132251 427.23398047 579.890625 430.7890625 C584.09210094 436.2892892 587.55343527 442.2687419 591.125 448.1875 C592.51936786 450.49602437 593.91853432 452.80141179 595.3203125 455.10546875 C596.23707764 456.62370239 596.23707764 456.62370239 597.17236328 458.17260742 C598.94026528 461.01534167 598.94026528 461.01534167 601.02734375 463.51586914 C603.09136729 466.1150572 604.65003023 468.73066938 606.2421875 471.640625 C606.83386719 472.71183594 607.42554688 473.78304688 608.03515625 474.88671875 C608.64230469 475.99660156 609.24945312 477.10648437 609.875 478.25 C613.56211695 484.98196192 617.28743605 491.55656042 621.61962891 497.89453125 C623.92826598 501.41587652 625.83216051 505.13070372 627.75 508.875 C628.60646159 510.52750406 629.46324263 512.17984259 630.3203125 513.83203125 C630.75633789 514.67588379 631.19236328 515.51973633 631.64160156 516.38916016 C633.03340292 519.06420037 634.44680432 521.72675473 635.8671875 524.38671875 C636.32899414 525.25377441 636.79080078 526.12083008 637.26660156 527.01416016 C638.15908679 528.68845218 639.05419108 530.36135125 639.95214844 532.03271484 C640.35208008 532.78633301 640.75201172 533.53995117 641.1640625 534.31640625 C641.69700928 535.31329468 641.69700928 535.31329468 642.24072266 536.33032227 C643 538 643 538 643 540 C643.66 540 644.32 540 645 540 C645.48879639 541.03817871 645.97759277 542.07635742 646.48120117 543.14599609 C648.3157848 547.04174029 650.15193279 550.93674553 651.98852539 554.83154297 C652.77930901 556.50907988 653.56968279 558.18681005 654.35961914 559.86474609 C659.41708888 570.65690016 659.41708888 570.65690016 664.67578125 581.3515625 C670.58432733 593.06848858 675.62231929 605.1283109 680.625 617.25 C681.61253097 619.63831165 682.60084424 622.02629365 683.59042358 624.41375732 C684.19949343 625.88363674 684.80736555 627.35401336 685.41372681 628.82501221 C686.88113937 632.37066683 688.39395539 635.88640154 689.97753906 639.38183594 C692.14752744 644.23901941 694.0016556 649.18989275 695.8203125 654.1875 C696.16504608 655.13004639 696.50977966 656.07259277 696.86495972 657.04370117 C697.58757008 659.02299759 698.30850538 661.00290628 699.02783203 662.98339844 C700.12279296 665.99393187 701.22714432 669.00091007 702.33203125 672.0078125 C703.03703354 673.94249882 703.74147941 675.87738802 704.4453125 677.8125 C704.77242218 678.70026123 705.09953186 679.58802246 705.43655396 680.50268555 C707.40482883 685.95509917 708.85552675 691.31571101 710 697 C710.66 697 711.32 697 712 697 C718.21146226 717.0073303 724.39037595 737.01782094 730.14428711 757.16235352 C730.64714233 758.91890259 730.64714233 758.91890259 731.16015625 760.7109375 C731.44511963 761.71431152 731.73008301 762.71768555 732.02368164 763.75146484 C732.78691986 766.29101168 733.60454956 768.78562214 734.46386719 771.29272461 C736.04730587 776.00777496 737.26678338 780.76912628 738.41796875 785.60546875 C738.74563736 786.9647625 738.74563736 786.9647625 739.07992554 788.35151672 C739.78732605 791.29570172 740.48787477 794.24145844 741.1875 797.1875 C741.42822235 798.19490234 741.6689447 799.20230469 741.91696167 800.24023438 C745.72746808 816.20356317 749.27146002 832.21035072 752.5378418 848.29370117 C752.76777328 849.4183503 752.76777328 849.4183503 753.00234985 850.5657196 C753.40969282 852.56323471 753.81164212 854.56184766 754.21313477 856.56054688 C754.92103951 859.93768729 754.92103951 859.93768729 755.99121094 862.87158203 C757.31416352 866.97427186 757.99811344 871.08863563 758.69921875 875.3359375 C758.85499893 876.26216415 759.01077911 877.18839081 759.17127991 878.14268494 C759.68440883 881.21890541 760.18739243 884.29663678 760.6875 887.375 C760.86196655 888.44454926 761.03643311 889.51409851 761.21618652 890.61605835 C768.50418642 935.56604498 773.99340627 980.95625147 776.74072266 1026.42333984 C776.84428966 1028.98475989 776.84428966 1028.98475989 778 1031 C778.23149687 1033.65089595 778.40470859 1036.28106016 778.53515625 1038.9375 C778.57831467 1039.77536545 778.62147308 1040.6132309 778.66593933 1041.47648621 C778.80678587 1044.31732227 778.93652543 1047.15846633 779.0625 1050 C779.12878601 1051.48809677 779.12878601 1051.48809677 779.19641113 1053.0062561 C780.8452293 1091.43532336 780.89895553 1130.14132239 779.0625 1168.5625 C778.99742249 1169.9295961 778.99742249 1169.9295961 778.93103027 1171.3243103 C778.80756572 1173.82222785 778.67467805 1176.31933873 778.53515625 1178.81640625 C778.49654984 1179.54209808 778.45794342 1180.26778992 778.41816711 1181.01547241 C778.11939242 1185.88060758 778.11939242 1185.88060758 777 1187 C776.69722861 1189.4563826 776.4522671 1191.89436112 776.24609375 1194.359375 C776.14833397 1195.47146332 776.14833397 1195.47146332 776.04859924 1196.60601807 C775.91120357 1198.17954308 775.77600963 1199.75326163 775.64282227 1201.32714844 C775.43950143 1203.72638263 775.22913964 1206.12491742 775.01757812 1208.5234375 C774.8849967 1210.05204697 774.75282229 1211.5806918 774.62109375 1213.109375 C774.55860947 1213.82414001 774.49612518 1214.53890503 774.43174744 1215.27532959 C774.13078353 1218.86087175 773.93039623 1222.40161665 774 1226 C780.35543675 1222.13966064 785.6765518 1217.64648944 791.10546875 1212.58203125 C794.92768407 1209.17247076 799.00907214 1206.19527944 803.1328125 1203.1640625 C808.15632317 1199.37247543 813.11456555 1195.41571288 817 1190.4375 C818.92332014 1188.09345358 820.71173707 1186.62034505 823.125 1184.8125 C829.41059236 1180.06454015 835.16864205 1174.57673438 840.0625 1168.39453125 C841.8221295 1166.21982786 843.52939709 1164.57246233 845.6875 1162.8125 C851.75275244 1157.61856181 857.23446953 1151.72135486 861.75 1145.125 C864 1142 864 1142 866.3046875 1140.22265625 C869.52654056 1137.56579481 871.85888665 1134.62221499 874.375 1131.3125 C874.85686768 1130.68891602 875.33873535 1130.06533203 875.83520508 1129.42285156 C877.22830411 1127.61889215 878.61438444 1125.80970897 880 1124 C881.2276018 1122.41545308 882.45649872 1120.83190739 883.6875 1119.25 C884.2340625 1118.54230469 884.780625 1117.83460937 885.34375 1117.10546875 C886.46902363 1115.67499119 887.61584425 1114.26125701 888.78125 1112.86328125 C894.4105483 1106.06890277 899.21344081 1098.81390369 904.05078125 1091.44921875 C906.49439997 1087.73545276 909.03690642 1084.11416962 911.625 1080.5 C916.62137282 1073.34034257 920.70523863 1065.71953887 924.8671875 1058.05517578 C926.39095538 1055.29071931 928.00376229 1052.58320391 929.625 1049.875 C937.54896402 1036.30428593 943.42199239 1022.25372205 948.99658203 1007.58691406 C949.83291062 1005.4307735 950.7031736 1003.30190491 951.62109375 1001.1796875 C959.72236015 982.25477791 964.20017491 962.03466662 968.3125 941.9375 C968.47739929 941.1340918 968.64229858 940.33068359 968.81219482 939.50292969 C970.8168146 929.6653179 972.58094213 919.81510187 974.03327942 909.87986755 C974.89642998 904.10357002 974.89642998 904.10357002 976 903 C976.41258194 900.44870843 976.76727832 897.91121468 977.0859375 895.34765625 C977.23818535 894.15732536 977.23818535 894.15732536 977.39350891 892.94294739 C977.72663718 890.31684101 978.05177427 887.68984279 978.375 885.0625 C978.48671539 884.16009583 978.59843079 883.25769165 978.71353149 882.32794189 C986.45376874 819.50538704 987.84591547 756.38351583 986.17918396 693.145401 C985.96066848 684.4293606 985.94478296 675.71815772 986 667 C989.61257479 667.58757302 992.45880838 668.56002882 995.6953125 670.2578125 C996.57018311 670.71470459 997.44505371 671.17159668 998.34643555 671.64233398 C999.26336182 672.13161377 1000.18028809 672.62089355 1001.125 673.125 C1002.0735083 673.62781494 1003.0220166 674.13062988 1003.99926758 674.64868164 C1010.54294983 678.14858148 1016.8583075 681.83033394 1023 686 C1025.24005398 687.50812874 1027.482089 689.01323071 1029.72583008 690.51586914 C1031.27685828 691.55614866 1032.82508102 692.60062872 1034.36987305 693.65014648 C1038.78381552 696.6242808 1043.24835437 699.3136801 1047.96484375 701.78320312 C1050.18216175 703.10891245 1051.97582303 704.62887026 1053.875 706.375 C1056.81459704 709.07108013 1059.78945152 711.22252807 1063.1875 713.3125 C1071.63294102 718.51875514 1079.27040695 724.80114469 1087 731 C1087.69738281 731.55558594 1088.39476562 732.11117187 1089.11328125 732.68359375 C1091.74654727 734.78365848 1094.37351443 736.89146006 1097 739 C1097.60875977 739.48710449 1098.21751953 739.97420898 1098.84472656 740.47607422 C1106.57899838 746.67152033 1114.15674628 752.92879146 1121.421875 759.671875 C1124.0608728 762.05496999 1126.78473325 764.28089025 1129.5625 766.5 C1134.19863297 770.23521068 1138.32668827 774.28182029 1142.4765625 778.54296875 C1144.99426534 780.99441625 1147.61037919 783.14595618 1150.375 785.3125 C1155.18432797 789.15051909 1159.21197107 793.34199199 1163.29711914 797.91015625 C1167.09701183 802.122056 1171.11790426 805.99589106 1175.3125 809.8125 C1180.22904348 814.29567839 1184.75209217 818.86886381 1189 824 C1190.36735129 825.58994336 1191.74264136 827.17308718 1193.125 828.75 C1193.74632812 829.46671875 1194.36765625 830.1834375 1195.0078125 830.921875 C1196.98799043 833.08425827 1196.98799043 833.08425827 1199.48828125 834.95703125 C1202.10850835 837.08825796 1203.98732527 839.27855743 1206.0625 841.9375 C1209.5504946 846.29604233 1213.18081432 850.42994979 1217 854.5 C1222.26699023 860.13111759 1227.18234201 865.97792751 1232 872 C1233.47672662 873.81448857 1234.95592215 875.62697042 1236.4375 877.4375 C1237.18128906 878.34886719 1237.92507813 879.26023437 1238.69140625 880.19921875 C1240.24826341 882.08799469 1241.81895813 883.96543844 1243.40234375 885.83203125 C1248.15628042 891.44212713 1252.6972508 897.14608182 1257.0625 903.0625 C1257.53993652 903.70606445 1258.01737305 904.34962891 1258.50927734 905.01269531 C1260.43772537 907.65666017 1261.9585003 909.87550091 1263 913 C1263.99 913.33 1264.98 913.66 1266 914 C1267.4387207 915.73071289 1267.4387207 915.73071289 1268.92578125 917.97265625 C1269.47556641 918.79056641 1270.02535156 919.60847656 1270.59179688 920.45117188 C1271.15962891 921.31291016 1271.72746094 922.17464844 1272.3125 923.0625 C1273.43179247 924.7420872 1274.5528733 926.42048407 1275.67578125 928.09765625 C1276.22314941 928.91766113 1276.77051758 929.73766602 1277.33447266 930.58251953 C1279.42109696 933.61121403 1281.64557662 936.51666092 1283.92260742 939.40405273 C1285 941 1285 941 1285 943 C1285.99 943.33 1286.98 943.66 1288 944 C1289.62748369 946.34715996 1291.10874949 948.67362206 1292.5625 951.125 C1293.45382223 952.5897038 1294.34710187 954.05321799 1295.2421875 955.515625 C1295.69819336 956.26263672 1296.15419922 957.00964844 1296.62402344 957.77929688 C1298.7393957 961.19331855 1300.95242741 964.53850633 1303.1875 967.875 C1303.60717041 968.5030957 1304.02684082 969.13119141 1304.45922852 969.77832031 C1306.74866066 973.18790186 1309.09729905 976.54385489 1311.5 979.875 C1315.03645212 984.86909983 1318.05045014 990.13449927 1321.10644531 995.42944336 C1323.80834266 1000.076808 1326.6808303 1004.5269012 1329.75 1008.9375 C1336.5804186 1018.83370332 1341.95922443 1029.64976734 1347.53295898 1040.28369141 C1348.52968078 1042.12917762 1349.58423365 1043.94434063 1350.68774414 1045.72802734 C1352 1048 1352 1048 1352 1050 C1352.66 1050 1353.32 1050 1354 1050 C1354.59425781 1051.16345947 1355.18851563 1052.32691895 1355.80078125 1053.52563477 C1358.04342195 1057.91547917 1360.28782547 1062.3044204 1362.53271484 1066.69311523 C1363.49704987 1068.57894378 1364.46093076 1070.46500464 1365.42431641 1072.35131836 C1366.82329687 1075.09032122 1368.22366851 1077.82860551 1369.625 1080.56640625 C1370.08656494 1081.46838242 1370.54812988 1082.37035858 1371.02368164 1083.29966736 C1373.70679999 1088.52751333 1376.4502131 1093.71674409 1379.25 1098.8828125 C1382.86887786 1105.58954713 1386.07403354 1112.44693655 1389.15771484 1119.41186523 C1390.02126542 1121.36048588 1390.89489356 1123.30438072 1391.76953125 1125.24804688 C1396 1134.72253418 1396 1134.72253418 1396 1137 C1396.66 1137 1397.32 1137 1398 1137 C1398.20996109 1137.50317749 1398.41992218 1138.00635498 1398.63624573 1138.52478027 C1400.85782795 1143.84809746 1403.08134915 1149.17060192 1405.3059082 1154.49267578 C1406.13158291 1156.46871252 1406.95679248 1158.44494368 1407.78149414 1160.42138672 C1408.9793525 1163.29187768 1410.17869532 1166.16174194 1411.37890625 1169.03125 C1411.97430962 1170.45575722 1411.97430962 1170.45575722 1412.58174133 1171.90904236 C1414.58911304 1176.69554912 1416.63479311 1181.45922349 1418.75796509 1186.19541931 C1423.25912332 1196.25199645 1426.97176736 1206.56990486 1430.6875 1216.9375 C1431.66685841 1219.66278714 1432.64786943 1222.38744244 1433.63276672 1225.11073303 C1434.23835116 1226.78581459 1434.84081278 1228.46203018 1435.43937683 1230.13963318 C1437.12918272 1234.82092887 1439.02414226 1239.35090633 1441.07566833 1243.88441467 C1442.39026486 1246.89322766 1443.44493212 1249.96344713 1444.48046875 1253.078125 C1444.69485596 1253.71988174 1444.90924316 1254.36163849 1445.13012695 1255.02284241 C1445.82103017 1257.09690635 1446.5047679 1259.17323326 1447.1875 1261.25 C1447.66772368 1262.70206736 1448.1479483 1264.15413442 1448.62817383 1265.60620117 C1451.67802932 1274.85542489 1454.67508926 1284.12197378 1457.59146118 1293.41418457 C1458.17748648 1295.28060809 1458.7677838 1297.14568854 1459.3581543 1299.01074219 C1459.70789307 1300.13770508 1460.05763184 1301.26466797 1460.41796875 1302.42578125 C1460.72500732 1303.40973877 1461.0320459 1304.39369629 1461.34838867 1305.4074707 C1462 1308 1462 1308 1462 1312 C1462.66 1312 1463.32 1312 1464 1312 C1466.00362459 1319.35318265 1468.00291867 1326.70753767 1470 1334.0625 C1470.4433519 1335.69477036 1470.4433519 1335.69477036 1470.8956604 1337.36001587 C1474.92400717 1352.2019213 1478.88900346 1367.05600593 1482.63867188 1381.97094727 C1482.92677734 1383.10846436 1483.21488281 1384.24598145 1483.51171875 1385.41796875 C1483.75365967 1386.38500732 1483.99560059 1387.3520459 1484.24487305 1388.34838867 C1484.94051144 1390.9831085 1484.94051144 1390.9831085 1485.97209167 1393.35061646 C1486.96823546 1395.91812846 1487.62241108 1398.35255789 1488.20166016 1401.04174805 C1488.52349022 1402.52179321 1488.52349022 1402.52179321 1488.8518219 1404.03173828 C1489.192006 1405.63057861 1489.192006 1405.63057861 1489.5390625 1407.26171875 C1489.78111923 1408.38473389 1490.02317596 1409.50774902 1490.27256775 1410.66479492 C1491.06196901 1414.33792602 1491.84393441 1418.01258801 1492.625 1421.6875 C1493.02584305 1423.56255722 1493.02584305 1423.56255722 1493.43478394 1425.47549438 C1497.3625137 1443.86074072 1501.0900435 1462.2741911 1504.50048828 1480.76245117 C1504.79308397 1482.34557925 1505.08588306 1483.92866975 1505.37890625 1485.51171875 C1505.51758118 1486.26252716 1505.6562561 1487.01333557 1505.7991333 1487.78689575 C1506.5908496 1492.01278628 1507.49344598 1496.1886776 1508.51171875 1500.3671875 C1510.62623514 1509.29615329 1511.89352391 1518.36896691 1513.25 1527.4375 C1513.39895721 1528.42674469 1513.54791443 1529.41598938 1513.7013855 1530.43521118 C1519.54859516 1569.37609173 1524.34773292 1608.3995125 1528.13500977 1647.59057617 C1528.31310432 1649.41817726 1528.31310432 1649.41817726 1528.49479675 1651.28269958 C1528.71719167 1653.57364474 1528.93596555 1655.86494519 1529.15058899 1658.15663147 C1529.29720222 1659.66996315 1529.29720222 1659.66996315 1529.44677734 1661.21386719 C1529.57166031 1662.53508575 1529.57166031 1662.53508575 1529.69906616 1663.88299561 C1529.89307074 1666.05021187 1529.89307074 1666.05021187 1531 1668 C1531.19420082 1669.59816125 1531.33494391 1671.20296419 1531.44897461 1672.80883789 C1531.52259216 1673.81904999 1531.59620972 1674.82926208 1531.67205811 1675.87008667 C1531.74805237 1676.97643463 1531.82404663 1678.08278259 1531.90234375 1679.22265625 C1531.98438049 1680.3741214 1532.06641724 1681.52558655 1532.15093994 1682.71194458 C1532.41834028 1686.49511855 1532.67849939 1690.27874223 1532.9375 1694.0625 C1533.02681793 1695.35096832 1533.11613586 1696.63943665 1533.2081604 1697.96694946 C1534.34234451 1714.36667313 1535.39687991 1730.76738736 1536.1875 1747.1875 C1536.22406708 1747.93919464 1536.26063416 1748.69088928 1536.29830933 1749.46536255 C1536.51940823 1754.08355387 1536.71376136 1758.70236431 1536.89312744 1763.32235718 C1536.96716608 1765.17736112 1537.04554459 1767.03219501 1537.12738037 1768.88687134 C1538.190919 1793.15443284 1538.22108599 1817.42712731 1538.24023438 1841.71411133 C1538.24459102 1846.4124337 1538.25840418 1851.11056955 1538.28125 1855.80883789 C1538.49103846 1899.91918623 1536.16831549 1943.54534007 1531.8671875 1987.4375 C1531.79486467 1988.19168622 1531.72254185 1988.94587244 1531.64802742 1989.72291279 C1531.11621837 1994.88378163 1531.11621837 1994.88378163 1530 1996 C1529.74388068 1997.34174098 1529.54509093 1998.69450796 1529.37084961 2000.04931641 C1529.25628418 2000.92038528 1529.14171875 2001.79145416 1529.02368164 2002.68891907 C1528.90114014 2003.6500914 1528.77859863 2004.61126373 1528.65234375 2005.6015625 C1528.37861637 2007.6795017 1528.10442498 2009.75737982 1527.82983398 2011.83520508 C1527.61241043 2013.4936998 1527.61241043 2013.4936998 1527.39059448 2015.18569946 C1523.15582426 2047.33053473 1517.98735386 2079.30659992 1511.75 2111.125 C1511.41730103 2112.83780151 1511.41730103 2112.83780151 1511.07788086 2114.58520508 C1510.01031171 2119.84994598 1508.75057892 2124.96000609 1507.1159668 2130.07861328 C1505.07343074 2136.6405809 1503.3536669 2143.24739272 1501.72265625 2149.921875 C1501.42942978 2151.10614075 1501.13620331 2152.29040649 1500.83409119 2153.51055908 C1499.5969086 2158.50765236 1498.36820416 2163.50681926 1497.13891602 2168.50585938 C1488.5472946 2203.39318781 1488.5472946 2203.39318781 1484.57202148 2213.78710938 C1482.71014515 2218.67413501 1481.16260155 2223.65091205 1479.6015625 2228.640625 C1478.95071378 2230.70188385 1478.29966583 2232.7630798 1477.6484375 2234.82421875 C1476.6370027 2238.03329674 1475.62723396 2241.24287111 1474.62109375 2244.45361328 C1473.64033451 2247.58002373 1472.6526442 2250.70418059 1471.6640625 2253.828125 C1471.22472885 2255.23967865 1471.22472885 2255.23967865 1470.77651978 2256.67974854 C1468.89785272 2262.59727924 1466.68744069 2268.28918822 1464.2571106 2274.0012207 C1462.23607566 2278.82230626 1460.42551337 2283.71891188 1458.6015625 2288.6171875 C1457.78417951 2290.793091 1456.96646079 2292.96886839 1456.1484375 2295.14453125 C1454.8858516 2298.50865171 1453.6255376 2301.87355697 1452.37109375 2305.24072266 C1444.11488643 2327.37913438 1444.11488643 2327.37913438 1438.63964844 2337.80664062 C1435.54704752 2343.82975259 1432.96857675 2350.08773772 1430.3125 2356.3125 C1429.47628672 2358.26139881 1428.63890628 2360.20979341 1427.80148315 2362.15817261 C1427.01215374 2363.99522153 1426.22407488 2365.83280762 1425.43603516 2367.67041016 C1423.65692484 2371.79545376 1421.83734947 2375.90060957 1420 2380 C1419.34 2380 1418.68 2380 1418 2380 C1417.82794037 2380.55646713 1417.65588074 2381.11293427 1417.47860718 2381.68626404 C1415.76524704 2387.04653859 1413.70585721 2392.02027922 1411.1640625 2397.03515625 C1410.80283295 2397.75811386 1410.44160339 2398.48107147 1410.06942749 2399.22593689 C1409.31088772 2400.74069527 1408.54943157 2402.25399653 1407.78515625 2403.76586914 C1406.62779369 2406.05696964 1405.48120778 2408.35322574 1404.3359375 2410.65039062 C1403.59177882 2412.13313035 1402.84700741 2413.61556276 1402.1015625 2415.09765625 C1401.76492584 2415.77184097 1401.42828918 2416.4460257 1401.08145142 2417.14064026 C1398.99071808 2421.26176973 1396.68108077 2425.16479286 1394.20144653 2429.06303406 C1392.40297681 2431.96251773 1390.83331795 2434.96692912 1389.2578125 2437.9921875 C1388.57703154 2439.28787006 1387.89603521 2440.58343947 1387.21484375 2441.87890625 C1386.17025396 2443.87374525 1385.1277927 2445.8696266 1384.08935547 2447.86767578 C1380.36590527 2455.02001616 1376.55623919 2461.8862423 1371.79492188 2468.41748047 C1369.66475027 2471.48235469 1367.76352382 2474.65971477 1365.88671875 2477.8828125 C1365.5417334 2478.47448212 1365.19674805 2479.06615173 1364.84130859 2479.67575073 C1363.42210411 2482.11817482 1362.00962164 2484.56438515 1360.60229492 2487.01367188 C1359.55757036 2488.82795749 1358.50399896 2490.63686019 1357.44921875 2492.4453125 C1356.83393311 2493.51281738 1356.21864746 2494.58032227 1355.5847168 2495.68017578 C1355.06176025 2496.44571777 1354.53880371 2497.21125977 1354 2498 C1353.34 2498 1352.68 2498 1352 2498 C1351.7328418 2498.72147217 1351.46568359 2499.44294434 1351.19042969 2500.1862793 C1349.99493771 2503.01196533 1348.59988163 2505.43370894 1346.953125 2508.01953125 C1346.0559375 2509.43008789 1346.0559375 2509.43008789 1345.140625 2510.86914062 C1344.51671875 2511.84044922 1343.8928125 2512.81175781 1343.25 2513.8125 C1342.6415625 2514.77220703 1342.033125 2515.73191406 1341.40625 2516.72070312 C1337.81952968 2522.33453354 1334.04969733 2527.71405652 1330 2533 C1328.41860765 2535.15372675 1326.86640699 2537.32611313 1325.3125 2539.5 C1324.89460205 2540.08386475 1324.4767041 2540.66772949 1324.04614258 2541.26928711 C1321.68587611 2544.58152045 1319.36646167 2547.91747601 1317.0859375 2551.28515625 C1316.3602356 2552.35443359 1316.3602356 2552.35443359 1315.61987305 2553.4453125 C1314.68925848 2554.82085187 1313.76335897 2556.19959725 1312.84301758 2557.58203125 C1310.20083827 2561.48799097 1307.36159888 2564.67026462 1304 2568 C1302.36767666 2570.18904289 1300.79345189 2572.37644935 1299.25 2574.625 C1293.98564762 2582.13414058 1288.2702242 2589.18084809 1282.30859375 2596.1484375 C1281.37209521 2597.24453489 1280.43590001 2598.34089152 1279.5 2599.4375 C1279.03779053 2599.97834229 1278.57558105 2600.51918457 1278.09936523 2601.07641602 C1274.19963322 2605.67833294 1270.603775 2610.45333042 1267.0703125 2615.34375 C1264.89197888 2618.13859314 1262.53292342 2620.5239536 1260 2623 C1258.01864786 2625.08299516 1256.07141199 2627.19687544 1254.125 2629.3125 C1253.59471191 2629.88718018 1253.06442383 2630.46186035 1252.51806641 2631.05395508 C1249.7542182 2634.05834009 1247.03201539 2637.08764871 1244.375 2640.1875 C1241.76293852 2643.21799852 1238.98446391 2646.01443562 1236.125 2648.8125 C1232.65262685 2652.23242039 1229.52191199 2655.73972794 1226.5 2659.5625 C1222.84471997 2664.1380354 1218.90568294 2667.96865875 1214.4921875 2671.8046875 C1209.68393272 2676.04017212 1204.95819837 2680.48176462 1201.01953125 2685.546875 C1199.02158071 2687.9737859 1197.07861135 2689.63307083 1194.5625 2691.5 C1190.2258133 2694.87368715 1186.38970797 2698.51466841 1182.5625 2702.4375 C1177.83596662 2707.27548211 1172.93730041 2711.61207642 1167.625 2715.8125 C1164.84486924 2718.12927564 1162.33981305 2720.59854517 1159.8125 2723.1875 C1156.48259039 2726.59036537 1153.1722357 2729.50473158 1149.3046875 2732.26171875 C1146.20542069 2734.59930134 1143.30425687 2737.14202706 1140.375 2739.6875 C1135.41409038 2743.97965955 1130.39104519 2748.17481393 1125.25 2752.25 C1124.65364746 2752.72783936 1124.05729492 2753.20567871 1123.44287109 2753.69799805 C1119.23965571 2757 1119.23965571 2757 1117 2757 C1117.00151888 2757.6373416 1117.00303776 2758.27468321 1117.00460267 2758.93133819 C1117.09414361 2796.71772743 1117.1627607 2834.50410096 1117.20426132 2872.2905746 C1117.20926406 2876.82913325 1117.21444135 2881.36769168 1117.21972656 2885.90625 C1117.2207758 2886.80978317 1117.22182505 2887.71331634 1117.22290608 2888.64422931 C1117.24030432 2903.26802321 1117.27183882 2917.89175411 1117.30861118 2932.51551066 C1117.34603676 2947.52437972 1117.36823927 2962.53321583 1117.37635398 2977.54212964 C1117.3818384 2986.80108202 1117.39915126 2996.05985635 1117.43166587 3005.31875391 C1117.45283372 3011.67066665 1117.45919491 3018.02248753 1117.45400551 3024.37443297 C1117.45144725 3028.03747589 1117.45532804 3031.70020797 1117.4768219 3035.36319542 C1117.49998816 3039.34037857 1117.49192861 3043.31715994 1117.48101807 3047.29440308 C1117.49849512 3049.01914645 1117.49849512 3049.01914645 1117.51632524 3050.77873313 C1117.4446655 3060.45471503 1114.92838987 3069.88012196 1108 3077 C1105.12593108 3079.23023628 1102.14862743 3081.18066787 1099 3083 C1098.45084018 3083.35036851 1097.90168036 3083.70073702 1097.33587933 3084.06172276 C1094.06261466 3085.37652944 1090.91571526 3085.28590807 1087.44233704 3085.27415466 C1086.29517386 3085.28200968 1086.29517386 3085.28200968 1085.12483567 3085.29002339 C1082.56014038 3085.30503452 1079.99564442 3085.30572878 1077.4309082 3085.30639648 C1075.59272423 3085.31401737 1073.75454345 3085.32244474 1071.91636658 3085.33161926 C1066.92028458 3085.35358164 1061.92426379 3085.36236583 1056.92813897 3085.36744571 C1053.80565874 3085.37108806 1050.68319456 3085.37732758 1047.56072044 3085.3844471 C1036.6639269 3085.4089503 1025.76718101 3085.4219948 1014.87036133 3085.42553711 C1004.71949986 3085.42917022 994.56894115 3085.45904731 984.41817218 3085.50094169 C975.69954116 3085.53566135 966.98101036 3085.55108586 958.26231068 3085.55178314 C953.05679488 3085.55257556 947.85158723 3085.56129778 942.64614296 3085.58978081 C937.74667604 3085.61598911 932.84777211 3085.61815114 927.94826698 3085.60212517 C926.15403006 3085.60031272 924.35976057 3085.60698293 922.56559372 3085.62294388 C911.50833934 3085.71527952 903.73354881 3085.09648783 895.1875 3077.5 C894.465625 3076.675 893.74375 3075.85 893 3075 C892.319375 3074.278125 891.63875 3073.55625 890.9375 3072.8125 C885.82180118 3065.38648559 884.41031443 3058.10378966 884.51898193 3049.2305603 C884.51556423 3048.19296086 884.51214653 3047.15536142 884.50862527 3046.08631957 C884.50207456 3042.63457002 884.52397662 3039.18361063 884.54589844 3035.73193359 C884.54702752 3033.24773171 884.54639187 3030.7635285 884.54412842 3028.27932739 C884.54321967 3022.94389194 884.5545115 3017.60869905 884.57707977 3012.27332687 C884.60968753 3004.5594652 884.62001571 2996.84569797 884.62503174 2989.13177486 C884.63377069 2976.61432602 884.6603481 2964.09698188 884.69824219 2951.57958984 C884.73499863 2939.42529818 884.76324666 2927.27103518 884.78027344 2915.11669922 C884.78134543 2914.35896843 884.78241742 2913.60123764 884.78352189 2912.82054532 C884.79184034 2906.89395986 884.79966777 2900.96737378 884.80734015 2895.04078746 C884.84502592 2866.02709553 884.92551049 2837.01366589 885 2808 C822.3 2808 759.6 2808 695 2808 C695.04640625 2826.07523438 695.0928125 2844.15046875 695.140625 2862.7734375 C695.16105879 2874.21224111 695.18050417 2885.65103352 695.1953125 2897.08984375 C695.20314365 2903.09879601 695.21122548 2909.10774786 695.21972656 2915.11669922 C695.22078156 2915.86979335 695.22183655 2916.62288748 695.22292352 2917.39880264 C695.24030706 2929.54705369 695.27183474 2941.69522879 695.30861118 2953.84343486 C695.34605551 2966.31655528 695.36824322 2978.78963602 695.37635398 2991.26281035 C695.38183453 2998.95559595 695.39912617 3006.64816692 695.43166587 3014.34088643 C695.4553668 3020.24586425 695.45781103 3026.15073272 695.45243073 3032.05575943 C695.45352966 3034.47363352 695.46146614 3036.89151586 695.4768219 3039.30934143 C695.49679395 3042.61671034 695.49191212 3045.92316927 695.48101807 3049.2305603 C695.49849512 3050.65764614 695.49849512 3050.65764614 695.51632524 3052.11356199 C695.43569622 3061.20208747 692.45690888 3070.36463384 686 3077 C683.12593108 3079.23023628 680.14862743 3081.18066787 677 3083 C676.45084018 3083.35036851 675.90168036 3083.70073702 675.33587933 3084.06172276 C672.06261466 3085.37652944 668.91571526 3085.28590807 665.44233704 3085.27415466 C664.29517386 3085.28200968 664.29517386 3085.28200968 663.12483567 3085.29002339 C660.56014038 3085.30503452 657.99564442 3085.30572878 655.4309082 3085.30639648 C653.59272423 3085.31401737 651.75454345 3085.32244474 649.91636658 3085.33161926 C644.92028458 3085.35358164 639.92426379 3085.36236583 634.92813897 3085.36744571 C631.80565874 3085.37108806 628.68319456 3085.37732758 625.56072044 3085.3844471 C614.6639269 3085.4089503 603.76718101 3085.4219948 592.87036133 3085.42553711 C582.71949986 3085.42917022 572.56894115 3085.45904731 562.41817218 3085.50094169 C553.69954116 3085.53566135 544.98101036 3085.55108586 536.26231068 3085.55178314 C531.05679488 3085.55257556 525.85158723 3085.56129778 520.64614296 3085.58978081 C515.74667604 3085.61598911 510.84777211 3085.61815114 505.94826698 3085.60212517 C504.15403006 3085.60031272 502.35976057 3085.60698293 500.56559372 3085.62294388 C489.50833934 3085.71527952 481.73354881 3085.09648783 473.1875 3077.5 C472.465625 3076.675 471.74375 3075.85 471 3075 C470.319375 3074.278125 469.63875 3073.55625 468.9375 3072.8125 C463.82180118 3065.38648559 462.41031443 3058.10378966 462.51898193 3049.2305603 C462.51556423 3048.19296086 462.51214653 3047.15536142 462.50862527 3046.08631957 C462.50207456 3042.63457002 462.52397662 3039.18361063 462.54589844 3035.73193359 C462.54702752 3033.24773171 462.54639187 3030.7635285 462.54412842 3028.27932739 C462.54321967 3022.94389194 462.5545115 3017.60869905 462.57707977 3012.27332687 C462.60968753 3004.5594652 462.62001571 2996.84569797 462.62503174 2989.13177486 C462.63377069 2976.61432602 462.6603481 2964.09698188 462.69824219 2951.57958984 C462.73499863 2939.42529818 462.76324666 2927.27103518 462.78027344 2915.11669922 C462.78134543 2914.35896843 462.78241742 2913.60123764 462.78352189 2912.82054532 C462.79184034 2906.89395986 462.79966777 2900.96737378 462.80734015 2895.04078746 C462.84502592 2866.02709553 462.92551049 2837.01366589 463 2808 C400.63 2808 338.26 2808 274 2808 C274.04640625 2826.07523438 274.0928125 2844.15046875 274.140625 2862.7734375 C274.16105879 2874.21224111 274.18050417 2885.65103352 274.1953125 2897.08984375 C274.20314365 2903.09879601 274.21122548 2909.10774786 274.21972656 2915.11669922 C274.22078156 2915.86979335 274.22183655 2916.62288748 274.22292352 2917.39880264 C274.24030706 2929.54705369 274.27183474 2941.69522879 274.30861118 2953.84343486 C274.34605551 2966.31655528 274.36824322 2978.78963602 274.37635398 2991.26281035 C274.38183453 2998.95559595 274.39912617 3006.64816692 274.43166587 3014.34088643 C274.4553668 3020.24586425 274.45781103 3026.15073272 274.45243073 3032.05575943 C274.45352966 3034.47363352 274.46146614 3036.89151586 274.4768219 3039.30934143 C274.49679395 3042.61671034 274.49191212 3045.92316927 274.48101807 3049.2305603 C274.49849512 3050.65764614 274.49849512 3050.65764614 274.51632524 3052.11356199 C274.43569622 3061.20208747 271.45690888 3070.36463384 265 3077 C262.12593108 3079.23023628 259.14862743 3081.18066787 256 3083 C255.45084018 3083.35036851 254.90168036 3083.70073702 254.33587933 3084.06172276 C251.06261466 3085.37652944 247.91571526 3085.28590807 244.44233704 3085.27415466 C243.29517386 3085.28200968 243.29517386 3085.28200968 242.12483567 3085.29002339 C239.56014038 3085.30503452 236.99564442 3085.30572878 234.4309082 3085.30639648 C232.59272423 3085.31401737 230.75454345 3085.32244474 228.91636658 3085.33161926 C223.92028458 3085.35358164 218.92426379 3085.36236583 213.92813897 3085.36744571 C210.80565874 3085.37108806 207.68319456 3085.37732758 204.56072044 3085.3844471 C193.6639269 3085.4089503 182.76718101 3085.4219948 171.87036133 3085.42553711 C161.71949986 3085.42917022 151.56894115 3085.45904731 141.41817218 3085.50094169 C132.69954116 3085.53566135 123.98101036 3085.55108586 115.26231068 3085.55178314 C110.05679488 3085.55257556 104.85158723 3085.56129778 99.64614296 3085.58978081 C94.74667604 3085.61598911 89.84777211 3085.61815114 84.94826698 3085.60212517 C83.15403006 3085.60031272 81.35976057 3085.60698293 79.56559372 3085.62294388 C68.50833934 3085.71527952 60.73354881 3085.09648783 52.1875 3077.5 C51.465625 3076.675 50.74375 3075.85 50 3075 C49.319375 3074.278125 48.63875 3073.55625 47.9375 3072.8125 C42.82180118 3065.38648559 41.41031443 3058.10378966 41.51898193 3049.2305603 C41.51556423 3048.19296086 41.51214653 3047.15536142 41.50862527 3046.08631957 C41.50207456 3042.63457002 41.52397662 3039.18361063 41.54589844 3035.73193359 C41.54702752 3033.24773171 41.54639187 3030.7635285 41.54412842 3028.27932739 C41.54321967 3022.94389194 41.5545115 3017.60869905 41.57707977 3012.27332687 C41.60968753 3004.5594652 41.62001571 2996.84569797 41.62503174 2989.13177486 C41.63377069 2976.61432602 41.6603481 2964.09698188 41.69824219 2951.57958984 C41.73499863 2939.42529818 41.76324666 2927.27103518 41.78027344 2915.11669922 C41.78134543 2914.35896843 41.78241742 2913.60123764 41.78352189 2912.82054532 C41.79184034 2906.89395986 41.79966777 2900.96737378 41.80734015 2895.04078746 C41.84502592 2866.02709553 41.92551049 2837.01366589 42 2808 C-20.37 2808 -82.74 2808 -147 2808 C-146.93039062 2825.97984375 -146.86078125 2843.9596875 -146.7890625 2862.484375 C-146.75840879 2873.86849305 -146.72924036 2885.25258573 -146.70703125 2896.63671875 C-146.69528483 2902.61767678 -146.68316218 2908.59863387 -146.67041016 2914.57958984 C-146.66803642 2915.70394139 -146.66803642 2915.70394139 -146.66561472 2916.8510071 C-146.6395516 2928.93653735 -146.59226699 2941.0218955 -146.53708322 2953.10732386 C-146.48088244 2965.51942727 -146.447628 2977.93144089 -146.43546903 2990.34366632 C-146.42725516 2997.99664225 -146.40135687 3005.64913189 -146.3525012 3013.30195805 C-146.31689782 3019.1799992 -146.31329194 3025.05779366 -146.32135391 3030.93594551 C-146.31970795 3033.34009601 -146.30783571 3035.74426551 -146.28476715 3038.14830589 C-146.1439145 3053.58883585 -146.71663821 3063.82173191 -157 3076 C-159.40234375 3077.73046875 -159.40234375 3077.73046875 -161.9375 3079.1875 C-162.77152344 3079.67605469 -163.60554687 3080.16460938 -164.46484375 3080.66796875 C-169.5717905 3083.35127975 -173.66815885 3084.29545182 -179.4299469 3084.28088379 C-180.5384647 3084.28979716 -180.5384647 3084.28979716 -181.66937679 3084.29889059 C-184.14104023 3084.31620733 -186.61250927 3084.31927615 -189.08422852 3084.32226562 C-190.85858064 3084.33152629 -192.63292879 3084.3415762 -194.40727234 3084.35235596 C-199.22580864 3084.37857213 -204.04428925 3084.39148833 -208.86288571 3084.40037727 C-211.87668111 3084.40624567 -214.89046141 3084.41445673 -217.90424919 3084.42338562 C-227.34317629 3084.45073106 -236.78206872 3084.47006489 -246.22103268 3084.4777894 C-257.09876906 3084.48674126 -267.9760016 3084.52179476 -278.85358483 3084.57979059 C-287.27249754 3084.62311103 -295.69126898 3084.64320267 -304.1102919 3084.64587164 C-309.13319435 3084.64796213 -314.15562306 3084.65965546 -319.17840767 3084.69551086 C-323.90889275 3084.72862235 -328.63855189 3084.73271234 -333.36911201 3084.71523285 C-335.09759748 3084.71369985 -336.8261287 3084.72227506 -338.55450058 3084.74214935 C-350.48039935 3084.87115082 -359.54546757 3083.51324645 -369 3075.4375 C-369.66 3074.633125 -370.32 3073.82875 -371 3073 C-371.680625 3072.2575 -372.36125 3071.515 -373.0625 3070.75 C-378.41452906 3063.15357165 -379.57699674 3056.48836111 -379.44496155 3047.3104248 C-379.44470158 3046.16160686 -379.4444416 3045.01278892 -379.44417375 3043.82915831 C-379.43873241 3039.99451904 -379.40488681 3036.16066025 -379.37133789 3032.32617188 C-379.35976294 3029.57101616 -379.35444209 3026.81585821 -379.34912109 3024.0606842 C-379.33495758 3018.13485073 -379.30742181 3012.20920419 -379.27189827 3006.28346252 C-379.21680043 2996.9128943 -379.20215326 2987.54246251 -379.19371033 2978.17175293 C-379.19030905 2974.96186038 -379.18662202 2971.75196822 -379.18282986 2968.54207611 C-379.18188954 2967.7400344 -379.18094923 2966.93799269 -379.17998042 2966.11164668 C-379.16868224 2956.99417326 -379.14847936 2947.87672623 -379.12475586 2938.75927734 C-379.12152065 2937.50990868 -379.12152065 2937.50990868 -379.11822008 2936.23530024 C-379.08229771 2922.73002579 -379.01920331 2909.2249727 -378.94966669 2895.71983594 C-378.87923737 2881.83951853 -378.85106929 2867.95951732 -378.85867494 2854.07902384 C-378.86176696 2845.52447184 -378.83009113 2836.97146354 -378.75342827 2828.41724789 C-378.7037729 2822.55535138 -378.69411723 2816.69424604 -378.71570743 2810.83218229 C-378.72689026 2807.45132468 -378.71421819 2804.07504149 -378.66519737 2800.69421577 C-377.67993782 2786.8834915 -377.67993782 2786.8834915 -382.35873222 2774.50352478 C-385.15270069 2772.17827534 -387.7595007 2770.61661826 -391 2769 C-392.69522072 2767.70316452 -394.36656116 2766.37383882 -396 2765 C-396.83917969 2764.32582031 -397.67835938 2763.65164062 -398.54296875 2762.95703125 C-404.06415968 2758.47972871 -409.43265971 2753.88448733 -414.6875 2749.09765625 C-416.66384372 2747.30492554 -418.6645673 2745.55204773 -420.6875 2743.8125 C-424.77079513 2740.25635158 -428.72787085 2736.56744126 -432.6875 2732.875 C-433.32969482 2732.2766333 -433.97188965 2731.6782666 -434.63354492 2731.06176758 C-438.98524802 2726.99063704 -443.21145521 2722.81480402 -447.39453125 2718.5703125 C-448.19246094 2717.76335938 -448.99039062 2716.95640625 -449.8125 2716.125 C-450.60269531 2715.32320312 -451.39289063 2714.52140625 -452.20703125 2713.6953125 C-454.37841781 2711.59984855 -456.57076976 2709.63226833 -458.859375 2707.671875 C-463.00931946 2704.07158237 -466.72946172 2700.17265755 -470.4375 2696.125 C-474.50621046 2691.72586398 -478.57650627 2687.36512221 -482.875 2683.1875 C-486.82670729 2679.29499432 -490.27515527 2675.0903551 -493.7421875 2670.765625 C-497.33420065 2666.36571962 -501.17708865 2662.19881914 -505 2658 C-511.20462936 2651.15351243 -516.93136128 2643.92871865 -522.65771484 2636.68212891 C-523.87195981 2635.16045779 -525.11598234 2633.66266579 -526.36328125 2632.16796875 C-528 2630 -528 2630 -528 2628 C-528.60360352 2627.74347656 -529.20720703 2627.48695313 -529.82910156 2627.22265625 C-532.2373172 2625.86634227 -533.19931661 2624.71081011 -534.734375 2622.4375 C-535.22204346 2621.72795166 -535.70971191 2621.01840332 -536.2121582 2620.28735352 C-536.719646 2619.53252686 -537.22713379 2618.7777002 -537.75 2618 C-538.8191637 2616.44492667 -539.89077345 2614.8915322 -540.96484375 2613.33984375 C-541.4841748 2612.58944824 -542.00350586 2611.83905273 -542.53857422 2611.06591797 C-544.90196205 2607.72495776 -547.47976677 2604.57542066 -550.07714844 2601.41601562 C-556.69997658 2593.09459519 -562.42185807 2584.00369761 -568.39453125 2575.2109375 C-571.41838973 2570.76592814 -574.46203237 2566.3407251 -577.57421875 2561.95703125 C-581.05317815 2557.00066527 -584.21539493 2551.88889613 -587.3125 2546.6875 C-587.83650391 2545.82060547 -588.36050781 2544.95371094 -588.90039062 2544.06054688 C-589.40376953 2543.21943359 -589.90714844 2542.37832031 -590.42578125 2541.51171875 C-590.87348877 2540.76365967 -591.32119629 2540.01560059 -591.7824707 2539.24487305 C-593.06066705 2536.88814246 -594.05204052 2534.50573521 -595 2532 C-595.66 2532 -596.32 2532 -597 2532 C-600.07617188 2526.46289062 -603.15234375 2520.92578125 -606.22851562 2515.38867188 C-606.72679367 2514.49201309 -606.72679367 2514.49201309 -607.23513794 2513.57723999 C-607.89639686 2512.38664953 -608.55710643 2511.19575379 -609.21725464 2510.00454712 C-610.66692237 2507.3900047 -612.12469532 2504.78101453 -613.60400391 2502.18310547 C-614.06081543 2501.3788916 -614.51762695 2500.57467773 -614.98828125 2499.74609375 C-615.57863159 2498.71826782 -615.57863159 2498.71826782 -616.1809082 2497.66967773 C-617 2496 -617 2496 -617 2494 C-617.66 2494 -618.32 2494 -619 2494 C-621.84528363 2488.45447432 -624.68946719 2482.90838623 -627.53271484 2477.36181641 C-628.49629371 2475.48243678 -629.46015205 2473.60320041 -630.42431641 2471.72412109 C-633.62448533 2465.48695523 -636.81712606 2459.24601017 -640 2453 C-640.56696594 2451.88866699 -640.56696594 2451.88866699 -641.14538574 2450.75488281 C-646.13299009 2440.95794478 -650.77997774 2431.04274869 -655.25 2421 C-656.15234714 2418.97798396 -657.05575607 2416.9564579 -657.96112061 2414.93579102 C-658.77220442 2413.12485583 -659.58006958 2411.31248004 -660.38769531 2409.5 C-661.52418972 2407.03289162 -662.69465756 2404.63175617 -663.93652344 2402.22045898 C-666.34931688 2397.43129026 -668.2625592 2392.47365782 -670.1875 2387.47265625 C-670.57188232 2386.48430283 -670.95626465 2385.4959494 -671.35229492 2384.47764587 C-672.57183362 2381.34066114 -673.78630203 2378.20174863 -675 2375.0625 C-676.21428144 2371.9270553 -677.4297202 2368.79207382 -678.64770508 2365.6580658 C-679.40243638 2363.71556406 -680.15501513 2361.77222405 -680.9050293 2359.82789612 C-682.53474969 2355.62895027 -684.20991499 2351.47541615 -686.07055664 2347.37304688 C-687.98976427 2343.11567038 -689.56536487 2338.7934243 -691.05859375 2334.37109375 C-691.46513939 2333.18194115 -691.46513939 2333.18194115 -691.87989807 2331.96876526 C-692.44899607 2330.30137923 -693.01610742 2328.6333139 -693.58129883 2326.96459961 C-694.42774131 2324.46630301 -695.28069548 2321.97030729 -696.13476562 2319.47460938 C-699.18687363 2310.525238 -702.1165943 2301.55416649 -704.84399414 2292.50024414 C-705.94700046 2288.97939706 -705.94700046 2288.97939706 -707.4753418 2285.61987305 C-709.23891942 2281.43275289 -710.47079968 2277.23414623 -711.671875 2272.859375 C-711.91525101 2271.98713287 -712.15862701 2271.11489075 -712.40937805 2270.21621704 C-713.1946447 2267.39552136 -713.97253895 2264.5728561 -714.75 2261.75 C-715.28944579 2259.80544959 -715.82907891 2257.86095114 -716.36889648 2255.91650391 C-719.65531635 2244.04580726 -722.8594472 2232.15740359 -725.85644531 2220.20996094 C-726.22334473 2218.75638184 -726.22334473 2218.75638184 -726.59765625 2217.2734375 C-726.79883057 2216.46310059 -727.00000488 2215.65276367 -727.20727539 2214.81787109 C-727.87472671 2212.44530469 -728.63040566 2210.15302729 -729.43652344 2207.82592773 C-731.13177274 2202.79168312 -732.30280184 2197.70102582 -733.41796875 2192.51171875 C-733.63641449 2191.51072144 -733.85486023 2190.50972412 -734.07992554 2189.47839355 C-734.78876056 2186.21609048 -735.48876617 2182.95198043 -736.1875 2179.6875 C-736.42822235 2178.57138336 -736.6689447 2177.45526672 -736.91696167 2176.30532837 C-740.83047991 2158.12990167 -744.35556236 2139.90385983 -747.5378418 2121.58666992 C-747.76777328 2120.27357849 -747.76777328 2120.27357849 -748.00234985 2118.93395996 C-748.28422546 2117.3186856 -748.56198982 2115.70268535 -748.83456421 2114.08581543 C-749.36838276 2111.01897296 -749.96255748 2108.10734569 -750.98901367 2105.16455078 C-752.47616942 2100.50951268 -753.05453244 2095.77988564 -753.734375 2090.94921875 C-753.8928894 2089.84829391 -754.05140381 2088.74736908 -754.21472168 2087.61308289 C-754.73476699 2083.97233817 -755.24383804 2080.33019978 -755.75 2076.6875 C-755.92607788 2075.42649475 -756.10215576 2074.1654895 -756.28356934 2072.86627197 C-769.87398141 1975.02360499 -776.66852973 1875.59418073 -750.07763672 1658.28613281 C-748.58713834 1653.74102447 -747.54516142 1649.11728899 -746.4609375 1644.4609375 C-745.96194772 1642.34431633 -745.46258453 1640.22778317 -744.96289062 1638.11132812 C-744.70354736 1637.00990479 -744.4442041 1635.90848145 -744.17700195 1634.77368164 C-736.79319924 1603.48299135 -736.79319924 1603.48299135 -732.5 1588.5 C-732.04826416 1586.91517822 -732.04826416 1586.91517822 -731.58740234 1585.29833984 C-730.03898903 1580.03164566 -728.22386657 1574.98881424 -726.13378906 1569.91650391 C-723.51981361 1563.19244044 -721.37662539 1556.28944121 -719.125 1549.4375 C-716.09075699 1540.22343147 -713.04477933 1531.01347426 -709.8671875 1521.84765625 C-709.63822784 1521.17512314 -709.40926819 1520.50259003 -709.17337036 1519.80967712 C-707.72571718 1515.6754722 -705.9654731 1511.8375593 -703.96408081 1507.94340515 C-702.50982161 1505.01189279 -701.35681186 1501.98721959 -700.1953125 1498.9296875 C-699.94884979 1498.28613312 -699.70238708 1497.64257874 -699.44845581 1496.97952271 C-698.67011278 1494.94612882 -697.89704623 1492.91079213 -697.125 1490.875 C-693.30168168 1480.8128655 -689.32004241 1470.86092458 -685 1461 C-684.34 1461 -683.68 1461 -683 1461 C-682.86053955 1460.00009033 -682.86053955 1460.00009033 -682.71826172 1458.97998047 C-681.8023925 1455.18015051 -680.19596184 1451.82307666 -678.5078125 1448.3203125 C-678.16120575 1447.58932343 -677.814599 1446.85833435 -677.45748901 1446.10519409 C-676.35188365 1443.77593494 -675.23876617 1441.45036641 -674.125 1439.125 C-673.01986298 1436.80609519 -671.91631838 1434.486444 -670.81393433 1432.16622925 C-670.12911436 1430.72612254 -669.44247734 1429.28687796 -668.75369263 1427.84866333 C-666.72932649 1423.60646947 -664.82476718 1419.33197333 -663 1415 C-662.34 1415 -661.68 1415 -661 1415 C-660.75523926 1414.17999512 -660.51047852 1413.35999023 -660.25830078 1412.51513672 C-658.78216485 1408.3914648 -656.89057206 1404.63466854 -654.8671875 1400.7578125 C-654.47048859 1399.98944061 -654.07378967 1399.22106873 -653.66506958 1398.42941284 C-652.40575293 1395.99249294 -651.140479 1393.55872453 -649.875 1391.125 C-649.01653086 1389.46635084 -648.15845374 1387.80749874 -647.30078125 1386.1484375 C-645.20505068 1382.09659524 -643.10397429 1378.04756729 -641 1374 C-640.34 1374 -639.68 1374 -639 1374 C-638.74476563 1373.31373535 -638.48953125 1372.6274707 -638.2265625 1371.92041016 C-636.82213808 1368.57651587 -635.13583248 1365.43781899 -633.375 1362.2734375 C-633.02743652 1361.64394196 -632.67987305 1361.01444641 -632.32177734 1360.36587524 C-631.59024276 1359.04230926 -630.85730723 1357.71951672 -630.12304688 1356.39746094 C-629.00063396 1354.37614169 -627.88277967 1352.35235428 -626.765625 1350.328125 C-626.05234901 1349.03891548 -625.33881614 1347.74984803 -624.625 1346.4609375 C-624.29161621 1345.85776703 -623.95823242 1345.25459656 -623.61474609 1344.63314819 C-622.15878272 1342.01459208 -620.66347076 1339.49520613 -619 1337 C-618.34 1337 -617.68 1337 -617 1337 C-616.58572754 1335.9020813 -616.58572754 1335.9020813 -616.16308594 1334.78198242 C-615.07535769 1332.18024788 -613.85168342 1329.89529463 -612.390625 1327.48828125 C-611.88273438 1326.64716797 -611.37484375 1325.80605469 -610.8515625 1324.93945312 C-610.32304688 1324.07255859 -609.79453125 1323.20566406 -609.25 1322.3125 C-608.73695313 1321.46494141 -608.22390625 1320.61738281 -607.6953125 1319.74414062 C-606.66013114 1318.03401062 -605.62172393 1316.32582909 -604.58007812 1314.61962891 C-603.48225867 1312.79954195 -602.40416695 1310.96746835 -601.34179688 1309.12646484 C-600.81134766 1308.21203613 -600.28089844 1307.29760742 -599.734375 1306.35546875 C-599.01846191 1305.10286255 -599.01846191 1305.10286255 -598.28808594 1303.82495117 C-597.86301758 1303.22271729 -597.43794922 1302.6204834 -597 1302 C-596.34 1302 -595.68 1302 -595 1302 C-594.72929688 1301.26136719 -594.45859375 1300.52273438 -594.1796875 1299.76171875 C-593.0493223 1297.11546644 -591.81895732 1295.12588948 -590.125 1292.8125 C-587.64887795 1289.37315076 -585.25906193 1285.89494319 -582.94140625 1282.34765625 C-582.13775635 1281.12115356 -582.13775635 1281.12115356 -581.31787109 1279.86987305 C-580.2361558 1278.21457976 -579.15959723 1276.55590446 -578.08837891 1274.89379883 C-577.33886963 1273.75140747 -577.33886963 1273.75140747 -576.57421875 1272.5859375 C-576.12651123 1271.8954834 -575.67880371 1271.2050293 -575.2175293 1270.49365234 C-574.81574463 1270.00074707 -574.41395996 1269.5078418 -574 1269 C-573.34 1269 -572.68 1269 -572 1269 C-571.7421875 1268.27683594 -571.484375 1267.55367187 -571.21875 1266.80859375 C-569.9391896 1263.85986321 -568.42969088 1261.62883069 -566.5 1259.0625 C-564.15751235 1255.91517934 -561.8226063 1252.76826951 -559.56640625 1249.55859375 C-555.10093008 1243.20627197 -550.50270351 1237.10503645 -545.5078125 1231.15234375 C-541.51706747 1226.25731639 -537.94889516 1221.02026472 -534.34057617 1215.84082031 C-533.8066626 1215.08510742 -533.27274902 1214.32939453 -532.72265625 1213.55078125 C-532.24578369 1212.86669189 -531.76891113 1212.18260254 -531.27758789 1211.4777832 C-530.85598389 1210.99011475 -530.43437988 1210.50244629 -530 1210 C-529.34 1210 -528.68 1210 -528 1210 C-527.58572754 1209.11489746 -527.58572754 1209.11489746 -527.16308594 1208.21191406 C-526.0597546 1206.11363911 -524.8852274 1204.44129717 -523.390625 1202.609375 C-522.8857959 1201.98554932 -522.3809668 1201.36172363 -521.86083984 1200.71899414 C-521.3292627 1200.06922607 -520.79768555 1199.41945801 -520.25 1198.75 C-516.86558507 1194.58126835 -513.51860424 1190.41819045 -510.375 1186.0625 C-509.59125 1185.051875 -508.8075 1184.04125 -508 1183 C-507.34 1183 -506.68 1183 -506 1183 C-505.76539063 1182.45601562 -505.53078125 1181.91203125 -505.2890625 1181.3515625 C-503.64776128 1178.35743119 -501.58975325 1175.97373524 -499.375 1173.375 C-498.47174486 1172.3093656 -497.56941435 1171.24294683 -496.66796875 1170.17578125 C-495.99386963 1169.37841553 -495.99386963 1169.37841553 -495.30615234 1168.56494141 C-492.76272233 1165.51757946 -490.32781059 1162.3833754 -487.88671875 1159.25390625 C-486 1157 -486 1157 -483.6796875 1154.68359375 C-480.42737432 1151.42653959 -477.43820788 1147.98758914 -474.4375 1144.5 C-473.87353516 1143.84902344 -473.30957031 1143.19804688 -472.72851562 1142.52734375 C-470.40307175 1139.83472453 -468.1104546 1137.14039089 -465.91015625 1134.34375 C-463.76176764 1131.70769036 -461.41879739 1129.39067184 -459 1127 C-456.64753425 1124.51778194 -454.32456046 1122.00833982 -452 1119.5 C-448.06818415 1115.25733546 -444.0940972 1111.08737454 -440 1107 C-438.30223095 1105.17617227 -436.61526235 1103.34224886 -434.9375 1101.5 C-433.95970804 1100.43092316 -432.98184094 1099.36191503 -432.00390625 1098.29296875 C-430.06949871 1096.17480812 -428.14073837 1094.05168047 -426.21484375 1091.92578125 C-419.61479669 1084.67454176 -412.77828559 1077.6987002 -405.78662109 1070.82348633 C-402.27679658 1067.35652429 -399.0521875 1063.88397733 -396 1060 C-394.78165483 1058.86100084 -393.53170276 1057.75470292 -392.25 1056.6875 C-386.76217125 1051.98510399 -381.61168217 1047.00891063 -377 1041.4375 C-374.94485581 1038.97976192 -372.794954 1036.88603012 -370.34960938 1034.81835938 C-365.82352768 1030.90259965 -361.61296284 1026.72244993 -357.40625 1022.46875 C-356.61528931 1021.67400269 -355.82432861 1020.87925537 -355.00939941 1020.0604248 C-352.50380477 1017.54271568 -350.00149142 1015.02178554 -347.5 1012.5 C-344.2008832 1009.17411811 -340.89835626 1005.85167664 -337.59375 1002.53125 C-336.47933533 1001.40438782 -336.47933533 1001.40438782 -335.34240723 1000.25476074 C-331.26303481 996.15652471 -327.09370558 992.2366273 -322.70269775 988.47317505 C-318.10405537 984.49442709 -313.6953176 980.15767694 -309.9375 975.375 C-308.23977903 973.29392268 -306.6712732 971.83094566 -304.625 970.125 C-299.74169572 965.96413212 -295.48608268 961.26107677 -291.14624023 956.55029297 C-288.06196033 953.20411284 -284.95863932 949.91625309 -281.6875 946.75 C-277.88269807 943.00996065 -274.59522862 938.91371908 -271.26171875 934.75390625 C-269.21334422 932.25977146 -267.08455046 929.91299739 -264.875 927.5625 C-259.70596021 921.89643715 -255.21316762 915.74487503 -250.65209961 909.5859375 C-247.005718 904.66270692 -243.29107002 899.82436507 -239.4375 895.0625 C-233.98789389 888.30254381 -229.28291382 881.05492468 -224.59350586 873.75415039 C-224.02510986 872.87879639 -223.45671387 872.00344238 -222.87109375 871.1015625 C-222.36505615 870.31088379 -221.85901855 869.52020508 -221.33764648 868.70556641 C-220.89622314 868.14272949 -220.4547998 867.57989258 -220 867 C-219.34 867 -218.68 867 -218 867 C-217.76410156 866.31808594 -217.52820313 865.63617187 -217.28515625 864.93359375 C-215.71976642 861.36031787 -213.63664945 858.26433157 -211.4375 855.0625 C-210.53280155 853.72727511 -209.62917968 852.39132022 -208.7265625 851.0546875 C-208.27055664 850.38018555 -207.81455078 849.70568359 -207.34472656 849.01074219 C-204.59007028 844.89176086 -201.95229706 840.69750972 -199.30078125 836.51171875 C-197.52212244 833.73959312 -195.61913124 831.07543926 -193.6953125 828.40234375 C-189.52522712 822.4780816 -186.04785061 816.21870692 -182.5625 809.875 C-181.92634766 808.72773437 -181.29019531 807.58046875 -180.63476562 806.3984375 C-179.08488067 803.60165262 -177.54008371 800.80219015 -176 798 C-175.34 798 -174.68 798 -174 798 C-173.73429199 797.29206299 -173.46858398 796.58412598 -173.19482422 795.85473633 C-171.94480458 792.86812423 -170.48049342 790.13968133 -168.8828125 787.32421875 C-168.27566406 786.24849609 -167.66851563 785.17277344 -167.04296875 784.06445312 C-166.41003906 782.95005859 -165.77710938 781.83566406 -165.125 780.6875 C-161.25579569 773.8625427 -157.42312155 767.06126331 -154 760 C-153.34 760 -152.68 760 -152 760 C-151.75161377 759.33718018 -151.50322754 758.67436035 -151.24731445 757.99145508 C-149.69587293 754.27060698 -147.88656549 750.71982539 -146.04296875 747.13671875 C-145.6581282 746.3859053 -145.27328766 745.63509186 -144.87678528 744.86152649 C-144.06346149 743.27663872 -143.24895794 741.69235589 -142.43334961 740.10864258 C-141.19807001 737.70804141 -139.96895003 735.30435666 -138.74023438 732.90039062 C-137.94568715 731.35397411 -137.15077676 729.80774413 -136.35546875 728.26171875 C-135.99382126 727.55311203 -135.63217377 726.84450531 -135.25956726 726.11442566 C-133.46237728 722.63745907 -131.5802229 719.27765721 -129.47485352 715.97705078 C-127.03891813 712.14387155 -125.00521096 708.1994033 -123.046875 704.10546875 C-122.70118469 703.39143387 -122.35549438 702.67739899 -121.99932861 701.94172668 C-121.27799975 700.4495754 -120.55883901 698.95637417 -119.84179688 697.4621582 C-118.74327928 695.17349801 -117.63783242 692.88828572 -116.53125 690.60351562 C-115.82772263 689.14602749 -115.1245835 687.68835187 -114.421875 686.23046875 C-114.09274109 685.54921432 -113.76360718 684.8679599 -113.42449951 684.1660614 C-112.1309263 681.46661938 -110.94779008 678.84337023 -110 676 C-109.34 676 -108.68 676 -108 676 C-107.72905518 675.13971191 -107.45811035 674.27942383 -107.17895508 673.39306641 C-106.01497026 670.04308484 -104.64881856 666.91751066 -103.13671875 663.7109375 C-102.30043945 661.92623047 -102.30043945 661.92623047 -101.44726562 660.10546875 C-100.86099669 658.86182845 -100.27440687 657.61833937 -99.6875 656.375 C-95.98605919 648.52548272 -92.36492621 640.67382875 -89.15161133 632.60791016 C-87.96223417 629.91447645 -86.52288556 627.51722877 -85 625 C-84.09221249 623.11651365 -83.21503393 621.2180744 -82.36328125 619.30859375 C-81.87182617 618.20749268 -81.38037109 617.1063916 -80.87402344 615.97192383 C-80.3587207 614.80556396 -79.84341797 613.6392041 -79.3125 612.4375 C-78.78301758 611.24342529 -78.25353516 610.04935059 -77.70800781 608.8190918 C-73.22372899 598.64108418 -69.01995526 588.36911989 -65 578 C-64.34 578 -63.68 578 -63 578 C-62.90106445 577.35232666 -62.80212891 576.70465332 -62.70019531 576.03735352 C-61.76956369 572.00039813 -60.2972577 568.25816992 -58.796875 564.40234375 C-58.47720764 563.57223282 -58.15754028 562.74212189 -57.82818604 561.88685608 C-57.15085936 560.13030124 -56.47159476 558.3744926 -55.79052734 556.61938477 C-54.76358411 553.97251208 -53.74258173 551.32341177 -52.72265625 548.67382812 C-49.61116356 540.60934126 -46.44907817 532.5769157 -43.09130859 524.61108398 C-36.10863998 507.90422922 -30.52122115 490.71986975 -25.07397461 473.46704102 C-24.701856 472.29705818 -24.701856 472.29705818 -24.32221985 471.10343933 C-23.85700048 469.63965661 -23.3958353 468.1745763 -22.93962097 466.70796204 C-21.99062443 463.72718162 -20.975244 460.95215189 -19.53613281 458.1706543 C-17.39132684 453.74366842 -16.15344065 449.15889437 -14.8203125 444.43359375 C-14.52567108 443.40428238 -14.23102966 442.37497101 -13.92745972 441.31446838 C-13.30439421 439.13242145 -12.68427199 436.94953223 -12.06689453 434.76586914 C-11.142269 431.4985234 -10.20670363 428.23446906 -9.26953125 424.97070312 C-5.48839767 411.72315339 -2.06169788 398.43193629 1 385 C1.66 385 2.32 385 3 385 C3.09796875 383.84757812 3.1959375 382.69515625 3.296875 381.5078125 C3.93955393 375.73044356 5.15108163 370.08094203 6.32324219 364.39306641 C13.22503112 330.90146935 16.84150288 297.10299654 19 263 C19.10803955 261.3296167 19.10803955 261.3296167 19.21826172 259.62548828 C23.9321595 182.08999717 17.83452341 102.34401761 4.75 25.875 C4.62530334 25.14421234 4.50060669 24.41342468 4.37213135 23.66049194 C3.078487 15.67639658 3.078487 15.67639658 0.91894531 7.90283203 C0.02257149 5.0713005 -0.17315561 2.94364537 0 0 Z " fill="#00A19C" transform="translate(799,20)"/>
<path d="M0 0 C5.75377634 1.86008416 10.61940751 6.22434182 15.45288086 9.79296875 C16.31526367 10.42452881 16.31526367 10.42452881 17.19506836 11.06884766 C26.22777785 17.73864531 34.18123972 25.18667329 41.96948242 33.26220703 C43.33081708 34.66700761 44.71315177 36.05137811 46.09741211 37.43359375 C53.92470566 45.27386789 60.62070684 53.75063387 67.01416016 62.76953125 C68.03827231 64.20985732 69.07498102 65.64126231 70.12011719 67.06640625 C74.66397044 73.35683254 78.35936971 79.89044005 81.89038086 86.79296875 C82.43114258 87.82808594 82.9719043 88.86320312 83.52905273 89.9296875 C87.45288086 97.51939298 87.45288086 97.51939298 87.45288086 99.79296875 C88.11288086 99.79296875 88.77288086 99.79296875 89.45288086 99.79296875 C98.26783059 120.70346977 105.33305363 141.59060398 109.62866211 163.89453125 C110.32983701 167.65246021 110.32983701 167.65246021 111.46069336 170.5859375 C112.96920831 175.46188544 113.43628825 180.42056598 114.01538086 185.48046875 C114.20934448 187.14517212 114.20934448 187.14517212 114.40722656 188.84350586 C115.49121333 198.48703501 116.18013101 208.09443854 116.45288086 217.79296875 C116.49413086 218.99308594 116.53538086 220.19320313 116.57788086 221.4296875 C116.95499994 243.23188418 114.83857733 265.28251048 111.45288086 286.79296875 C110.79288086 286.79296875 110.13288086 286.79296875 109.45288086 286.79296875 C109.41694824 287.49317139 109.38101563 288.19337402 109.34399414 288.91479492 C108.79975341 297.20801927 107.26907485 305.03498883 105.32788086 313.10546875 C105.09745087 314.0768428 105.09745087 314.0768428 104.86236572 315.06784058 C100.29234654 334.30027466 94.70162363 353.08549317 86.62841797 371.15185547 C85.28960065 374.15981514 83.96877694 377.17539805 82.64819336 380.19140625 C81.62484224 382.5169651 80.60140301 384.84248517 79.57788086 387.16796875 C79.07385742 388.32296875 78.56983398 389.47796875 78.05053711 390.66796875 C74.84865809 397.92337747 71.35654211 404.89230305 67.45288086 411.79296875 C66.41501919 413.66400634 65.37726031 415.53510095 64.33959961 417.40625 C56.67297705 431.10164192 48.83904369 444.40527306 39.47241211 457.0234375 C37.284892 460.02334419 35.21592523 463.0896747 33.14038086 466.16796875 C28.73098728 472.57679425 23.81448377 478.41829872 18.73120117 484.296875 C14.80463631 488.89236574 11.08963135 493.67482106 7.39428711 498.45703125 C1.62241055 505.85463486 1.62241055 505.85463486 -1.60961914 508.41796875 C-4.02682039 510.37230168 -5.80232164 512.14158031 -7.79711914 514.48046875 C-13.80403584 521.50842869 -20.40760152 527.94997777 -27.42993164 533.95703125 C-29.95311369 536.14503045 -32.40266433 538.40589988 -34.85961914 540.66796875 C-43.35283827 548.39330779 -52.29204122 555.43890131 -61.50512695 562.27636719 C-64.66049515 564.61869572 -67.79806265 566.97041605 -70.86352539 569.4296875 C-78.09346751 575.19373397 -85.54513089 579.91404816 -93.56274414 584.4921875 C-96.76024484 586.31901028 -99.8519918 588.25734084 -102.92211914 590.29296875 C-114.51681628 597.73798481 -127.04270344 603.68193214 -139.54711914 609.41796875 C-140.4969165 609.8560083 -141.44671387 610.29404785 -142.42529297 610.74536133 C-143.31112061 611.1452124 -144.19694824 611.54506348 -145.10961914 611.95703125 C-145.8946582 612.3123291 -146.67969727 612.66762695 -147.48852539 613.03369141 C-149.54711914 613.79296875 -149.54711914 613.79296875 -152.54711914 613.79296875 C-152.54711914 614.45296875 -152.54711914 615.11296875 -152.54711914 615.79296875 C-175.32394258 624.76708105 -198.46105865 631.98895146 -222.36352539 637.30224609 C-224.28346225 637.7337167 -226.19714723 638.19281108 -228.10961914 638.65625 C-245.19749423 642.66122072 -263.02086145 644.31875208 -280.54711914 644.79296875 C-281.2707666 644.81488281 -281.99441406 644.83679687 -282.73999023 644.859375 C-308.07278826 645.52646646 -336.12493725 644.23919053 -360.22290039 635.90625 C-362.8824509 635.01556622 -365.50794474 634.24422984 -368.21508789 633.5234375 C-377.81644768 630.95552665 -387.09132066 627.994308 -396.29711914 624.23046875 C-397.18906982 623.86671143 -398.08102051 623.5029541 -399 623.12817383 C-404.75228324 620.71302696 -410.13763783 617.88964885 -415.54711914 614.79296875 C-417.0568412 613.96769097 -418.56857471 613.14608243 -420.08227539 612.328125 C-421.59138997 611.50390625 -423.10050456 610.6796875 -424.60961914 609.85546875 C-425.36049805 609.45134766 -426.11137695 609.04722656 -426.88500977 608.63085938 C-431.43917042 606.13138486 -435.54337466 603.3787766 -439.64282227 600.19116211 C-441.41417095 598.8905834 -443.16705679 597.85109052 -445.10571289 596.82421875 C-449.16699304 594.42709539 -452.25277016 591.57175147 -455.60961914 588.29296875 C-459.72429522 584.30051077 -463.7240777 580.93756523 -468.54711914 577.79296875 C-474.21099196 572.79085427 -479.04333871 567.14406624 -483.62524414 561.15234375 C-485.54901891 558.70706952 -485.54901891 558.70706952 -487.98071289 556.37109375 C-495.47651068 548.84106857 -501.30819612 539.88603377 -506.73071289 530.8046875 C-508.36576888 528.09365918 -510.07675838 525.47062324 -511.85961914 522.85546875 C-516.24247767 516.2991927 -516.24247767 516.2991927 -517.54711914 512.79296875 C-516.1975534 508.47281056 -512.54391391 505.53915881 -509.40258789 502.453125 C-508.7957869 501.8491539 -508.1889859 501.2451828 -507.563797 500.62290955 C-505.62539207 498.6956734 -503.6801612 496.77549709 -501.73461914 494.85546875 C-500.43663307 493.56752074 -499.13910197 492.27911404 -497.84204102 490.99023438 C-495.44861274 488.61310606 -493.05255601 486.23869796 -490.65332031 483.86743164 C-486.61947722 479.8785965 -482.6126799 475.86337275 -478.62133789 471.83203125 C-477.15915584 470.36061991 -475.69691484 468.88926715 -474.23461914 467.41796875 C-473.15277344 466.32355469 -473.15277344 466.32355469 -472.04907227 465.20703125 C-468.60899994 461.75153259 -465.1455526 458.39538906 -461.44165039 455.22265625 C-457.50602159 451.83457211 -454.02790966 448.1396658 -450.54711914 444.29296875 C-446.37862154 439.75390121 -442.22372501 435.42140942 -437.48461914 431.46875 C-432.57513877 427.2224454 -427.67922897 422.6017917 -423.75024414 417.42578125 C-421.89165246 415.20469828 -420.14480412 413.52499567 -417.953125 411.66601562 C-413.38024002 407.70306365 -409.11050985 403.48325798 -404.84790039 399.19140625 C-404.04982468 398.39191559 -403.25174896 397.59242493 -402.42948914 396.76870728 C-399.9038185 394.2374885 -397.38165957 391.70280406 -394.85961914 389.16796875 C-393.15607642 387.45940275 -391.45230243 385.75106731 -389.74829102 384.04296875 C-386.62552067 380.91206763 -383.50406175 377.77987251 -380.38427734 374.64599609 C-377.44254545 371.69098219 -374.49549985 368.74134946 -371.54711914 365.79296875 C-370.2261408 364.46159782 -368.90580357 363.12959039 -367.58618164 361.796875 C-366.11488464 360.31634944 -364.64352908 358.83588207 -363.17211914 357.35546875 C-362.44250977 356.61748047 -361.71290039 355.87949219 -360.96118164 355.11914062 C-357.11070067 351.25147001 -353.19778626 347.575745 -349.0168457 344.0690918 C-347.19658072 342.4886059 -345.64390045 340.77504691 -344.10961914 338.91796875 C-339.34809035 333.3380522 -334.23644012 328.19858255 -328.67211914 323.41796875 C-323.01790979 318.54596227 -317.27177762 313.38241014 -312.75024414 307.42578125 C-310.95963975 305.28594551 -309.36675792 303.73550799 -307.25390625 301.96679688 C-300.86835806 296.43084618 -294.99503091 290.36396658 -289.03540039 284.37890625 C-287.73623806 283.07787456 -286.4368516 281.77706665 -285.13725281 280.47647095 C-281.73563904 277.07106269 -278.33703753 273.66266395 -274.93908691 270.25360107 C-271.48407569 266.78834752 -268.0262253 263.32592966 -264.56860352 259.86328125 C-258.98534789 254.271268 -253.40379008 248.67756709 -247.8245697 243.08152771 C-244.73477148 239.9826491 -241.64146034 236.88730995 -238.54711914 233.79296875 C-237.31071733 232.54629125 -236.07499564 231.29893872 -234.84008789 230.05078125 C-233.47165094 228.6731248 -232.10316017 227.29552181 -230.73461914 225.91796875 C-229.72431641 224.89509766 -229.72431641 224.89509766 -228.69360352 223.8515625 C-224.74792016 219.88700027 -220.69599745 216.13230118 -216.45996094 212.48095703 C-213.46391759 209.83709695 -210.66177982 207.014392 -207.85961914 204.16796875 C-207.04654297 203.348125 -207.04654297 203.348125 -206.21704102 202.51171875 C-205.20385674 201.48997924 -204.19172121 200.46719749 -203.18115234 199.44287109 C-200.97784956 197.21817063 -198.7615412 195.00660355 -196.54711914 192.79296875 C-195.56064782 191.80653968 -194.57419853 190.82008858 -193.58776855 189.83361816 C-174.56066895 170.80651855 -155.53356934 151.77941895 -136.50646973 132.75231934 C-136.00716792 132.25299707 -135.50786612 131.75367481 -134.99343395 131.23922157 C-133.58535243 129.83120041 -132.17705574 128.42339443 -130.76875305 127.01559448 C-128.85975532 125.1057445 -126.95726467 123.18987469 -125.05883789 121.26953125 C-113.56327276 109.67981367 -113.56327276 109.67981367 -109.29711914 106.10546875 C-104.99295514 102.48139993 -101.35746264 98.26478319 -97.64868164 94.05078125 C-95.32172297 91.51396208 -92.83846862 89.25034997 -90.25097656 86.98095703 C-83.30350686 80.75712972 -76.7641338 74.13451734 -70.18383789 67.52734375 C-68.82027376 66.16190933 -67.45648481 64.79669938 -66.09248352 63.43170166 C-62.52978414 59.86521551 -58.97009712 56.29573794 -55.41107178 52.72558594 C-51.78832488 49.09257803 -48.16272194 45.46242281 -44.53735352 41.83203125 C-38.68723305 35.97316117 -32.83881796 30.1125955 -26.99273682 24.24969482 C-26.47863754 23.73415039 -25.96453827 23.21860596 -25.43486023 22.68743896 C-24.94914488 22.20032251 -24.46342953 21.71320606 -23.96299553 21.21132851 C-22.57110574 19.81699742 -21.17678589 18.4250935 -19.78242493 17.03323364 C-17.80260441 15.04902082 -15.86998935 13.03321756 -13.95336914 10.98828125 C-12.65156174 9.63124566 -11.34947301 8.2744799 -10.04711914 6.91796875 C-9.39614258 6.21671875 -8.74516602 5.51546875 -8.07446289 4.79296875 C-7.43637695 4.13554688 -6.79829102 3.478125 -6.14086914 2.80078125 C-5.57045898 2.1989502 -5.00004883 1.59711914 -4.41235352 0.97705078 C-2.54711914 -0.20703125 -2.54711914 -0.20703125 0 0 Z " fill="#EB0028" transform="translate(1885.547119140625,1640.20703125)"/>
<path d="M0 0 C4.98613109 4.17480675 9.65268404 8.52906978 14.21875 13.15625 C14.88032104 13.82160767 15.54189209 14.48696533 16.22351074 15.17248535 C19.02346202 17.98862227 21.81736275 20.81073367 24.61181641 23.63232422 C26.6661947 25.70489556 28.72365244 27.77437541 30.78125 29.84375 C31.71124817 30.78619568 31.71124817 30.78619568 32.66003418 31.74768066 C36.15023014 35.25717117 39.73085181 38.5691667 43.53370667 41.73843384 C45.35912144 43.3089801 46.90503165 45.02011623 48.4375 46.875 C53.17291724 52.42431708 58.2331859 57.54743526 63.8125 62.25 C67.21063254 65.16551839 70.20745872 68.35530104 73.1875 71.6875 C78.14939349 77.22749513 83.4748479 82.24153895 88.9765625 87.23828125 C93.58150785 91.42184965 98.16600121 95.65018906 102 100.5625 C103.77113214 102.7210673 105.46860946 104.32108251 107.58569336 106.11694336 C112.14338015 110.06778498 116.38913617 114.27947897 120.62890625 118.56640625 C121.8189048 119.76208473 121.8189048 119.76208473 123.03294373 120.98191833 C125.54525691 123.50634673 128.05428652 126.03399861 130.5625 128.5625 C133.87335629 131.90007983 137.18759529 135.23424724 140.50390625 138.56640625 C141.25201065 139.32280899 142.00011505 140.07921173 142.77088928 140.85853577 C146.57405955 144.67929059 150.42910835 148.33965059 154.57861328 151.78334045 C156.39144217 153.33506142 157.91914407 155.03719775 159.4375 156.875 C164.17291724 162.42431708 169.2331859 167.54743526 174.8125 172.25 C178.2106137 175.16550222 181.20760828 178.35518797 184.1875 181.6875 C188.06912481 186.02462853 192.11152384 190.04425024 196.4375 193.9375 C200.98035949 198.02701801 205.21417687 202.27739561 209.3125 206.8125 C212.94781786 210.83456621 216.63621805 214.57581888 220.796875 218.0546875 C225.60254598 222.29799273 230.03037838 226.95970875 234.53442383 231.51855469 C235.78702622 232.78472016 237.04528531 234.04528531 238.3046875 235.3046875 C240.68693082 237.68693082 243.06106567 240.07684133 245.43359375 242.46875 C247.10149755 244.14589793 248.7694681 245.82297948 250.4375 247.5 C251.27087891 248.34175781 252.10425781 249.18351562 252.96289062 250.05078125 C258.00818628 255.1343501 258.00818628 255.1343501 263.38671875 259.85546875 C265.66957909 261.72884741 267.49770981 263.54926945 269.375 265.8125 C274.13586634 271.37905141 279.21031165 276.52815553 284.8125 281.25 C288.6924854 284.58107274 292.03269564 288.2906486 295.4362793 292.10009766 C299.28766776 296.35058355 303.39765209 300.25142267 307.625 304.125 C312.63883125 308.71924288 317.28578548 313.42711734 321.75390625 318.5625 C325.33558363 322.44939859 329.27682233 325.92420546 333.19921875 329.4609375 C337.56735448 333.42089318 341.71783342 337.42194882 345.4375 342 C347.45400499 344.36078633 349.2944498 346.18345184 351.63671875 348.16796875 C356.08832117 352.02255885 360.23668238 356.12655704 364.375 360.3125 C365.52814697 361.4713269 365.52814697 361.4713269 366.70458984 362.65356445 C369.9585983 365.92376036 373.20656266 369.1999349 376.45507812 372.47558594 C378.84295352 374.88165285 381.23390793 377.28463038 383.625 379.6875 C384.34606934 380.41686768 385.06713867 381.14623535 385.81005859 381.89770508 C389.82862939 385.93539416 393.94083117 389.78429575 398.27778625 393.4790802 C400.79310723 395.70040812 402.97648744 398.16715659 405.1875 400.6875 C409.08237405 405.05130365 413.15460733 409.08606476 417.5 413 C422.31682499 417.33968667 426.73566648 421.88055869 431.05126953 426.71533203 C433.84009328 429.8123355 436.73383908 432.63849749 439.875 435.375 C444.08947183 439.05259644 447.86121872 442.99914027 451.625 447.125 C455.48843918 451.35609529 459.34452937 455.33265738 463.74609375 459.01171875 C467.11996236 461.98797373 470.30527918 465.14605105 473.5 468.3125 C474.13671631 468.93640625 474.77343262 469.5603125 475.42944336 470.203125 C476.01991455 470.79222656 476.61038574 471.38132812 477.21875 471.98828125 C477.75435547 472.51977783 478.28996094 473.05127441 478.84179688 473.59887695 C480 475 480 475 480 477 C480.57202148 477.24532471 481.14404297 477.49064941 481.73339844 477.7434082 C484.38736797 479.21475473 486.14499183 480.93552401 488.265625 483.10546875 C489.07386719 483.92466797 489.88210938 484.74386719 490.71484375 485.58789062 C491.55144531 486.44576172 492.38804687 487.30363281 493.25 488.1875 C498.4279613 493.47519831 503.59311104 498.67421434 509.23876953 503.46582031 C515.70285825 509.09658459 515.70285825 509.09658459 517 512 C515.90906078 517.06195798 513.28640796 521.47056584 510.75 525.9375 C510.34595947 526.65260742 509.94191895 527.36771484 509.52563477 528.10449219 C507.17147179 532.19060963 504.76634782 535.82621199 501.5078125 539.25390625 C499.50458222 541.57370919 497.95651721 544.10166726 496.3125 546.6875 C492.26471064 552.86287504 487.55697306 558.12336395 482.47949219 563.43505859 C480.94512582 565.05804348 479.44237261 566.70585584 477.9453125 568.36328125 C470.31078718 576.80310043 462.34985859 584.35176542 453.265625 591.2421875 C451.80666952 592.37413572 450.37607113 593.54412401 448.984375 594.7578125 C439.92931094 602.54256182 429.34577096 608.13316876 419 614 C418.18821289 614.46760742 417.37642578 614.93521484 416.54003906 615.41699219 C399.55643003 625.14546726 375.10436391 637.85629698 355 637 C354.67 637.66 354.34 638.32 354 639 C351.01418868 639.77758667 348.08896167 640.42611671 345.0625 641 C344.16168701 641.17442627 343.26087402 641.34885254 342.33276367 641.52856445 C300.91280619 649.2927647 254.68797489 648.54200219 214.23095703 636.62451172 C211.46771642 635.85099788 208.6877868 635.16194683 205.90234375 634.47265625 C186.32210128 629.6089539 167.31244385 623.97602933 149.17236328 615.04394531 C145.53469242 613.29583556 141.84809512 611.65603563 138.16967773 609.99584961 C125.83321173 604.41721663 113.73993273 598.6662073 102.27636719 591.42822266 C99.68460403 589.80211643 97.07351544 588.20962861 94.4609375 586.6171875 C84.22208503 580.33933262 74.24160765 574.06002263 64.96484375 566.41796875 C62.13340148 564.10879515 59.23392813 561.98154566 56.25 559.875 C51.7143738 556.61916306 47.61658746 553.05688872 43.51953125 549.26953125 C40.9836561 546.98527782 38.36309488 544.86801794 35.6875 542.75 C30.6592843 538.69039242 26.14735985 534.26580832 21.63012695 529.65942383 C18.80546225 526.7841152 15.97019983 524.02632767 12.875 521.4375 C5.43508064 515.11435501 -0.89276427 507.35264757 -7.26171875 499.98046875 C-8.53642414 498.52816396 -9.83413894 497.09596963 -11.14453125 495.67578125 C-26 479.55494037 -26 479.55494037 -26 475 C-26.87180908 474.66802612 -26.87180908 474.66802612 -27.76123047 474.3293457 C-30.69560848 472.58695876 -31.94141054 470.5730748 -33.8203125 467.73046875 C-34.52027344 466.67666016 -35.22023438 465.62285156 -35.94140625 464.53710938 C-36.66199219 463.43173828 -37.38257813 462.32636719 -38.125 461.1875 C-38.85332031 460.09373047 -39.58164062 458.99996094 -40.33203125 457.87304688 C-46.19360841 448.98316876 -46.19360841 448.98316876 -48 444 C-48.66 444 -49.32 444 -50 444 C-51.42174722 441.96580782 -52.68983264 439.95201948 -53.9375 437.8125 C-54.51552368 436.83470581 -54.51552368 436.83470581 -55.10522461 435.8371582 C-58.58297609 429.87303173 -61.84285713 423.79397225 -65.0625 417.6875 C-65.55161865 416.76235596 -66.0407373 415.83721191 -66.54467773 414.8840332 C-67.2205896 413.58598755 -67.2205896 413.58598755 -67.91015625 412.26171875 C-68.31371338 411.48787842 -68.71727051 410.71403809 -69.13305664 409.91674805 C-70 408 -70 408 -70 406 C-70.66 406 -71.32 406 -72 406 C-78.85532339 392.25623571 -84.51330643 378.22301632 -89.91015625 363.85058594 C-91.25887728 360.32288281 -92.71778016 356.85385812 -94.1875 353.375 C-106.25415172 323.34471704 -112.17917401 289.92994148 -114.75585938 257.78759766 C-115.02355842 254.73100999 -115.36464034 251.68624831 -115.703125 248.63671875 C-120.6517793 199.21251012 -111.24646521 143.36143036 -88.19189453 99.28076172 C-86.8454108 96.70418428 -85.51468173 94.11971905 -84.18359375 91.53515625 C-83.20655566 89.64800937 -82.2286981 87.76128651 -81.25 85.875 C-80.56031128 84.54142456 -80.56031128 84.54142456 -79.85668945 83.1809082 C-77.46670323 78.61195766 -75.10959332 74.12359115 -72 70 C-71.34 70 -70.68 70 -70 70 C-69.79117188 69.34 -69.58234375 68.68 -69.3671875 68 C-67.49542729 63.89282331 -64.86809417 60.56536461 -62.125 57 C-61.59519531 56.30132813 -61.06539063 55.60265625 -60.51953125 54.8828125 C-59.02266638 52.91423091 -57.51398443 50.95543152 -56 49 C-55.31679688 48.113125 -54.63359375 47.22625 -53.9296875 46.3125 C-51.75629992 43.70795456 -49.42339983 41.37430056 -47 39 C-45.85878176 37.83909973 -44.71960454 36.67619095 -43.58203125 35.51171875 C-36.70491773 28.51642614 -29.83180435 21.93318511 -22 16 C-20.35279478 14.64750242 -18.70698783 13.29330031 -17.0625 11.9375 C-12.63330236 8.38008094 -7.98694513 5.32436033 -3.15234375 2.34765625 C-1.09950279 1.17419114 -1.09950279 1.17419114 0 0 Z " fill="#EB0028" transform="translate(408,1639)"/>
<path d="M0 0 C12.80433154 4.54890726 20.90432624 17.92975778 28.078125 28.73828125 C28.74070312 29.71539063 29.40328125 30.6925 30.0859375 31.69921875 C34.98580854 39.09293096 39.37804758 46.70975421 43.640625 54.48828125 C44.44632935 55.95442871 44.44632935 55.95442871 45.26831055 57.45019531 C45.76371338 58.36510742 46.25911621 59.28001953 46.76953125 60.22265625 C47.21498291 61.04475586 47.66043457 61.86685547 48.11938477 62.71386719 C49.078125 64.73828125 49.078125 64.73828125 49.078125 66.73828125 C49.738125 66.73828125 50.398125 66.73828125 51.078125 66.73828125 C53.12721194 70.93129528 55.17165518 75.12653242 57.2121582 79.32373047 C57.90430151 80.74587244 58.59762516 82.16744067 59.29223633 83.58837891 C71.078125 107.70477493 71.078125 107.70477493 71.078125 111.73828125 C71.738125 111.73828125 72.398125 111.73828125 73.078125 111.73828125 C85.98869858 142.27748146 85.98869858 142.27748146 90.390625 153.48828125 C90.67365479 154.20032715 90.95668457 154.91237305 91.24829102 155.64599609 C92.3560486 158.50719614 93.078125 160.63947961 93.078125 163.73828125 C93.738125 163.73828125 94.398125 163.73828125 95.078125 163.73828125 C106.7249345 196.29508165 106.7249345 196.29508165 111.828125 212.17578125 C112.16263672 213.20952881 112.49714844 214.24327637 112.84179688 215.30834961 C113.14150391 216.25331299 113.44121094 217.19827637 113.75 218.171875 C114.13816895 219.3947522 114.13816895 219.3947522 114.53417969 220.64233398 C115.078125 222.73828125 115.078125 222.73828125 115.078125 225.73828125 C115.738125 225.73828125 116.398125 225.73828125 117.078125 225.73828125 C124.61660671 251.45579451 131.93148169 277.20118504 136.83740234 303.57788086 C136.97484863 304.31014893 137.11229492 305.04241699 137.25390625 305.796875 C137.36645752 306.41876709 137.47900879 307.04065918 137.5949707 307.68139648 C138.07642906 309.89210091 138.07642906 309.89210091 139.06494141 312.56860352 C140.11923813 315.86690096 140.65819573 318.9639988 141.11328125 322.39453125 C141.28279297 323.66554688 141.45230469 324.9365625 141.62695312 326.24609375 C141.71146729 326.90383789 141.79598145 327.56158203 141.88305664 328.23925781 C142.13647443 330.20606812 142.40115281 332.17141698 142.66601562 334.13671875 C149.42830599 385.64412586 149.42830599 385.64412586 135.640625 406.17578125 C130.14936094 413.52455536 123.60455441 417.53251483 114.640625 419.48828125 C113.465 419.57078125 112.289375 419.65328125 111.078125 419.73828125 C110.39878906 419.78984375 109.71945312 419.84140625 109.01953125 419.89453125 C87.6303904 420.76019631 66.47459 411.79496282 48.078125 401.73828125 C47.18657715 401.25552734 46.2950293 400.77277344 45.37646484 400.27539062 C33.39248014 393.7558457 21.98450418 386.92913436 11.078125 378.73828125 C9.40224492 377.51388277 7.71607618 376.30331968 6.015625 375.11328125 C5.36464844 374.64664063 4.71367188 374.18 4.04296875 373.69921875 C1.46838645 372.4400791 -0.08249735 372.3394679 -2.921875 372.73828125 C-5.38737514 374.12375469 -5.38737514 374.12375469 -7.796875 376.11328125 C-18.9413351 384.5341943 -30.3890874 391.71548166 -42.671875 398.36328125 C-43.8276001 398.99186035 -44.9833252 399.62043945 -46.17407227 400.26806641 C-47.80493774 401.13890869 -47.80493774 401.13890869 -49.46875 402.02734375 C-50.93586426 402.81165771 -50.93586426 402.81165771 -52.43261719 403.61181641 C-54.921875 404.73828125 -54.921875 404.73828125 -57.921875 404.73828125 C-58.251875 405.39828125 -58.581875 406.05828125 -58.921875 406.73828125 C-75.87440123 416.37296699 -98.74532826 422.74234631 -118.046875 418.61328125 C-126.73307847 416.18294453 -132.95445732 412.05558233 -137.64453125 404.2734375 C-155.15251499 369.5251762 -141.39084681 319.27188096 -133.421875 283.42578125 C-133.14956055 282.1934375 -132.87724609 280.96109375 -132.59667969 279.69140625 C-130.8377622 272.01086876 -128.67984623 264.51479392 -126.27832031 257.0168457 C-124.80471569 252.40676951 -123.42622567 247.7702026 -122.0546875 243.12890625 C-121.56004089 241.45975518 -121.06524766 239.79064756 -120.5703125 238.12158203 C-120.19664551 236.86139252 -120.19664551 236.86139252 -119.81542969 235.57574463 C-110.28422682 203.48741209 -110.28422682 203.48741209 -104.13671875 188.31640625 C-102.29735773 183.74902379 -100.56904242 179.1457792 -98.86328125 174.52734375 C-98.45328384 173.41741562 -98.45328384 173.41741562 -98.03500366 172.2850647 C-96.89923026 169.20671066 -95.76526797 166.12769702 -94.63354492 163.04785156 C-91.25357124 153.85650693 -87.79426892 144.73625682 -83.921875 135.73828125 C-83.261875 135.73828125 -82.601875 135.73828125 -81.921875 135.73828125 C-81.80271729 135.02833008 -81.68355957 134.31837891 -81.56079102 133.58691406 C-80.88793291 130.58694908 -79.89846828 127.9898408 -78.69921875 125.16015625 C-78.24651611 124.08878418 -77.79381348 123.01741211 -77.32739258 121.91357422 C-76.84294678 120.78322754 -76.35850098 119.65288086 -75.859375 118.48828125 C-75.36783936 117.33344238 -74.87630371 116.17860352 -74.36987305 114.98876953 C-70.43424882 105.80031784 -66.2913907 96.72771469 -61.921875 87.73828125 C-61.261875 87.73828125 -60.601875 87.73828125 -59.921875 87.73828125 C-59.53644531 86.47886719 -59.15101562 85.21945313 -58.75390625 83.921875 C-56.87251654 78.28652315 -54.29877472 73.08785491 -51.609375 67.80078125 C-51.14853516 66.87587891 -50.68769531 65.95097656 -50.21289062 64.99804688 C-45.90378614 56.445763 -41.05926443 48.32288447 -35.671875 40.41015625 C-34.28722095 38.29608622 -32.96854179 36.17150091 -31.671875 34.00390625 C-26.44545758 25.31363707 -20.97699395 18.06286654 -13.921875 10.73828125 C-12.82806531 9.43449917 -11.74315264 8.12313959 -10.671875 6.80078125 C-4.36381613 -0.59425951 -4.36381613 -0.59425951 0 0 Z " fill="#EB0028" transform="translate(1149.921875,2247.26171875)"/>
<path d="M0 0 C3.33013714 3.33013714 5.79594396 6.47681569 8.3125 10.375 C11.48486551 15.22390436 14.69969968 20.03746131 17.98828125 24.80859375 C18.67172607 25.80133301 19.3551709 26.79407227 20.05932617 27.81689453 C21.42725346 29.8006397 22.7984689 31.78212181 24.1730957 33.76123047 C24.79917725 34.67146973 25.42525879 35.58170898 26.0703125 36.51953125 C26.63508301 37.33526611 27.19985352 38.15100098 27.78173828 38.99145508 C29 41 29 41 29 43 C29.66 43 30.32 43 31 43 C31.23332031 42.31808594 31.46664062 41.63617187 31.70703125 40.93359375 C33.29391274 37.33314662 35.4261625 34.25936751 37.6875 31.0625 C38.66875933 29.65810414 39.64917788 28.25312056 40.62890625 26.84765625 C41.16273926 26.08340332 41.69657227 25.31915039 42.24658203 24.53173828 C44.19350507 21.72060045 46.11245636 18.89164626 48.02734375 16.05859375 C48.70643799 15.05497803 49.38553223 14.0513623 50.08520508 13.01733398 C51.43747497 11.01701039 52.78759878 9.01523419 54.13549805 7.01196289 C54.75336182 6.10051514 55.37122559 5.18906738 56.0078125 4.25 C56.56098145 3.43015625 57.11415039 2.6103125 57.68408203 1.765625 C58.11833496 1.18296875 58.55258789 0.6003125 59 0 C59.33 0 59.66 0 60 0 C60 21.78 60 43.56 60 66 C56.7 66 53.4 66 50 66 C49.67 56.1 49.34 46.2 49 36 C46.40125 39.733125 43.8025 43.46625 41.125 47.3125 C40.30789551 48.48594971 39.49079102 49.65939941 38.64892578 50.8684082 C38.0042334 51.79484131 37.35954102 52.72127441 36.6953125 53.67578125 C36.03547363 54.62364502 35.37563477 55.57150879 34.69580078 56.5480957 C33.44692931 58.35379915 32.21784739 60.17322891 31 62 C26.81856406 60.60618802 25.51136903 57.62450305 23.25 54.0625 C19.2962317 47.93667746 15.18777437 41.98253481 11 36 C10.67 45.9 10.34 55.8 10 66 C6.7 66 3.4 66 0 66 C0 44.22 0 22.44 0 0 Z " fill="#FFFFFF" transform="translate(2074,3026)"/>
<path d="M0 0 C14.85 0 29.7 0 45 0 C45 2.97 45 5.94 45 9 C39.39 9 33.78 9 28 9 C28 26.82 28 44.64 28 63 C24.7 63 21.4 63 18 63 C18 45.18 18 27.36 18 9 C12.06 9 6.12 9 0 9 C0 6.03 0 3.06 0 0 Z " fill="#FFFFFF" transform="translate(2021,3029)"/>
</svg>
