<?xml version="1.0" encoding="UTF-8"?>
<svg version="1.1" xmlns="http://www.w3.org/2000/svg" width="155" height="200">
<path d="M0 0 C13.62512805 1.80598163 24.62293591 10.93587741 33.57421875 20.8515625 C46.92330018 37.66823215 50.24743626 56.13418227 52 77 C61.38831174 66.11984694 62.50554847 56.89579296 63 43 C74.60604625 47.14931187 83.52546058 59.08079228 89.3359375 69.5078125 C92.63316139 76.42733869 94.91063053 83.63769574 97 91 C97.51433594 92.80404297 97.51433594 92.80404297 98.0390625 94.64453125 C103.32823551 116.66627495 100.54901923 138.89611233 89.9609375 158.80078125 C86.36672163 164.66465136 82.25792178 171.04431343 76.2734375 174.63671875 C72.63404542 178.4199356 73.25676341 182.6318518 73.25 187.6875 C73.21699503 189.60813537 73.18071896 191.52871829 73.140625 193.44921875 C73.13579102 194.29830811 73.13095703 195.14739746 73.12597656 196.0222168 C73 198 73 198 72 199 C69.4672235 199.07320163 66.96896082 199.09227569 64.4375 199.0625 C61.983125 199.041875 59.52875 199.02125 57 199 C57 193.39 57 187.78 57 182 C53.37 182 49.74 182 46 182 C46.01160156 183.05960938 46.02320312 184.11921875 46.03515625 185.2109375 C46.04453476 186.59895658 46.05363489 187.98697755 46.0625 189.375 C46.07087891 190.07367188 46.07925781 190.77234375 46.08789062 191.4921875 C46.11328125 196.7734375 46.11328125 196.7734375 45 199 C40.05 199 35.1 199 30 199 C30 193.39 30 187.78 30 182 C26.04 182 22.08 182 18 182 C18 187.61 18 193.22 18 199 C13.05 199 8.1 199 3 199 C1.46733418 195.93466836 1.89723529 192.73245728 1.9375 189.375 C1.94201172 188.66859375 1.94652344 187.9621875 1.95117188 187.234375 C1.96296125 185.48954725 1.98089676 183.744763 2 182 C-1.63 182 -5.26 182 -9 182 C-9 187.61 -9 193.22 -9 199 C-13.95 199 -18.9 199 -24 199 C-25.36058829 196.27882342 -25.06593463 193.7669524 -25.0859375 190.78027344 C-25.00722158 183.48139001 -25.00722158 183.48139001 -27.3046875 176.74609375 C-28.46598173 175.72126497 -29.66732076 174.74058436 -30.8984375 173.80078125 C-39.38047291 166.53271745 -44.02929704 154.39163545 -47 144 C-47.31839844 142.89140625 -47.63679688 141.7828125 -47.96484375 140.640625 C-52.44120074 122.73519704 -50.60752043 105.48730698 -42.1875 89.0625 C-38.97347721 83.62338451 -35.10440854 78.78847663 -31 74 C-30.37609375 73.26523438 -29.7521875 72.53046875 -29.109375 71.7734375 C-25.87863814 68.02297341 -22.50067468 64.50067468 -19 61 C-8.58689334 49.76480597 0.18882934 32.28981717 0.09765625 16.69921875 C0.09443359 15.72275391 0.09121094 14.74628906 0.08789062 13.74023438 C0.07951172 12.73283203 0.07113281 11.72542969 0.0625 10.6875 C0.05798828 9.66076172 0.05347656 8.63402344 0.04882812 7.57617188 C0.03708184 5.05072118 0.02065565 2.52539095 0 0 Z M70 105 C59.44 115.56 48.88 126.12 38 137 C39.48305532 141.83789051 39.48305532 141.83789051 42.0625 143.75 C47.57911867 146.09749731 52.75253058 146.6255873 58.5625 145 C66.55266332 141.91827907 72.33184982 135.6354199 76 128 C77.83381249 122.06361983 77.88276184 116.21020516 75.1875 110.5625 C73.65120361 107.64883442 72.88690893 106.92460595 70 105 Z M-27.4375 107.125 C-31.48098833 111.66159667 -32.21815111 115.29279658 -32 121.25 C-31.09351863 128.99725354 -27.30847705 135.1178807 -21.6875 140.4375 C-16.49089599 144.45772992 -10.89004504 146.3796879 -4.3125 145.9375 C-0.12287282 145.26364388 2.74158978 143.7815697 6 141 C7.15617814 138.93336026 7.15617814 138.93336026 8 137 C3.46449785 132.43923537 -1.07484744 127.88232285 -5.61694336 123.328125 C-7.16308911 121.77693658 -8.70833806 120.22485376 -10.25268555 118.671875 C-12.4669098 116.44558219 -14.68429226 114.22247893 -16.90234375 112 C-17.5971434 111.30003906 -18.29194305 110.60007812 -19.00779724 109.87890625 C-19.64838577 109.23824219 -20.2889743 108.59757812 -20.94897461 107.9375 C-21.51523056 107.36902344 -22.08148651 106.80054687 -22.66490173 106.21484375 C-24.96739021 104.11974423 -24.88716401 104.90163016 -27.4375 107.125 Z M22 144 C17.63371528 152.11127992 13.25300577 160.53807311 14 170 C15.60875 169.7525 15.60875 169.7525 17.25 169.5 C22.09718047 168.85370927 26.22072389 169.13104071 31 170 C33.01772893 162.93794874 29.89813299 155.69723296 26.65234375 149.375 C25.52093225 147.52779755 24.27202893 145.75333718 23 144 C22.67 144 22.34 144 22 144 Z " fill="#EB0028" transform="translate(51,1)"/>
<path d="M0 0 C1.3921875 0.2784375 1.3921875 0.2784375 2.8125 0.5625 C6.01343771 1.24123881 6.01343771 1.24123881 9 0 C9 1.98 9 3.96 9 6 C6.36 6 3.72 6 1 6 C0.67 4.02 0.34 2.04 0 0 Z " fill="#EB0028" transform="translate(129,194)"/>
</svg>
