<?xml version="1.0" encoding="UTF-8"?>
<svg version="1.1" xmlns="http://www.w3.org/2000/svg" width="2414" height="3105">
<path d="M0 0 C8.05252583 0.4790584 15.54327986 2.20280425 23.3125 4.3125 C25.22409912 4.82731934 25.22409912 4.82731934 27.17431641 5.35253906 C38.16669137 8.35605417 49.03105279 11.7526779 59.875 15.25 C60.67354401 15.50584869 61.47208801 15.76169739 62.29483032 16.02529907 C64.59243294 16.76420466 66.88655738 17.51296725 69.1796875 18.265625 C70.18897057 18.59034035 70.18897057 18.59034035 71.21864319 18.9216156 C75.42287053 20.32035275 79.29326637 22.07263252 83.23013306 24.10284424 C85.19020437 25.09641569 87.16278516 25.90891178 89.234375 26.640625 C89.96366211 26.90262695 90.69294922 27.16462891 91.44433594 27.43457031 C92.20520508 27.70366211 92.96607422 27.97275391 93.75 28.25 C100.80116521 30.79492911 107.79310393 33.45738835 114.75 36.25 C115.57081055 36.5790332 116.39162109 36.90806641 117.23730469 37.24707031 C121.8510878 39.10663955 126.43539355 41.02281753 131 43 C131 43.66 131 44.32 131 45 C131.78697266 45.185625 131.78697266 45.185625 132.58984375 45.375 C140.76018177 47.55013159 148.12245544 51.21511613 155.69628906 54.88867188 C159.59528196 56.76957646 163.51760666 58.60066609 167.4375 60.4375 C174.66224863 63.83112431 174.66224863 63.83112431 177 65 C177 65.66 177 66.32 177 67 C178.00160156 67.24492188 179.00320313 67.48984375 180.03515625 67.7421875 C184.22282633 68.94226761 187.70960398 70.91121049 191.4375 73.125 C199.45887329 77.77080725 207.67189312 81.93561805 216 86 C216 86.66 216 87.32 216 88 C216.97453125 88.35191406 216.97453125 88.35191406 217.96875 88.7109375 C221.97242548 90.41353145 225.70722365 92.49994381 229.5 94.625 C230.29664063 95.07012939 231.09328125 95.51525879 231.9140625 95.97387695 C240.46145605 100.77920924 248.89081075 105.73076801 256.875 111.4375 C260.98301968 114.37275713 265.22336623 116.98957324 269.5625 119.5625 C273.89058642 122.13275922 278.20976339 124.70347475 282.4375 127.4375 C283.48744141 128.11619141 283.48744141 128.11619141 284.55859375 128.80859375 C285.03425781 129.20175781 285.50992187 129.59492188 286 130 C286 130.66 286 131.32 286 132 C286.65613281 132.21269531 287.31226563 132.42539063 287.98828125 132.64453125 C292.10136319 134.49568486 295.54350676 137.04964797 299.1875 139.6875 C300.71466081 140.78150542 302.24200354 141.87525693 303.76953125 142.96875 C304.50123535 143.4946875 305.23293945 144.020625 305.98681641 144.5625 C308.42672269 146.30469842 310.89907012 147.99701003 313.375 149.6875 C317.8844044 152.82879697 322.07074905 156.31062334 326.29296875 159.82421875 C328.73576269 161.78761879 331.21377197 163.56441944 333.8125 165.3125 C338.77563045 168.70003348 343.22140064 172.56546688 347.73950195 176.51123047 C352.19863795 180.38032102 356.83017387 183.89586578 361.64453125 187.31640625 C364.58197542 189.41597248 367.34084102 191.5564485 370 194 C370 194.66 370 195.32 370 196 C370.88945312 196.41185547 370.88945312 196.41185547 371.796875 196.83203125 C373.90839925 197.95143861 375.46805207 199.10883253 377.25 200.6875 C377.8584375 201.22246094 378.466875 201.75742188 379.09375 202.30859375 C379.7228125 202.86675781 380.351875 203.42492187 381 204 C381.6084375 204.52722656 382.216875 205.05445313 382.84375 205.59765625 C387.74644827 209.84733118 392.54095114 214.21118573 397.33203125 218.5859375 C399.59230826 220.63110762 401.87718881 222.63695226 404.1875 224.625 C407.54136776 227.53487305 410.66645227 230.61882557 413.75 233.8125 C415.67347238 235.68254259 417.63692175 237.42625478 419.66967773 239.17407227 C423.78542454 242.76592806 427.67970489 246.53463515 431.53515625 250.40234375 C432.21750839 251.08373917 432.89986053 251.76513458 433.60289001 252.46717834 C435.03344437 253.89705741 436.46275767 255.32817911 437.89086914 256.76049805 C440.05699074 258.93197711 442.22840174 261.09806325 444.40039062 263.26367188 C445.79979987 264.66374202 447.19889884 266.06412238 448.59765625 267.46484375 C449.55575951 268.41991066 449.55575951 268.41991066 450.53321838 269.39427185 C454.34201859 273.22261573 457.96197727 277.16477111 461.47950745 281.26275635 C463.49763319 283.5685724 465.66667015 285.68967787 467.875 287.8125 C473.0131679 292.88819778 477.49758363 298.36332105 482 304 C483.07562939 305.2980891 484.15793399 306.59070809 485.25 307.875 C485.66765625 308.36742187 486.0853125 308.85984375 486.515625 309.3671875 C487.74577036 310.7203474 489.0341429 312.02030822 490.3359375 313.3046875 C493.17280566 316.17483271 495.7835191 319.16040436 498.375 322.25 C498.85469238 322.81847656 499.33438477 323.38695312 499.82861328 323.97265625 C503.1229684 327.8970914 506.30257764 331.89246008 509.3671875 336 C511.02020886 338.10804442 511.02020886 338.10804442 513.26953125 340.171875 C516.87912054 343.91056262 519.78856295 348.03312614 522.8125 352.25 C527.0207565 358.05211932 531.2611799 363.59645393 536.1484375 368.84765625 C538.8947482 372.04009759 541.21529627 375.50809432 543.57324219 378.98925781 C546.14108236 382.77819966 548.80383366 386.4704781 551.5625 390.125 C552.31144531 391.11757813 553.06039063 392.11015625 553.83203125 393.1328125 C555.18310622 394.91963958 556.53459573 396.70615337 557.88671875 398.4921875 C562.99857533 405.37229636 567.64629169 412.52067873 572.25683594 419.74414062 C574.68548507 423.53063217 577.132251 427.23398047 579.890625 430.7890625 C584.09210094 436.2892892 587.55343527 442.2687419 591.125 448.1875 C592.51936786 450.49602437 593.91853432 452.80141179 595.3203125 455.10546875 C596.23707764 456.62370239 596.23707764 456.62370239 597.17236328 458.17260742 C598.94026528 461.01534167 598.94026528 461.01534167 601.02734375 463.51586914 C603.09136729 466.1150572 604.65003023 468.73066938 606.2421875 471.640625 C606.83386719 472.71183594 607.42554688 473.78304688 608.03515625 474.88671875 C608.64230469 475.99660156 609.24945312 477.10648437 609.875 478.25 C613.56211695 484.98196192 617.28743605 491.55656042 621.61962891 497.89453125 C623.92826598 501.41587652 625.83216051 505.13070372 627.75 508.875 C628.60646159 510.52750406 629.46324263 512.17984259 630.3203125 513.83203125 C630.75633789 514.67588379 631.19236328 515.51973633 631.64160156 516.38916016 C633.03340292 519.06420037 634.44680432 521.72675473 635.8671875 524.38671875 C636.32899414 525.25377441 636.79080078 526.12083008 637.26660156 527.01416016 C638.15908679 528.68845218 639.05419108 530.36135125 639.95214844 532.03271484 C640.35208008 532.78633301 640.75201172 533.53995117 641.1640625 534.31640625 C641.69700928 535.31329468 641.69700928 535.31329468 642.24072266 536.33032227 C643 538 643 538 643 540 C643.66 540 644.32 540 645 540 C645.48879639 541.03817871 645.97759277 542.07635742 646.48120117 543.14599609 C648.3157848 547.04174029 650.15193279 550.93674553 651.98852539 554.83154297 C652.77930901 556.50907988 653.56968279 558.18681005 654.35961914 559.86474609 C659.41708888 570.65690016 659.41708888 570.65690016 664.67578125 581.3515625 C670.58432733 593.06848858 675.62231929 605.1283109 680.625 617.25 C681.61253097 619.63831165 682.60084424 622.02629365 683.59042358 624.41375732 C684.19949343 625.88363674 684.80736555 627.35401336 685.41372681 628.82501221 C686.88113937 632.37066683 688.39395539 635.88640154 689.97753906 639.38183594 C692.14752744 644.23901941 694.0016556 649.18989275 695.8203125 654.1875 C696.16504608 655.13004639 696.50977966 656.07259277 696.86495972 657.04370117 C697.58757008 659.02299759 698.30850538 661.00290628 699.02783203 662.98339844 C700.12279296 665.99393187 701.22714432 669.00091007 702.33203125 672.0078125 C703.03703354 673.94249882 703.74147941 675.87738802 704.4453125 677.8125 C704.77242218 678.70026123 705.09953186 679.58802246 705.43655396 680.50268555 C707.40482883 685.95509917 708.85552675 691.31571101 710 697 C710.66 697 711.32 697 712 697 C718.21146226 717.0073303 724.39037595 737.01782094 730.14428711 757.16235352 C730.64714233 758.91890259 730.64714233 758.91890259 731.16015625 760.7109375 C731.44511963 761.71431152 731.73008301 762.71768555 732.02368164 763.75146484 C732.78691986 766.29101168 733.60454956 768.78562214 734.46386719 771.29272461 C736.04730587 776.00777496 737.26678338 780.76912628 738.41796875 785.60546875 C738.74563736 786.9647625 738.74563736 786.9647625 739.07992554 788.35151672 C739.78732605 791.29570172 740.48787477 794.24145844 741.1875 797.1875 C741.42822235 798.19490234 741.6689447 799.20230469 741.91696167 800.24023438 C745.72746808 816.20356317 749.27146002 832.21035072 752.5378418 848.29370117 C752.76777328 849.4183503 752.76777328 849.4183503 753.00234985 850.5657196 C753.40969282 852.56323471 753.81164212 854.56184766 754.21313477 856.56054688 C754.92103951 859.93768729 754.92103951 859.93768729 755.99121094 862.87158203 C757.31416352 866.97427186 757.99811344 871.08863563 758.69921875 875.3359375 C758.85499893 876.26216415 759.01077911 877.18839081 759.17127991 878.14268494 C759.68440883 881.21890541 760.18739243 884.29663678 760.6875 887.375 C760.86196655 888.44454926 761.03643311 889.51409851 761.21618652 890.61605835 C768.50418642 935.56604498 773.99340627 980.95625147 776.74072266 1026.42333984 C776.84428966 1028.98475989 776.84428966 1028.98475989 778 1031 C778.23149687 1033.65089595 778.40470859 1036.28106016 778.53515625 1038.9375 C778.57831467 1039.77536545 778.62147308 1040.6132309 778.66593933 1041.47648621 C778.80678587 1044.31732227 778.93652543 1047.15846633 779.0625 1050 C779.12878601 1051.48809677 779.12878601 1051.48809677 779.19641113 1053.0062561 C780.8452293 1091.43532336 780.89895553 1130.14132239 779.0625 1168.5625 C778.99742249 1169.9295961 778.99742249 1169.9295961 778.93103027 1171.3243103 C778.80756572 1173.82222785 778.67467805 1176.31933873 778.53515625 1178.81640625 C778.49654984 1179.54209808 778.45794342 1180.26778992 778.41816711 1181.01547241 C778.11939242 1185.88060758 778.11939242 1185.88060758 777 1187 C776.69722861 1189.4563826 776.4522671 1191.89436112 776.24609375 1194.359375 C776.14833397 1195.47146332 776.14833397 1195.47146332 776.04859924 1196.60601807 C775.91120357 1198.17954308 775.77600963 1199.75326163 775.64282227 1201.32714844 C775.43950143 1203.72638263 775.22913964 1206.12491742 775.01757812 1208.5234375 C774.8849967 1210.05204697 774.75282229 1211.5806918 774.62109375 1213.109375 C774.55860947 1213.82414001 774.49612518 1214.53890503 774.43174744 1215.27532959 C774.13078353 1218.86087175 773.93039623 1222.40161665 774 1226 C780.35543675 1222.13966064 785.6765518 1217.64648944 791.10546875 1212.58203125 C794.92768407 1209.17247076 799.00907214 1206.19527944 803.1328125 1203.1640625 C808.15632317 1199.37247543 813.11456555 1195.41571288 817 1190.4375 C818.92332014 1188.09345358 820.71173707 1186.62034505 823.125 1184.8125 C829.41059236 1180.06454015 835.16864205 1174.57673438 840.0625 1168.39453125 C841.8221295 1166.21982786 843.52939709 1164.57246233 845.6875 1162.8125 C851.75275244 1157.61856181 857.23446953 1151.72135486 861.75 1145.125 C864 1142 864 1142 866.3046875 1140.22265625 C869.52654056 1137.56579481 871.85888665 1134.62221499 874.375 1131.3125 C874.85686768 1130.68891602 875.33873535 1130.06533203 875.83520508 1129.42285156 C877.22830411 1127.61889215 878.61438444 1125.80970897 880 1124 C881.2276018 1122.41545308 882.45649872 1120.83190739 883.6875 1119.25 C884.2340625 1118.54230469 884.780625 1117.83460937 885.34375 1117.10546875 C886.46902363 1115.67499119 887.61584425 1114.26125701 888.78125 1112.86328125 C894.4105483 1106.06890277 899.21344081 1098.81390369 904.05078125 1091.44921875 C906.49439997 1087.73545276 909.03690642 1084.11416962 911.625 1080.5 C916.62137282 1073.34034257 920.70523863 1065.71953887 924.8671875 1058.05517578 C926.39095538 1055.29071931 928.00376229 1052.58320391 929.625 1049.875 C937.54896402 1036.30428593 943.42199239 1022.25372205 948.99658203 1007.58691406 C949.83291062 1005.4307735 950.7031736 1003.30190491 951.62109375 1001.1796875 C959.72236015 982.25477791 964.20017491 962.03466662 968.3125 941.9375 C968.47739929 941.1340918 968.64229858 940.33068359 968.81219482 939.50292969 C970.8168146 929.6653179 972.58094213 919.81510187 974.03327942 909.87986755 C974.89642998 904.10357002 974.89642998 904.10357002 976 903 C976.41258194 900.44870843 976.76727832 897.91121468 977.0859375 895.34765625 C977.23818535 894.15732536 977.23818535 894.15732536 977.39350891 892.94294739 C977.72663718 890.31684101 978.05177427 887.68984279 978.375 885.0625 C978.48671539 884.16009583 978.59843079 883.25769165 978.71353149 882.32794189 C986.45376874 819.50538704 987.84591547 756.38351583 986.17918396 693.145401 C985.96066848 684.4293606 985.94478296 675.71815772 986 667 C989.61257479 667.58757302 992.45880838 668.56002882 995.6953125 670.2578125 C996.57018311 670.71470459 997.44505371 671.17159668 998.34643555 671.64233398 C999.26336182 672.13161377 1000.18028809 672.62089355 1001.125 673.125 C1002.0735083 673.62781494 1003.0220166 674.13062988 1003.99926758 674.64868164 C1010.54294983 678.14858148 1016.8583075 681.83033394 1023 686 C1025.24005398 687.50812874 1027.482089 689.01323071 1029.72583008 690.51586914 C1031.27685828 691.55614866 1032.82508102 692.60062872 1034.36987305 693.65014648 C1038.78381552 696.6242808 1043.24835437 699.3136801 1047.96484375 701.78320312 C1050.18216175 703.10891245 1051.97582303 704.62887026 1053.875 706.375 C1056.81459704 709.07108013 1059.78945152 711.22252807 1063.1875 713.3125 C1071.63294102 718.51875514 1079.27040695 724.80114469 1087 731 C1087.69738281 731.55558594 1088.39476562 732.11117187 1089.11328125 732.68359375 C1091.74654727 734.78365848 1094.37351443 736.89146006 1097 739 C1097.60875977 739.48710449 1098.21751953 739.97420898 1098.84472656 740.47607422 C1106.57899838 746.67152033 1114.15674628 752.92879146 1121.421875 759.671875 C1124.0608728 762.05496999 1126.78473325 764.28089025 1129.5625 766.5 C1134.19863297 770.23521068 1138.32668827 774.28182029 1142.4765625 778.54296875 C1144.99426534 780.99441625 1147.61037919 783.14595618 1150.375 785.3125 C1155.18432797 789.15051909 1159.21197107 793.34199199 1163.29711914 797.91015625 C1167.09701183 802.122056 1171.11790426 805.99589106 1175.3125 809.8125 C1180.22904348 814.29567839 1184.75209217 818.86886381 1189 824 C1190.36735129 825.58994336 1191.74264136 827.17308718 1193.125 828.75 C1193.74632812 829.46671875 1194.36765625 830.1834375 1195.0078125 830.921875 C1196.98799043 833.08425827 1196.98799043 833.08425827 1199.48828125 834.95703125 C1202.10850835 837.08825796 1203.98732527 839.27855743 1206.0625 841.9375 C1209.5504946 846.29604233 1213.18081432 850.42994979 1217 854.5 C1222.26699023 860.13111759 1227.18234201 865.97792751 1232 872 C1233.47672662 873.81448857 1234.95592215 875.62697042 1236.4375 877.4375 C1237.18128906 878.34886719 1237.92507813 879.26023437 1238.69140625 880.19921875 C1240.24826341 882.08799469 1241.81895813 883.96543844 1243.40234375 885.83203125 C1248.15628042 891.44212713 1252.6972508 897.14608182 1257.0625 903.0625 C1257.53993652 903.70606445 1258.01737305 904.34962891 1258.50927734 905.01269531 C1260.43772537 907.65666017 1261.9585003 909.87550091 1263 913 C1263.99 913.33 1264.98 913.66 1266 914 C1267.4387207 915.73071289 1267.4387207 915.73071289 1268.92578125 917.97265625 C1269.47556641 918.79056641 1270.02535156 919.60847656 1270.59179688 920.45117188 C1271.15962891 921.31291016 1271.72746094 922.17464844 1272.3125 923.0625 C1273.43179247 924.7420872 1274.5528733 926.42048407 1275.67578125 928.09765625 C1276.22314941 928.91766113 1276.77051758 929.73766602 1277.33447266 930.58251953 C1279.42109696 933.61121403 1281.64557662 936.51666092 1283.92260742 939.40405273 C1285 941 1285 941 1285 943 C1285.99 943.33 1286.98 943.66 1288 944 C1289.62748369 946.34715996 1291.10874949 948.67362206 1292.5625 951.125 C1293.45382223 952.5897038 1294.34710187 954.05321799 1295.2421875 955.515625 C1295.69819336 956.26263672 1296.15419922 957.00964844 1296.62402344 957.77929688 C1298.7393957 961.19331855 1300.95242741 964.53850633 1303.1875 967.875 C1303.60717041 968.5030957 1304.02684082 969.13119141 1304.45922852 969.77832031 C1306.74866066 973.18790186 1309.09729905 976.54385489 1311.5 979.875 C1315.03645212 984.86909983 1318.05045014 990.13449927 1321.10644531 995.42944336 C1323.80834266 1000.076808 1326.6808303 1004.5269012 1329.75 1008.9375 C1336.5804186 1018.83370332 1341.95922443 1029.64976734 1347.53295898 1040.28369141 C1348.52968078 1042.12917762 1349.58423365 1043.94434063 1350.68774414 1045.72802734 C1352 1048 1352 1048 1352 1050 C1352.66 1050 1353.32 1050 1354 1050 C1354.59425781 1051.16345947 1355.18851563 1052.32691895 1355.80078125 1053.52563477 C1358.04342195 1057.91547917 1360.28782547 1062.3044204 1362.53271484 1066.69311523 C1363.49704987 1068.57894378 1364.46093076 1070.46500464 1365.42431641 1072.35131836 C1366.82329687 1075.09032122 1368.22366851 1077.82860551 1369.625 1080.56640625 C1370.08656494 1081.46838242 1370.54812988 1082.37035858 1371.02368164 1083.29966736 C1373.70679999 1088.52751333 1376.4502131 1093.71674409 1379.25 1098.8828125 C1382.86887786 1105.58954713 1386.07403354 1112.44693655 1389.15771484 1119.41186523 C1390.02126542 1121.36048588 1390.89489356 1123.30438072 1391.76953125 1125.24804688 C1396 1134.72253418 1396 1134.72253418 1396 1137 C1396.66 1137 1397.32 1137 1398 1137 C1398.20996109 1137.50317749 1398.41992218 1138.00635498 1398.63624573 1138.52478027 C1400.85782795 1143.84809746 1403.08134915 1149.17060192 1405.3059082 1154.49267578 C1406.13158291 1156.46871252 1406.95679248 1158.44494368 1407.78149414 1160.42138672 C1408.9793525 1163.29187768 1410.17869532 1166.16174194 1411.37890625 1169.03125 C1411.97430962 1170.45575722 1411.97430962 1170.45575722 1412.58174133 1171.90904236 C1414.58911304 1176.69554912 1416.63479311 1181.45922349 1418.75796509 1186.19541931 C1423.25912332 1196.25199645 1426.97176736 1206.56990486 1430.6875 1216.9375 C1431.66685841 1219.66278714 1432.64786943 1222.38744244 1433.63276672 1225.11073303 C1434.23835116 1226.78581459 1434.84081278 1228.46203018 1435.43937683 1230.13963318 C1437.12918272 1234.82092887 1439.02414226 1239.35090633 1441.07566833 1243.88441467 C1442.39026486 1246.89322766 1443.44493212 1249.96344713 1444.48046875 1253.078125 C1444.69485596 1253.71988174 1444.90924316 1254.36163849 1445.13012695 1255.02284241 C1445.82103017 1257.09690635 1446.5047679 1259.17323326 1447.1875 1261.25 C1447.66772368 1262.70206736 1448.1479483 1264.15413442 1448.62817383 1265.60620117 C1451.67802932 1274.85542489 1454.67508926 1284.12197378 1457.59146118 1293.41418457 C1458.17748648 1295.28060809 1458.7677838 1297.14568854 1459.3581543 1299.01074219 C1459.70789307 1300.13770508 1460.05763184 1301.26466797 1460.41796875 1302.42578125 C1460.72500732 1303.40973877 1461.0320459 1304.39369629 1461.34838867 1305.4074707 C1462 1308 1462 1308 1462 1312 C1462.66 1312 1463.32 1312 1464 1312 C1466.00362459 1319.35318265 1468.00291867 1326.70753767 1470 1334.0625 C1470.4433519 1335.69477036 1470.4433519 1335.69477036 1470.8956604 1337.36001587 C1474.92400717 1352.2019213 1478.88900346 1367.05600593 1482.63867188 1381.97094727 C1482.92677734 1383.10846436 1483.21488281 1384.24598145 1483.51171875 1385.41796875 C1483.75365967 1386.38500732 1483.99560059 1387.3520459 1484.24487305 1388.34838867 C1484.94051144 1390.9831085 1484.94051144 1390.9831085 1485.97209167 1393.35061646 C1486.96823546 1395.91812846 1487.62241108 1398.35255789 1488.20166016 1401.04174805 C1488.52349022 1402.52179321 1488.52349022 1402.52179321 1488.8518219 1404.03173828 C1489.192006 1405.63057861 1489.192006 1405.63057861 1489.5390625 1407.26171875 C1489.78111923 1408.38473389 1490.02317596 1409.50774902 1490.27256775 1410.66479492 C1491.06196901 1414.33792602 1491.84393441 1418.01258801 1492.625 1421.6875 C1493.02584305 1423.56255722 1493.02584305 1423.56255722 1493.43478394 1425.47549438 C1497.3625137 1443.86074072 1501.0900435 1462.2741911 1504.50048828 1480.76245117 C1504.79308397 1482.34557925 1505.08588306 1483.92866975 1505.37890625 1485.51171875 C1505.51758118 1486.26252716 1505.6562561 1487.01333557 1505.7991333 1487.78689575 C1506.5908496 1492.01278628 1507.49344598 1496.1886776 1508.51171875 1500.3671875 C1510.62623514 1509.29615329 1511.89352391 1518.36896691 1513.25 1527.4375 C1513.39895721 1528.42674469 1513.54791443 1529.41598938 1513.7013855 1530.43521118 C1519.54859516 1569.37609173 1524.34773292 1608.3995125 1528.13500977 1647.59057617 C1528.31310432 1649.41817726 1528.31310432 1649.41817726 1528.49479675 1651.28269958 C1528.71719167 1653.57364474 1528.93596555 1655.86494519 1529.15058899 1658.15663147 C1529.29720222 1659.66996315 1529.29720222 1659.66996315 1529.44677734 1661.21386719 C1529.57166031 1662.53508575 1529.57166031 1662.53508575 1529.69906616 1663.88299561 C1529.89307074 1666.05021187 1529.89307074 1666.05021187 1531 1668 C1531.19420082 1669.59816125 1531.33494391 1671.20296419 1531.44897461 1672.80883789 C1531.52259216 1673.81904999 1531.59620972 1674.82926208 1531.67205811 1675.87008667 C1531.74805237 1676.97643463 1531.82404663 1678.08278259 1531.90234375 1679.22265625 C1531.98438049 1680.3741214 1532.06641724 1681.52558655 1532.15093994 1682.71194458 C1532.41834028 1686.49511855 1532.67849939 1690.27874223 1532.9375 1694.0625 C1533.02681793 1695.35096832 1533.11613586 1696.63943665 1533.2081604 1697.96694946 C1534.34234451 1714.36667313 1535.39687991 1730.76738736 1536.1875 1747.1875 C1536.22406708 1747.93919464 1536.26063416 1748.69088928 1536.29830933 1749.46536255 C1536.51940823 1754.08355387 1536.71376136 1758.70236431 1536.89312744 1763.32235718 C1536.96716608 1765.17736112 1537.04554459 1767.03219501 1537.12738037 1768.88687134 C1538.190919 1793.15443284 1538.22108599 1817.42712731 1538.24023438 1841.71411133 C1538.24459102 1846.4124337 1538.25840418 1851.11056955 1538.28125 1855.80883789 C1538.49103846 1899.91918623 1536.16831549 1943.54534007 1531.8671875 1987.4375 C1531.79486467 1988.19168622 1531.72254185 1988.94587244 1531.64802742 1989.72291279 C1531.11621837 1994.88378163 1531.11621837 1994.88378163 1530 1996 C1529.74388068 1997.34174098 1529.54509093 1998.69450796 1529.37084961 2000.04931641 C1529.25628418 2000.92038528 1529.14171875 2001.79145416 1529.02368164 2002.68891907 C1528.90114014 2003.6500914 1528.77859863 2004.61126373 1528.65234375 2005.6015625 C1528.37861637 2007.6795017 1528.10442498 2009.75737982 1527.82983398 2011.83520508 C1527.61241043 2013.4936998 1527.61241043 2013.4936998 1527.39059448 2015.18569946 C1523.15582426 2047.33053473 1517.98735386 2079.30659992 1511.75 2111.125 C1511.41730103 2112.83780151 1511.41730103 2112.83780151 1511.07788086 2114.58520508 C1510.01031171 2119.84994598 1508.75057892 2124.96000609 1507.1159668 2130.07861328 C1505.07343074 2136.6405809 1503.3536669 2143.24739272 1501.72265625 2149.921875 C1501.42942978 2151.10614075 1501.13620331 2152.29040649 1500.83409119 2153.51055908 C1499.5969086 2158.50765236 1498.36820416 2163.50681926 1497.13891602 2168.50585938 C1488.5472946 2203.39318781 1488.5472946 2203.39318781 1484.57202148 2213.78710938 C1482.71014515 2218.67413501 1481.16260155 2223.65091205 1479.6015625 2228.640625 C1478.95071378 2230.70188385 1478.29966583 2232.7630798 1477.6484375 2234.82421875 C1476.6370027 2238.03329674 1475.62723396 2241.24287111 1474.62109375 2244.45361328 C1473.64033451 2247.58002373 1472.6526442 2250.70418059 1471.6640625 2253.828125 C1471.22472885 2255.23967865 1471.22472885 2255.23967865 1470.77651978 2256.67974854 C1468.89785272 2262.59727924 1466.68744069 2268.28918822 1464.2571106 2274.0012207 C1462.23607566 2278.82230626 1460.42551337 2283.71891188 1458.6015625 2288.6171875 C1457.78417951 2290.793091 1456.96646079 2292.96886839 1456.1484375 2295.14453125 C1454.8858516 2298.50865171 1453.6255376 2301.87355697 1452.37109375 2305.24072266 C1444.11488643 2327.37913438 1444.11488643 2327.37913438 1438.63964844 2337.80664062 C1435.54704752 2343.82975259 1432.96857675 2350.08773772 1430.3125 2356.3125 C1429.47628672 2358.26139881 1428.63890628 2360.20979341 1427.80148315 2362.15817261 C1427.01215374 2363.99522153 1426.22407488 2365.83280762 1425.43603516 2367.67041016 C1423.65692484 2371.79545376 1421.83734947 2375.90060957 1420 2380 C1419.34 2380 1418.68 2380 1418 2380 C1417.82794037 2380.55646713 1417.65588074 2381.11293427 1417.47860718 2381.68626404 C1415.76524704 2387.04653859 1413.70585721 2392.02027922 1411.1640625 2397.03515625 C1410.80283295 2397.75811386 1410.44160339 2398.48107147 1410.06942749 2399.22593689 C1409.31088772 2400.74069527 1408.54943157 2402.25399653 1407.78515625 2403.76586914 C1406.62779369 2406.05696964 1405.48120778 2408.35322574 1404.3359375 2410.65039062 C1403.59177882 2412.13313035 1402.84700741 2413.61556276 1402.1015625 2415.09765625 C1401.76492584 2415.77184097 1401.42828918 2416.4460257 1401.08145142 2417.14064026 C1398.99071808 2421.26176973 1396.68108077 2425.16479286 1394.20144653 2429.06303406 C1392.40297681 2431.96251773 1390.83331795 2434.96692912 1389.2578125 2437.9921875 C1388.57703154 2439.28787006 1387.89603521 2440.58343947 1387.21484375 2441.87890625 C1386.17025396 2443.87374525 1385.1277927 2445.8696266 1384.08935547 2447.86767578 C1380.36590527 2455.02001616 1376.55623919 2461.8862423 1371.79492188 2468.41748047 C1369.66475027 2471.48235469 1367.76352382 2474.65971477 1365.88671875 2477.8828125 C1365.5417334 2478.47448212 1365.19674805 2479.06615173 1364.84130859 2479.67575073 C1363.42210411 2482.11817482 1362.00962164 2484.56438515 1360.60229492 2487.01367188 C1359.55757036 2488.82795749 1358.50399896 2490.63686019 1357.44921875 2492.4453125 C1356.83393311 2493.51281738 1356.21864746 2494.58032227 1355.5847168 2495.68017578 C1355.06176025 2496.44571777 1354.53880371 2497.21125977 1354 2498 C1353.34 2498 1352.68 2498 1352 2498 C1351.7328418 2498.72147217 1351.46568359 2499.44294434 1351.19042969 2500.1862793 C1349.99493771 2503.01196533 1348.59988163 2505.43370894 1346.953125 2508.01953125 C1346.0559375 2509.43008789 1346.0559375 2509.43008789 1345.140625 2510.86914062 C1344.51671875 2511.84044922 1343.8928125 2512.81175781 1343.25 2513.8125 C1342.6415625 2514.77220703 1342.033125 2515.73191406 1341.40625 2516.72070312 C1337.81952968 2522.33453354 1334.04969733 2527.71405652 1330 2533 C1328.41860765 2535.15372675 1326.86640699 2537.32611313 1325.3125 2539.5 C1324.89460205 2540.08386475 1324.4767041 2540.66772949 1324.04614258 2541.26928711 C1321.68587611 2544.58152045 1319.36646167 2547.91747601 1317.0859375 2551.28515625 C1316.3602356 2552.35443359 1316.3602356 2552.35443359 1315.61987305 2553.4453125 C1314.68925848 2554.82085187 1313.76335897 2556.19959725 1312.84301758 2557.58203125 C1310.20083827 2561.48799097 1307.36159888 2564.67026462 1304 2568 C1302.36767666 2570.18904289 1300.79345189 2572.37644935 1299.25 2574.625 C1293.98564762 2582.13414058 1288.2702242 2589.18084809 1282.30859375 2596.1484375 C1281.37209521 2597.24453489 1280.43590001 2598.34089152 1279.5 2599.4375 C1279.03779053 2599.97834229 1278.57558105 2600.51918457 1278.09936523 2601.07641602 C1274.19963322 2605.67833294 1270.603775 2610.45333042 1267.0703125 2615.34375 C1264.89197888 2618.13859314 1262.53292342 2620.5239536 1260 2623 C1258.01864786 2625.08299516 1256.07141199 2627.19687544 1254.125 2629.3125 C1253.59471191 2629.88718018 1253.06442383 2630.46186035 1252.51806641 2631.05395508 C1249.7542182 2634.05834009 1247.03201539 2637.08764871 1244.375 2640.1875 C1241.76293852 2643.21799852 1238.98446391 2646.01443562 1236.125 2648.8125 C1232.65262685 2652.23242039 1229.52191199 2655.73972794 1226.5 2659.5625 C1222.84471997 2664.1380354 1218.90568294 2667.96865875 1214.4921875 2671.8046875 C1209.68393272 2676.04017212 1204.95819837 2680.48176462 1201.01953125 2685.546875 C1199.02158071 2687.9737859 1197.07861135 2689.63307083 1194.5625 2691.5 C1190.2258133 2694.87368715 1186.38970797 2698.51466841 1182.5625 2702.4375 C1177.83596662 2707.27548211 1172.93730041 2711.61207642 1167.625 2715.8125 C1164.84486924 2718.12927564 1162.33981305 2720.59854517 1159.8125 2723.1875 C1156.48259039 2726.59036537 1153.1722357 2729.50473158 1149.3046875 2732.26171875 C1146.20542069 2734.59930134 1143.30425687 2737.14202706 1140.375 2739.6875 C1135.41409038 2743.97965955 1130.39104519 2748.17481393 1125.25 2752.25 C1124.65364746 2752.72783936 1124.05729492 2753.20567871 1123.44287109 2753.69799805 C1119.23965571 2757 1119.23965571 2757 1117 2757 C1117.00151888 2757.6373416 1117.00303776 2758.27468321 1117.00460267 2758.93133819 C1117.09414361 2796.71772743 1117.1627607 2834.50410096 1117.20426132 2872.2905746 C1117.20926406 2876.82913325 1117.21444135 2881.36769168 1117.21972656 2885.90625 C1117.2207758 2886.80978317 1117.22182505 2887.71331634 1117.22290608 2888.64422931 C1117.24030432 2903.26802321 1117.27183882 2917.89175411 1117.30861118 2932.51551066 C1117.34603676 2947.52437972 1117.36823927 2962.53321583 1117.37635398 2977.54212964 C1117.3818384 2986.80108202 1117.39915126 2996.05985635 1117.43166587 3005.31875391 C1117.45283372 3011.67066665 1117.45919491 3018.02248753 1117.45400551 3024.37443297 C1117.45144725 3028.03747589 1117.45532804 3031.70020797 1117.4768219 3035.36319542 C1117.49998816 3039.34037857 1117.49192861 3043.31715994 1117.48101807 3047.29440308 C1117.49849512 3049.01914645 1117.49849512 3049.01914645 1117.51632524 3050.77873313 C1117.4446655 3060.45471503 1114.92838987 3069.88012196 1108 3077 C1105.12593108 3079.23023628 1102.14862743 3081.18066787 1099 3083 C1098.45084018 3083.35036851 1097.90168036 3083.70073702 1097.33587933 3084.06172276 C1094.06261466 3085.37652944 1090.91571526 3085.28590807 1087.44233704 3085.27415466 C1086.29517386 3085.28200968 1086.29517386 3085.28200968 1085.12483567 3085.29002339 C1082.56014038 3085.30503452 1079.99564442 3085.30572878 1077.4309082 3085.30639648 C1075.59272423 3085.31401737 1073.75454345 3085.32244474 1071.91636658 3085.33161926 C1066.92028458 3085.35358164 1061.92426379 3085.36236583 1056.92813897 3085.36744571 C1053.80565874 3085.37108806 1050.68319456 3085.37732758 1047.56072044 3085.3844471 C1036.6639269 3085.4089503 1025.76718101 3085.4219948 1014.87036133 3085.42553711 C1004.71949986 3085.42917022 994.56894115 3085.45904731 984.41817218 3085.50094169 C975.69954116 3085.53566135 966.98101036 3085.55108586 958.26231068 3085.55178314 C953.05679488 3085.55257556 947.85158723 3085.56129778 942.64614296 3085.58978081 C937.74667604 3085.61598911 932.84777211 3085.61815114 927.94826698 3085.60212517 C926.15403006 3085.60031272 924.35976057 3085.60698293 922.56559372 3085.62294388 C911.50833934 3085.71527952 903.73354881 3085.09648783 895.1875 3077.5 C894.465625 3076.675 893.74375 3075.85 893 3075 C892.319375 3074.278125 891.63875 3073.55625 890.9375 3072.8125 C885.82180118 3065.38648559 884.41031443 3058.10378966 884.51898193 3049.2305603 C884.51556423 3048.19296086 884.51214653 3047.15536142 884.50862527 3046.08631957 C884.50207456 3042.63457002 884.52397662 3039.18361063 884.54589844 3035.73193359 C884.54702752 3033.24773171 884.54639187 3030.7635285 884.54412842 3028.27932739 C884.54321967 3022.94389194 884.5545115 3017.60869905 884.57707977 3012.27332687 C884.60968753 3004.5594652 884.62001571 2996.84569797 884.62503174 2989.13177486 C884.63377069 2976.61432602 884.6603481 2964.09698188 884.69824219 2951.57958984 C884.73499863 2939.42529818 884.76324666 2927.27103518 884.78027344 2915.11669922 C884.78134543 2914.35896843 884.78241742 2913.60123764 884.78352189 2912.82054532 C884.79184034 2906.89395986 884.79966777 2900.96737378 884.80734015 2895.04078746 C884.84502592 2866.02709553 884.92551049 2837.01366589 885 2808 C822.3 2808 759.6 2808 695 2808 C695.04640625 2826.07523438 695.0928125 2844.15046875 695.140625 2862.7734375 C695.16105879 2874.21224111 695.18050417 2885.65103352 695.1953125 2897.08984375 C695.20314365 2903.09879601 695.21122548 2909.10774786 695.21972656 2915.11669922 C695.22078156 2915.86979335 695.22183655 2916.62288748 695.22292352 2917.39880264 C695.24030706 2929.54705369 695.27183474 2941.69522879 695.30861118 2953.84343486 C695.34605551 2966.31655528 695.36824322 2978.78963602 695.37635398 2991.26281035 C695.38183453 2998.95559595 695.39912617 3006.64816692 695.43166587 3014.34088643 C695.4553668 3020.24586425 695.45781103 3026.15073272 695.45243073 3032.05575943 C695.45352966 3034.47363352 695.46146614 3036.89151586 695.4768219 3039.30934143 C695.49679395 3042.61671034 695.49191212 3045.92316927 695.48101807 3049.2305603 C695.49849512 3050.65764614 695.49849512 3050.65764614 695.51632524 3052.11356199 C695.43569622 3061.20208747 692.45690888 3070.36463384 686 3077 C683.12593108 3079.23023628 680.14862743 3081.18066787 677 3083 C676.45084018 3083.35036851 675.90168036 3083.70073702 675.33587933 3084.06172276 C672.06261466 3085.37652944 668.91571526 3085.28590807 665.44233704 3085.27415466 C664.29517386 3085.28200968 664.29517386 3085.28200968 663.12483567 3085.29002339 C660.56014038 3085.30503452 657.99564442 3085.30572878 655.4309082 3085.30639648 C653.59272423 3085.31401737 651.75454345 3085.32244474 649.91636658 3085.33161926 C644.92028458 3085.35358164 639.92426379 3085.36236583 634.92813897 3085.36744571 C631.80565874 3085.37108806 628.68319456 3085.37732758 625.56072044 3085.3844471 C614.6639269 3085.4089503 603.76718101 3085.4219948 592.87036133 3085.42553711 C582.71949986 3085.42917022 572.56894115 3085.45904731 562.41817218 3085.50094169 C553.69954116 3085.53566135 544.98101036 3085.55108586 536.26231068 3085.55178314 C531.05679488 3085.55257556 525.85158723 3085.56129778 520.64614296 3085.58978081 C515.74667604 3085.61598911 510.84777211 3085.61815114 505.94826698 3085.60212517 C504.15403006 3085.60031272 502.35976057 3085.60698293 500.56559372 3085.62294388 C489.50833934 3085.71527952 481.73354881 3085.09648783 473.1875 3077.5 C472.465625 3076.675 471.74375 3075.85 471 3075 C470.319375 3074.278125 469.63875 3073.55625 468.9375 3072.8125 C463.82180118 3065.38648559 462.41031443 3058.10378966 462.51898193 3049.2305603 C462.51556423 3048.19296086 462.51214653 3047.15536142 462.50862527 3046.08631957 C462.50207456 3042.63457002 462.52397662 3039.18361063 462.54589844 3035.73193359 C462.54702752 3033.24773171 462.54639187 3030.7635285 462.54412842 3028.27932739 C462.54321967 3022.94389194 462.5545115 3017.60869905 462.57707977 3012.27332687 C462.60968753 3004.5594652 462.62001571 2996.84569797 462.62503174 2989.13177486 C462.63377069 2976.61432602 462.6603481 2964.09698188 462.69824219 2951.57958984 C462.73499863 2939.42529818 462.76324666 2927.27103518 462.78027344 2915.11669922 C462.78134543 2914.35896843 462.78241742 2913.60123764 462.78352189 2912.82054532 C462.79184034 2906.89395986 462.79966777 2900.96737378 462.80734015 2895.04078746 C462.84502592 2866.02709553 462.92551049 2837.01366589 463 2808 C400.63 2808 338.26 2808 274 2808 C274.04640625 2826.07523438 274.0928125 2844.15046875 274.140625 2862.7734375 C274.16105879 2874.21224111 274.18050417 2885.65103352 274.1953125 2897.08984375 C274.20314365 2903.09879601 274.21122548 2909.10774786 274.21972656 2915.11669922 C274.22078156 2915.86979335 274.22183655 2916.62288748 274.22292352 2917.39880264 C274.24030706 2929.54705369 274.27183474 2941.69522879 274.30861118 2953.84343486 C274.34605551 2966.31655528 274.36824322 2978.78963602 274.37635398 2991.26281035 C274.38183453 2998.95559595 274.39912617 3006.64816692 274.43166587 3014.34088643 C274.4553668 3020.24586425 274.45781103 3026.15073272 274.45243073 3032.05575943 C274.45352966 3034.47363352 274.46146614 3036.89151586 274.4768219 3039.30934143 C274.49679395 3042.61671034 274.49191212 3045.92316927 274.48101807 3049.2305603 C274.49849512 3050.65764614 274.49849512 3050.65764614 274.51632524 3052.11356199 C274.43569622 3061.20208747 271.45690888 3070.36463384 265 3077 C262.12593108 3079.23023628 259.14862743 3081.18066787 256 3083 C255.45084018 3083.35036851 254.90168036 3083.70073702 254.33587933 3084.06172276 C251.06261466 3085.37652944 247.91571526 3085.28590807 244.44233704 3085.27415466 C243.29517386 3085.28200968 243.29517386 3085.28200968 242.12483567 3085.29002339 C239.56014038 3085.30503452 236.99564442 3085.30572878 234.4309082 3085.30639648 C232.59272423 3085.31401737 230.75454345 3085.32244474 228.91636658 3085.33161926 C223.92028458 3085.35358164 218.92426379 3085.36236583 213.92813897 3085.36744571 C210.80565874 3085.37108806 207.68319456 3085.37732758 204.56072044 3085.3844471 C193.6639269 3085.4089503 182.76718101 3085.4219948 171.87036133 3085.42553711 C161.71949986 3085.42917022 151.56894115 3085.45904731 141.41817218 3085.50094169 C132.69954116 3085.53566135 123.98101036 3085.55108586 115.26231068 3085.55178314 C110.05679488 3085.55257556 104.85158723 3085.56129778 99.64614296 3085.58978081 C94.74667604 3085.61598911 89.84777211 3085.61815114 84.94826698 3085.60212517 C83.15403006 3085.60031272 81.35976057 3085.60698293 79.56559372 3085.62294388 C68.50833934 3085.71527952 60.73354881 3085.09648783 52.1875 3077.5 C51.465625 3076.675 50.74375 3075.85 50 3075 C49.319375 3074.278125 48.63875 3073.55625 47.9375 3072.8125 C42.82180118 3065.38648559 41.41031443 3058.10378966 41.51898193 3049.2305603 C41.51556423 3048.19296086 41.51214653 3047.15536142 41.50862527 3046.08631957 C41.50207456 3042.63457002 41.52397662 3039.18361063 41.54589844 3035.73193359 C41.54702752 3033.24773171 41.54639187 3030.7635285 41.54412842 3028.27932739 C41.54321967 3022.94389194 41.5545115 3017.60869905 41.57707977 3012.27332687 C41.60968753 3004.5594652 41.62001571 2996.84569797 41.62503174 2989.13177486 C41.63377069 2976.61432602 41.6603481 2964.09698188 41.69824219 2951.57958984 C41.73499863 2939.42529818 41.76324666 2927.27103518 41.78027344 2915.11669922 C41.78134543 2914.35896843 41.78241742 2913.60123764 41.78352189 2912.82054532 C41.79184034 2906.89395986 41.79966777 2900.96737378 41.80734015 2895.04078746 C41.84502592 2866.02709553 41.92551049 2837.01366589 42 2808 C-20.37 2808 -82.74 2808 -147 2808 C-146.93039062 2825.97984375 -146.86078125 2843.9596875 -146.7890625 2862.484375 C-146.75840879 2873.86849305 -146.72924036 2885.25258573 -146.70703125 2896.63671875 C-146.69528483 2902.61767678 -146.68316218 2908.59863387 -146.67041016 2914.57958984 C-146.66803642 2915.70394139 -146.66803642 2915.70394139 -146.66561472 2916.8510071 C-146.6395516 2928.93653735 -146.59226699 2941.0218955 -146.53708322 2953.10732386 C-146.48088244 2965.51942727 -146.447628 2977.93144089 -146.43546903 2990.34366632 C-146.42725516 2997.99664225 -146.40135687 3005.64913189 -146.3525012 3013.30195805 C-146.31689782 3019.1799992 -146.31329194 3025.05779366 -146.32135391 3030.93594551 C-146.31970795 3033.34009601 -146.30783571 3035.74426551 -146.28476715 3038.14830589 C-146.1439145 3053.58883585 -146.71663821 3063.82173191 -157 3076 C-159.40234375 3077.73046875 -159.40234375 3077.73046875 -161.9375 3079.1875 C-162.77152344 3079.67605469 -163.60554687 3080.16460938 -164.46484375 3080.66796875 C-169.5717905 3083.35127975 -173.66815885 3084.29545182 -179.4299469 3084.28088379 C-180.5384647 3084.28979716 -180.5384647 3084.28979716 -181.66937679 3084.29889059 C-184.14104023 3084.31620733 -186.61250927 3084.31927615 -189.08422852 3084.32226562 C-190.85858064 3084.33152629 -192.63292879 3084.3415762 -194.40727234 3084.35235596 C-199.22580864 3084.37857213 -204.04428925 3084.39148833 -208.86288571 3084.40037727 C-211.87668111 3084.40624567 -214.89046141 3084.41445673 -217.90424919 3084.42338562 C-227.34317629 3084.45073106 -236.78206872 3084.47006489 -246.22103268 3084.4777894 C-257.09876906 3084.48674126 -267.9760016 3084.52179476 -278.85358483 3084.57979059 C-287.27249754 3084.62311103 -295.69126898 3084.64320267 -304.1102919 3084.64587164 C-309.13319435 3084.64796213 -314.15562306 3084.65965546 -319.17840767 3084.69551086 C-323.90889275 3084.72862235 -328.63855189 3084.73271234 -333.36911201 3084.71523285 C-335.09759748 3084.71369985 -336.8261287 3084.72227506 -338.55450058 3084.74214935 C-350.48039935 3084.87115082 -359.54546757 3083.51324645 -369 3075.4375 C-369.66 3074.633125 -370.32 3073.82875 -371 3073 C-371.680625 3072.2575 -372.36125 3071.515 -373.0625 3070.75 C-378.41452906 3063.15357165 -379.57699674 3056.48836111 -379.44496155 3047.3104248 C-379.44470158 3046.16160686 -379.4444416 3045.01278892 -379.44417375 3043.82915831 C-379.43873241 3039.99451904 -379.40488681 3036.16066025 -379.37133789 3032.32617188 C-379.35976294 3029.57101616 -379.35444209 3026.81585821 -379.34912109 3024.0606842 C-379.33495758 3018.13485073 -379.30742181 3012.20920419 -379.27189827 3006.28346252 C-379.21680043 2996.9128943 -379.20215326 2987.54246251 -379.19371033 2978.17175293 C-379.19030905 2974.96186038 -379.18662202 2971.75196822 -379.18282986 2968.54207611 C-379.18188954 2967.7400344 -379.18094923 2966.93799269 -379.17998042 2966.11164668 C-379.16868224 2956.99417326 -379.14847936 2947.87672623 -379.12475586 2938.75927734 C-379.12152065 2937.50990868 -379.12152065 2937.50990868 -379.11822008 2936.23530024 C-379.08229771 2922.73002579 -379.01920331 2909.2249727 -378.94966669 2895.71983594 C-378.87923737 2881.83951853 -378.85106929 2867.95951732 -378.85867494 2854.07902384 C-378.86176696 2845.52447184 -378.83009113 2836.97146354 -378.75342827 2828.41724789 C-378.7037729 2822.55535138 -378.69411723 2816.69424604 -378.71570743 2810.83218229 C-378.72689026 2807.45132468 -378.71421819 2804.07504149 -378.66519737 2800.69421577 C-377.67993782 2786.8834915 -377.67993782 2786.8834915 -382.35873222 2774.50352478 C-385.15270069 2772.17827534 -387.7595007 2770.61661826 -391 2769 C-392.69522072 2767.70316452 -394.36656116 2766.37383882 -396 2765 C-396.83917969 2764.32582031 -397.67835938 2763.65164062 -398.54296875 2762.95703125 C-404.06415968 2758.47972871 -409.43265971 2753.88448733 -414.6875 2749.09765625 C-416.66384372 2747.30492554 -418.6645673 2745.55204773 -420.6875 2743.8125 C-424.77079513 2740.25635158 -428.72787085 2736.56744126 -432.6875 2732.875 C-433.32969482 2732.2766333 -433.97188965 2731.6782666 -434.63354492 2731.06176758 C-438.98524802 2726.99063704 -443.21145521 2722.81480402 -447.39453125 2718.5703125 C-448.19246094 2717.76335938 -448.99039062 2716.95640625 -449.8125 2716.125 C-450.60269531 2715.32320312 -451.39289063 2714.52140625 -452.20703125 2713.6953125 C-454.37841781 2711.59984855 -456.57076976 2709.63226833 -458.859375 2707.671875 C-463.00931946 2704.07158237 -466.72946172 2700.17265755 -470.4375 2696.125 C-474.50621046 2691.72586398 -478.57650627 2687.36512221 -482.875 2683.1875 C-486.82670729 2679.29499432 -490.27515527 2675.0903551 -493.7421875 2670.765625 C-497.33420065 2666.36571962 -501.17708865 2662.19881914 -505 2658 C-511.20462936 2651.15351243 -516.93136128 2643.92871865 -522.65771484 2636.68212891 C-523.87195981 2635.16045779 -525.11598234 2633.66266579 -526.36328125 2632.16796875 C-528 2630 -528 2630 -528 2628 C-528.60360352 2627.74347656 -529.20720703 2627.48695313 -529.82910156 2627.22265625 C-532.2373172 2625.86634227 -533.19931661 2624.71081011 -534.734375 2622.4375 C-535.22204346 2621.72795166 -535.70971191 2621.01840332 -536.2121582 2620.28735352 C-536.719646 2619.53252686 -537.22713379 2618.7777002 -537.75 2618 C-538.8191637 2616.44492667 -539.89077345 2614.8915322 -540.96484375 2613.33984375 C-541.4841748 2612.58944824 -542.00350586 2611.83905273 -542.53857422 2611.06591797 C-544.90196205 2607.72495776 -547.47976677 2604.57542066 -550.07714844 2601.41601562 C-556.69997658 2593.09459519 -562.42185807 2584.00369761 -568.39453125 2575.2109375 C-571.41838973 2570.76592814 -574.46203237 2566.3407251 -577.57421875 2561.95703125 C-581.05317815 2557.00066527 -584.21539493 2551.88889613 -587.3125 2546.6875 C-587.83650391 2545.82060547 -588.36050781 2544.95371094 -588.90039062 2544.06054688 C-589.40376953 2543.21943359 -589.90714844 2542.37832031 -590.42578125 2541.51171875 C-590.87348877 2540.76365967 -591.32119629 2540.01560059 -591.7824707 2539.24487305 C-593.06066705 2536.88814246 -594.05204052 2534.50573521 -595 2532 C-595.66 2532 -596.32 2532 -597 2532 C-600.07617188 2526.46289062 -603.15234375 2520.92578125 -606.22851562 2515.38867188 C-606.72679367 2514.49201309 -606.72679367 2514.49201309 -607.23513794 2513.57723999 C-607.89639686 2512.38664953 -608.55710643 2511.19575379 -609.21725464 2510.00454712 C-610.66692237 2507.3900047 -612.12469532 2504.78101453 -613.60400391 2502.18310547 C-614.06081543 2501.3788916 -614.51762695 2500.57467773 -614.98828125 2499.74609375 C-615.57863159 2498.71826782 -615.57863159 2498.71826782 -616.1809082 2497.66967773 C-617 2496 -617 2496 -617 2494 C-617.66 2494 -618.32 2494 -619 2494 C-621.84528363 2488.45447432 -624.68946719 2482.90838623 -627.53271484 2477.36181641 C-628.49629371 2475.48243678 -629.46015205 2473.60320041 -630.42431641 2471.72412109 C-633.62448533 2465.48695523 -636.81712606 2459.24601017 -640 2453 C-640.56696594 2451.88866699 -640.56696594 2451.88866699 -641.14538574 2450.75488281 C-646.13299009 2440.95794478 -650.77997774 2431.04274869 -655.25 2421 C-656.15234714 2418.97798396 -657.05575607 2416.9564579 -657.96112061 2414.93579102 C-658.77220442 2413.12485583 -659.58006958 2411.31248004 -660.38769531 2409.5 C-661.52418972 2407.03289162 -662.69465756 2404.63175617 -663.93652344 2402.22045898 C-666.34931688 2397.43129026 -668.2625592 2392.47365782 -670.1875 2387.47265625 C-670.57188232 2386.48430283 -670.95626465 2385.4959494 -671.35229492 2384.47764587 C-672.57183362 2381.34066114 -673.78630203 2378.20174863 -675 2375.0625 C-676.21428144 2371.9270553 -677.4297202 2368.79207382 -678.64770508 2365.6580658 C-679.40243638 2363.71556406 -680.15501513 2361.77222405 -680.9050293 2359.82789612 C-682.53474969 2355.62895027 -684.20991499 2351.47541615 -686.07055664 2347.37304688 C-687.98976427 2343.11567038 -689.56536487 2338.7934243 -691.05859375 2334.37109375 C-691.46513939 2333.18194115 -691.46513939 2333.18194115 -691.87989807 2331.96876526 C-692.44899607 2330.30137923 -693.01610742 2328.6333139 -693.58129883 2326.96459961 C-694.42774131 2324.46630301 -695.28069548 2321.97030729 -696.13476562 2319.47460938 C-699.18687363 2310.525238 -702.1165943 2301.55416649 -704.84399414 2292.50024414 C-705.94700046 2288.97939706 -705.94700046 2288.97939706 -707.4753418 2285.61987305 C-709.23891942 2281.43275289 -710.47079968 2277.23414623 -711.671875 2272.859375 C-711.91525101 2271.98713287 -712.15862701 2271.11489075 -712.40937805 2270.21621704 C-713.1946447 2267.39552136 -713.97253895 2264.5728561 -714.75 2261.75 C-715.28944579 2259.80544959 -715.82907891 2257.86095114 -716.36889648 2255.91650391 C-719.65531635 2244.04580726 -722.8594472 2232.15740359 -725.85644531 2220.20996094 C-726.22334473 2218.75638184 -726.22334473 2218.75638184 -726.59765625 2217.2734375 C-726.79883057 2216.46310059 -727.00000488 2215.65276367 -727.20727539 2214.81787109 C-727.87472671 2212.44530469 -728.63040566 2210.15302729 -729.43652344 2207.82592773 C-731.13177274 2202.79168312 -732.30280184 2197.70102582 -733.41796875 2192.51171875 C-733.63641449 2191.51072144 -733.85486023 2190.50972412 -734.07992554 2189.47839355 C-734.78876056 2186.21609048 -735.48876617 2182.95198043 -736.1875 2179.6875 C-736.42822235 2178.57138336 -736.6689447 2177.45526672 -736.91696167 2176.30532837 C-740.83047991 2158.12990167 -744.35556236 2139.90385983 -747.5378418 2121.58666992 C-747.76777328 2120.27357849 -747.76777328 2120.27357849 -748.00234985 2118.93395996 C-748.28422546 2117.3186856 -748.56198982 2115.70268535 -748.83456421 2114.08581543 C-749.36838276 2111.01897296 -749.96255748 2108.10734569 -750.98901367 2105.16455078 C-752.47616942 2100.50951268 -753.05453244 2095.77988564 -753.734375 2090.94921875 C-753.8928894 2089.84829391 -754.05140381 2088.74736908 -754.21472168 2087.61308289 C-754.73476699 2083.97233817 -755.24383804 2080.33019978 -755.75 2076.6875 C-755.92607788 2075.42649475 -756.10215576 2074.1654895 -756.28356934 2072.86627197 C-769.87398141 1975.02360499 -776.66852973 1875.59418073 -750.07763672 1658.28613281 C-748.58713834 1653.74102447 -747.54516142 1649.11728899 -746.4609375 1644.4609375 C-745.96194772 1642.34431633 -745.46258453 1640.22778317 -744.96289062 1638.11132812 C-744.70354736 1637.00990479 -744.4442041 1635.90848145 -744.17700195 1634.77368164 C-736.79319924 1603.48299135 -736.79319924 1603.48299135 -732.5 1588.5 C-732.04826416 1586.91517822 -732.04826416 1586.91517822 -731.58740234 1585.29833984 C-730.03898903 1580.03164566 -728.22386657 1574.98881424 -726.13378906 1569.91650391 C-723.51981361 1563.19244044 -721.37662539 1556.28944121 -719.125 1549.4375 C-716.09075699 1540.22343147 -713.04477933 1531.01347426 -709.8671875 1521.84765625 C-709.63822784 1521.17512314 -709.40926819 1520.50259003 -709.17337036 1519.80967712 C-707.72571718 1515.6754722 -705.9654731 1511.8375593 -703.96408081 1507.94340515 C-702.50982161 1505.01189279 -701.35681186 1501.98721959 -700.1953125 1498.9296875 C-699.94884979 1498.28613312 -699.70238708 1497.64257874 -699.44845581 1496.97952271 C-698.67011278 1494.94612882 -697.89704623 1492.91079213 -697.125 1490.875 C-693.30168168 1480.8128655 -689.32004241 1470.86092458 -685 1461 C-684.34 1461 -683.68 1461 -683 1461 C-682.86053955 1460.00009033 -682.86053955 1460.00009033 -682.71826172 1458.97998047 C-681.8023925 1455.18015051 -680.19596184 1451.82307666 -678.5078125 1448.3203125 C-678.16120575 1447.58932343 -677.814599 1446.85833435 -677.45748901 1446.10519409 C-676.35188365 1443.77593494 -675.23876617 1441.45036641 -674.125 1439.125 C-673.01986298 1436.80609519 -671.91631838 1434.486444 -670.81393433 1432.16622925 C-670.12911436 1430.72612254 -669.44247734 1429.28687796 -668.75369263 1427.84866333 C-666.72932649 1423.60646947 -664.82476718 1419.33197333 -663 1415 C-662.34 1415 -661.68 1415 -661 1415 C-660.75523926 1414.17999512 -660.51047852 1413.35999023 -660.25830078 1412.51513672 C-658.78216485 1408.3914648 -656.89057206 1404.63466854 -654.8671875 1400.7578125 C-654.47048859 1399.98944061 -654.07378967 1399.22106873 -653.66506958 1398.42941284 C-652.40575293 1395.99249294 -651.140479 1393.55872453 -649.875 1391.125 C-649.01653086 1389.46635084 -648.15845374 1387.80749874 -647.30078125 1386.1484375 C-645.20505068 1382.09659524 -643.10397429 1378.04756729 -641 1374 C-640.34 1374 -639.68 1374 -639 1374 C-638.74476563 1373.31373535 -638.48953125 1372.6274707 -638.2265625 1371.92041016 C-636.82213808 1368.57651587 -635.13583248 1365.43781899 -633.375 1362.2734375 C-633.02743652 1361.64394196 -632.67987305 1361.01444641 -632.32177734 1360.36587524 C-631.59024276 1359.04230926 -630.85730723 1357.71951672 -630.12304688 1356.39746094 C-629.00063396 1354.37614169 -627.88277967 1352.35235428 -626.765625 1350.328125 C-626.05234901 1349.03891548 -625.33881614 1347.74984803 -624.625 1346.4609375 C-624.29161621 1345.85776703 -623.95823242 1345.25459656 -623.61474609 1344.63314819 C-622.15878272 1342.01459208 -620.66347076 1339.49520613 -619 1337 C-618.34 1337 -617.68 1337 -617 1337 C-616.58572754 1335.9020813 -616.58572754 1335.9020813 -616.16308594 1334.78198242 C-615.07535769 1332.18024788 -613.85168342 1329.89529463 -612.390625 1327.48828125 C-611.88273438 1326.64716797 -611.37484375 1325.80605469 -610.8515625 1324.93945312 C-610.32304688 1324.07255859 -609.79453125 1323.20566406 -609.25 1322.3125 C-608.73695313 1321.46494141 -608.22390625 1320.61738281 -607.6953125 1319.74414062 C-606.66013114 1318.03401062 -605.62172393 1316.32582909 -604.58007812 1314.61962891 C-603.48225867 1312.79954195 -602.40416695 1310.96746835 -601.34179688 1309.12646484 C-600.81134766 1308.21203613 -600.28089844 1307.29760742 -599.734375 1306.35546875 C-599.01846191 1305.10286255 -599.01846191 1305.10286255 -598.28808594 1303.82495117 C-597.86301758 1303.22271729 -597.43794922 1302.6204834 -597 1302 C-596.34 1302 -595.68 1302 -595 1302 C-594.72929688 1301.26136719 -594.45859375 1300.52273438 -594.1796875 1299.76171875 C-593.0493223 1297.11546644 -591.81895732 1295.12588948 -590.125 1292.8125 C-587.64887795 1289.37315076 -585.25906193 1285.89494319 -582.94140625 1282.34765625 C-582.13775635 1281.12115356 -582.13775635 1281.12115356 -581.31787109 1279.86987305 C-580.2361558 1278.21457976 -579.15959723 1276.55590446 -578.08837891 1274.89379883 C-577.33886963 1273.75140747 -577.33886963 1273.75140747 -576.57421875 1272.5859375 C-576.12651123 1271.8954834 -575.67880371 1271.2050293 -575.2175293 1270.49365234 C-574.81574463 1270.00074707 -574.41395996 1269.5078418 -574 1269 C-573.34 1269 -572.68 1269 -572 1269 C-571.7421875 1268.27683594 -571.484375 1267.55367187 -571.21875 1266.80859375 C-569.9391896 1263.85986321 -568.42969088 1261.62883069 -566.5 1259.0625 C-564.15751235 1255.91517934 -561.8226063 1252.76826951 -559.56640625 1249.55859375 C-555.10093008 1243.20627197 -550.50270351 1237.10503645 -545.5078125 1231.15234375 C-541.51706747 1226.25731639 -537.94889516 1221.02026472 -534.34057617 1215.84082031 C-533.8066626 1215.08510742 -533.27274902 1214.32939453 -532.72265625 1213.55078125 C-532.24578369 1212.86669189 -531.76891113 1212.18260254 -531.27758789 1211.4777832 C-530.85598389 1210.99011475 -530.43437988 1210.50244629 -530 1210 C-529.34 1210 -528.68 1210 -528 1210 C-527.58572754 1209.11489746 -527.58572754 1209.11489746 -527.16308594 1208.21191406 C-526.0597546 1206.11363911 -524.8852274 1204.44129717 -523.390625 1202.609375 C-522.8857959 1201.98554932 -522.3809668 1201.36172363 -521.86083984 1200.71899414 C-521.3292627 1200.06922607 -520.79768555 1199.41945801 -520.25 1198.75 C-516.86558507 1194.58126835 -513.51860424 1190.41819045 -510.375 1186.0625 C-509.59125 1185.051875 -508.8075 1184.04125 -508 1183 C-507.34 1183 -506.68 1183 -506 1183 C-505.76539063 1182.45601562 -505.53078125 1181.91203125 -505.2890625 1181.3515625 C-503.64776128 1178.35743119 -501.58975325 1175.97373524 -499.375 1173.375 C-498.47174486 1172.3093656 -497.56941435 1171.24294683 -496.66796875 1170.17578125 C-495.99386963 1169.37841553 -495.99386963 1169.37841553 -495.30615234 1168.56494141 C-492.76272233 1165.51757946 -490.32781059 1162.3833754 -487.88671875 1159.25390625 C-486 1157 -486 1157 -483.6796875 1154.68359375 C-480.42737432 1151.42653959 -477.43820788 1147.98758914 -474.4375 1144.5 C-473.87353516 1143.84902344 -473.30957031 1143.19804688 -472.72851562 1142.52734375 C-470.40307175 1139.83472453 -468.1104546 1137.14039089 -465.91015625 1134.34375 C-463.76176764 1131.70769036 -461.41879739 1129.39067184 -459 1127 C-456.64753425 1124.51778194 -454.32456046 1122.00833982 -452 1119.5 C-448.06818415 1115.25733546 -444.0940972 1111.08737454 -440 1107 C-438.30223095 1105.17617227 -436.61526235 1103.34224886 -434.9375 1101.5 C-433.95970804 1100.43092316 -432.98184094 1099.36191503 -432.00390625 1098.29296875 C-430.06949871 1096.17480812 -428.14073837 1094.05168047 -426.21484375 1091.92578125 C-419.61479669 1084.67454176 -412.77828559 1077.6987002 -405.78662109 1070.82348633 C-402.27679658 1067.35652429 -399.0521875 1063.88397733 -396 1060 C-394.78165483 1058.86100084 -393.53170276 1057.75470292 -392.25 1056.6875 C-386.76217125 1051.98510399 -381.61168217 1047.00891063 -377 1041.4375 C-374.94485581 1038.97976192 -372.794954 1036.88603012 -370.34960938 1034.81835938 C-365.82352768 1030.90259965 -361.61296284 1026.72244993 -357.40625 1022.46875 C-356.61528931 1021.67400269 -355.82432861 1020.87925537 -355.00939941 1020.0604248 C-352.50380477 1017.54271568 -350.00149142 1015.02178554 -347.5 1012.5 C-344.2008832 1009.17411811 -340.89835626 1005.85167664 -337.59375 1002.53125 C-336.47933533 1001.40438782 -336.47933533 1001.40438782 -335.34240723 1000.25476074 C-331.26303481 996.15652471 -327.09370558 992.2366273 -322.70269775 988.47317505 C-318.10405537 984.49442709 -313.6953176 980.15767694 -309.9375 975.375 C-308.23977903 973.29392268 -306.6712732 971.83094566 -304.625 970.125 C-299.74169572 965.96413212 -295.48608268 961.26107677 -291.14624023 956.55029297 C-288.06196033 953.20411284 -284.95863932 949.91625309 -281.6875 946.75 C-277.88269807 943.00996065 -274.59522862 938.91371908 -271.26171875 934.75390625 C-269.21334422 932.25977146 -267.08455046 929.91299739 -264.875 927.5625 C-259.70596021 921.89643715 -255.21316762 915.74487503 -250.65209961 909.5859375 C-247.005718 904.66270692 -243.29107002 899.82436507 -239.4375 895.0625 C-233.98789389 888.30254381 -229.28291382 881.05492468 -224.59350586 873.75415039 C-224.02510986 872.87879639 -223.45671387 872.00344238 -222.87109375 871.1015625 C-222.36505615 870.31088379 -221.85901855 869.52020508 -221.33764648 868.70556641 C-220.89622314 868.14272949 -220.4547998 867.57989258 -220 867 C-219.34 867 -218.68 867 -218 867 C-217.76410156 866.31808594 -217.52820313 865.63617187 -217.28515625 864.93359375 C-215.71976642 861.36031787 -213.63664945 858.26433157 -211.4375 855.0625 C-210.53280155 853.72727511 -209.62917968 852.39132022 -208.7265625 851.0546875 C-208.27055664 850.38018555 -207.81455078 849.70568359 -207.34472656 849.01074219 C-204.59007028 844.89176086 -201.95229706 840.69750972 -199.30078125 836.51171875 C-197.52212244 833.73959312 -195.61913124 831.07543926 -193.6953125 828.40234375 C-189.52522712 822.4780816 -186.04785061 816.21870692 -182.5625 809.875 C-181.92634766 808.72773437 -181.29019531 807.58046875 -180.63476562 806.3984375 C-179.08488067 803.60165262 -177.54008371 800.80219015 -176 798 C-175.34 798 -174.68 798 -174 798 C-173.73429199 797.29206299 -173.46858398 796.58412598 -173.19482422 795.85473633 C-171.94480458 792.86812423 -170.48049342 790.13968133 -168.8828125 787.32421875 C-168.27566406 786.24849609 -167.66851563 785.17277344 -167.04296875 784.06445312 C-166.41003906 782.95005859 -165.77710938 781.83566406 -165.125 780.6875 C-161.25579569 773.8625427 -157.42312155 767.06126331 -154 760 C-153.34 760 -152.68 760 -152 760 C-151.75161377 759.33718018 -151.50322754 758.67436035 -151.24731445 757.99145508 C-149.69587293 754.27060698 -147.88656549 750.71982539 -146.04296875 747.13671875 C-145.6581282 746.3859053 -145.27328766 745.63509186 -144.87678528 744.86152649 C-144.06346149 743.27663872 -143.24895794 741.69235589 -142.43334961 740.10864258 C-141.19807001 737.70804141 -139.96895003 735.30435666 -138.74023438 732.90039062 C-137.94568715 731.35397411 -137.15077676 729.80774413 -136.35546875 728.26171875 C-135.99382126 727.55311203 -135.63217377 726.84450531 -135.25956726 726.11442566 C-133.46237728 722.63745907 -131.5802229 719.27765721 -129.47485352 715.97705078 C-127.03891813 712.14387155 -125.00521096 708.1994033 -123.046875 704.10546875 C-122.70118469 703.39143387 -122.35549438 702.67739899 -121.99932861 701.94172668 C-121.27799975 700.4495754 -120.55883901 698.95637417 -119.84179688 697.4621582 C-118.74327928 695.17349801 -117.63783242 692.88828572 -116.53125 690.60351562 C-115.82772263 689.14602749 -115.1245835 687.68835187 -114.421875 686.23046875 C-114.09274109 685.54921432 -113.76360718 684.8679599 -113.42449951 684.1660614 C-112.1309263 681.46661938 -110.94779008 678.84337023 -110 676 C-109.34 676 -108.68 676 -108 676 C-107.72905518 675.13971191 -107.45811035 674.27942383 -107.17895508 673.39306641 C-106.01497026 670.04308484 -104.64881856 666.91751066 -103.13671875 663.7109375 C-102.30043945 661.92623047 -102.30043945 661.92623047 -101.44726562 660.10546875 C-100.86099669 658.86182845 -100.27440687 657.61833937 -99.6875 656.375 C-95.98605919 648.52548272 -92.36492621 640.67382875 -89.15161133 632.60791016 C-87.96223417 629.91447645 -86.52288556 627.51722877 -85 625 C-84.09221249 623.11651365 -83.21503393 621.2180744 -82.36328125 619.30859375 C-81.87182617 618.20749268 -81.38037109 617.1063916 -80.87402344 615.97192383 C-80.3587207 614.80556396 -79.84341797 613.6392041 -79.3125 612.4375 C-78.78301758 611.24342529 -78.25353516 610.04935059 -77.70800781 608.8190918 C-73.22372899 598.64108418 -69.01995526 588.36911989 -65 578 C-64.34 578 -63.68 578 -63 578 C-62.90106445 577.35232666 -62.80212891 576.70465332 -62.70019531 576.03735352 C-61.76956369 572.00039813 -60.2972577 568.25816992 -58.796875 564.40234375 C-58.47720764 563.57223282 -58.15754028 562.74212189 -57.82818604 561.88685608 C-57.15085936 560.13030124 -56.47159476 558.3744926 -55.79052734 556.61938477 C-54.76358411 553.97251208 -53.74258173 551.32341177 -52.72265625 548.67382812 C-49.61116356 540.60934126 -46.44907817 532.5769157 -43.09130859 524.61108398 C-36.10863998 507.90422922 -30.52122115 490.71986975 -25.07397461 473.46704102 C-24.701856 472.29705818 -24.701856 472.29705818 -24.32221985 471.10343933 C-23.85700048 469.63965661 -23.3958353 468.1745763 -22.93962097 466.70796204 C-21.99062443 463.72718162 -20.975244 460.95215189 -19.53613281 458.1706543 C-17.39132684 453.74366842 -16.15344065 449.15889437 -14.8203125 444.43359375 C-14.52567108 443.40428238 -14.23102966 442.37497101 -13.92745972 441.31446838 C-13.30439421 439.13242145 -12.68427199 436.94953223 -12.06689453 434.76586914 C-11.142269 431.4985234 -10.20670363 428.23446906 -9.26953125 424.97070312 C-5.48839767 411.72315339 -2.06169788 398.43193629 1 385 C1.66 385 2.32 385 3 385 C3.09796875 383.84757812 3.1959375 382.69515625 3.296875 381.5078125 C3.93955393 375.73044356 5.15108163 370.08094203 6.32324219 364.39306641 C13.22503112 330.90146935 16.84150288 297.10299654 19 263 C19.10803955 261.3296167 19.10803955 261.3296167 19.21826172 259.62548828 C23.9321595 182.08999717 17.83452341 102.34401761 4.75 25.875 C4.62530334 25.14421234 4.50060669 24.41342468 4.37213135 23.66049194 C3.078487 15.67639658 3.078487 15.67639658 0.91894531 7.90283203 C0.02257149 5.0713005 -0.17315561 2.94364537 0 0 Z M-401 1626 C-402.38251953 1626.97259766 -402.38251953 1626.97259766 -403.79296875 1627.96484375 C-409.88646268 1632.30506157 -415.47993558 1636.95949756 -421 1642 C-422.3311633 1643.14835364 -423.66445148 1644.29424939 -425 1645.4375 C-429.55189901 1649.40791889 -433.76547013 1653.69704864 -438 1658 C-438.79148437 1658.76570313 -439.58296875 1659.53140625 -440.3984375 1660.3203125 C-443.46283674 1663.47673575 -446.2040455 1666.80708269 -448.9375 1670.25 C-449.46311523 1670.9102417 -449.98873047 1671.5704834 -450.53027344 1672.25073242 C-457.53338494 1679.91293773 -457.53338494 1679.91293773 -461 1689 C-461.66 1689 -462.32 1689 -463 1689 C-464.39628404 1690.90750932 -465.61019926 1692.78376809 -466.8125 1694.8125 C-467.19559326 1695.45396973 -467.57868652 1696.09543945 -467.97338867 1696.75634766 C-474.36896736 1707.77715468 -479.63765468 1719.45236119 -485 1731 C-485.3808374 1731.81791016 -485.7616748 1732.63582031 -486.15405273 1733.47851562 C-505.52896918 1775.97413471 -510.75342582 1827.9165866 -506 1874 C-505.78699944 1876.29420031 -505.57474891 1878.58847039 -505.36328125 1880.8828125 C-502.23237161 1913.14864039 -496.66585932 1948.13496191 -482.96923828 1977.82763672 C-481.25850343 1981.66192354 -479.88189174 1985.62210467 -478.4375 1989.5625 C-473.9282199 2001.66409295 -468.51073272 2013.32779262 -463 2025 C-462.34 2025 -461.68 2025 -461 2025 C-460.77699219 2025.77988281 -460.55398438 2026.55976562 -460.32421875 2027.36328125 C-458.56205824 2032.202725 -456.21894633 2036.6407339 -453.8125 2041.1875 C-453.32144775 2042.11844482 -452.83039551 2043.04938965 -452.32446289 2044.00854492 C-447.2400658 2053.86982942 -447.2400658 2053.86982942 -441 2063 C-440.34 2063 -439.68 2063 -439 2063 C-438.73429199 2063.72380859 -438.46858398 2064.44761719 -438.19482422 2065.19335938 C-436.9923802 2068.0178989 -435.58960263 2070.35880205 -433.8828125 2072.90625 C-433.27566406 2073.81503906 -432.66851562 2074.72382813 -432.04296875 2075.66015625 C-431.41003906 2076.59730469 -430.77710938 2077.53445313 -430.125 2078.5 C-429.18720703 2079.90572266 -429.18720703 2079.90572266 -428.23046875 2081.33984375 C-423.9218048 2087.9042078 -423.9218048 2087.9042078 -419 2094 C-418.34 2094 -417.68 2094 -417 2094 C-416.74089844 2094.556875 -416.48179687 2095.11375 -416.21484375 2095.6875 C-411.4686518 2104.72205189 -404.28543963 2112.18854029 -397.34619141 2119.56103516 C-395.28484697 2121.76443815 -393.26709013 2124.00611609 -391.25 2126.25 C-390.14785156 2127.47203125 -390.14785156 2127.47203125 -389.0234375 2128.71875 C-387.800623 2130.09736712 -386.59264288 2131.48963122 -385.4140625 2132.90625 C-380.89075032 2138.32504023 -375.78401854 2143.0467534 -370.59326172 2147.81347656 C-367.44518108 2150.70488899 -364.35399239 2153.6248445 -361.3515625 2156.66796875 C-358.65659655 2159.38525404 -355.87225992 2161.86346703 -352.875 2164.25 C-349.21276584 2167.19286673 -345.60695058 2170.18150086 -342.04858398 2173.24780273 C-337.32254907 2177.31336479 -332.58784951 2181.12848174 -327.30078125 2184.45214844 C-324.89055304 2186.07363049 -322.70502438 2187.84519002 -320.47265625 2189.703125 C-314.96747839 2194.14076079 -309.14805756 2197.87231685 -303.125 2201.5625 C-302.12597656 2202.18318359 -301.12695312 2202.80386719 -300.09765625 2203.44335938 C-282.77861116 2214.15882018 -265.22234769 2224.08456082 -246.38110352 2231.86865234 C-242.24279109 2233.5813667 -238.22931238 2235.37252798 -234.26171875 2237.453125 C-228.03051237 2240.61451467 -221.50239791 2242.76188641 -214.875 2244.9375 C-213.89705475 2245.26140717 -213.89705475 2245.26140717 -212.89935303 2245.59185791 C-201.23051706 2249.44713761 -189.46683284 2252.62338177 -177.49365234 2255.40039062 C-175.3274215 2255.9212701 -173.19084959 2256.49139332 -171.05078125 2257.109375 C-151.932018 2262.48329764 -130.81741004 2264.53772776 -111 2265 C-110.30745117 2265.02046387 -109.61490234 2265.04092773 -108.90136719 2265.06201172 C-84.3211274 2265.72500972 -60.06046031 2262.84999516 -36 2258 C-36 2257.34 -36 2256.68 -36 2256 C-34.88109375 2255.88785156 -33.7621875 2255.77570312 -32.609375 2255.66015625 C-1.18497272 2251.69417045 38.09489186 2233.28035583 60.6875 2211.171875 C63.45929049 2208.56863934 66.45381327 2206.3276693 69.5 2204.0625 C77.64937265 2197.93203033 84.63144002 2190.7951476 91.234375 2183.03515625 C92.4823143 2181.59671295 93.7677494 2180.1903996 95.078125 2178.80859375 C100.75731379 2172.78190215 105.27554439 2166.356438 109.73828125 2159.41796875 C111.08143441 2157.33878692 112.42592546 2155.47923957 114 2153.5546875 C116.61686096 2150.21205651 118.62701881 2146.6409349 120.6875 2142.9375 C121.09033203 2142.23044922 121.49316406 2141.52339844 121.90820312 2140.79492188 C122.48538086 2139.7652832 122.48538086 2139.7652832 123.07421875 2138.71484375 C123.42057373 2138.09730225 123.76692871 2137.47976074 124.1237793 2136.84350586 C125.07309479 2134.84621377 125.73053916 2133.2013301 126 2131 C124.25981854 2128.68480206 122.57759887 2126.73772363 120.5625 2124.6875 C119.72489136 2123.80940674 119.72489136 2123.80940674 118.87036133 2122.91357422 C115.47434271 2119.39152285 111.94800566 2116.11941063 108.21850586 2112.95361328 C106.13724399 2111.12085688 104.18610574 2109.22657008 102.24609375 2107.24609375 C101.23156128 2106.21911377 101.23156128 2106.21911377 100.1965332 2105.17138672 C98.82740254 2103.77756814 97.46256584 2102.37951719 96.10229492 2100.97705078 C95.47299072 2100.33622559 94.84368652 2099.69540039 94.1953125 2099.03515625 C93.62828613 2098.4512915 93.06125977 2097.86742676 92.47705078 2097.26586914 C91.07111258 2095.78308677 91.07111258 2095.78308677 89 2096 C88.74943848 2095.42419189 88.49887695 2094.84838379 88.24072266 2094.25512695 C86.83143301 2091.69361407 85.22091237 2089.9781505 83.1484375 2087.91796875 C82.37886719 2087.15033203 81.60929688 2086.38269531 80.81640625 2085.59179688 C80.01074219 2084.79837891 79.20507812 2084.00496094 78.375 2083.1875 C77.59253906 2082.40568359 76.81007813 2081.62386719 76.00390625 2080.81835938 C71.69151535 2076.5381505 67.27729224 2072.45063071 62.67480469 2068.4855957 C60.75519411 2066.78285075 59.07042146 2064.97826516 57.4375 2063 C53.07732883 2057.8802515 48.46032667 2053.20385425 43.3125 2048.875 C39.66386036 2045.73956016 36.46927745 2042.31203977 33.25 2038.75 C29.34691672 2034.43324291 25.34753906 2030.36891091 21 2026.5 C16.12859808 2022.16489921 11.67962773 2017.56228978 7.359375 2012.67773438 C4.83267622 2009.85314355 2.22894885 2007.28528223 -0.65869141 2004.82763672 C-5.12302856 2000.94923269 -9.28901588 1996.82090375 -13.4453125 1992.6171875 C-14.60557449 1991.45124557 -14.60557449 1991.45124557 -15.78927612 1990.26174927 C-18.23698098 1987.80193333 -20.68139676 1985.33889013 -23.125 1982.875 C-26.35384181 1979.6194683 -29.58604462 1976.36732764 -32.8203125 1973.1171875 C-33.55170441 1972.37749725 -34.28309631 1971.63780701 -35.03665161 1970.8757019 C-38.87472462 1967.0193733 -42.77753567 1963.42948909 -47 1960 C-48.14037391 1958.78294151 -49.2496462 1957.53531157 -50.3125 1956.25 C-55.38561789 1950.31646343 -60.83356287 1944.77379572 -66.8125 1939.75 C-70.42301613 1936.66140006 -73.56997501 1933.26757807 -76.75 1929.75 C-81.09104209 1924.94966443 -85.58167207 1920.54693196 -90.41992188 1916.24414062 C-95.05143484 1912.07155202 -99.21846183 1907.5277115 -103.41455078 1902.92358398 C-106.81249516 1899.21650177 -110.30470691 1895.80663261 -114.1640625 1892.57421875 C-118.64814963 1888.72935255 -122.76711689 1884.51028181 -126.5 1879.9375 C-128.42808382 1877.67200151 -130.13550684 1875.95597705 -132.375 1874.0625 C-138.72782099 1868.65713606 -144.4799741 1862.59765553 -150.3425293 1856.67333984 C-151.7036356 1855.29920189 -153.06986235 1853.93013765 -154.4375 1852.5625 C-156.60622415 1850.39377585 -158.7671127 1848.21777746 -160.92578125 1846.0390625 C-162.3879633 1844.56765116 -163.8502043 1843.0962984 -165.3125 1841.625 C-166.03373047 1840.89539062 -166.75496094 1840.16578125 -167.49804688 1839.4140625 C-170.97535254 1835.92116354 -174.48107825 1832.53086551 -178.21875 1829.31640625 C-181.47258902 1826.51470068 -184.35183811 1823.54488407 -187.1875 1820.3125 C-191.0633761 1815.970724 -195.11215889 1811.95517823 -199.4375 1808.0625 C-204.5440447 1803.46554811 -209.21940331 1798.61205347 -213.82299805 1793.51513672 C-217.07206705 1789.94002155 -220.43871519 1786.70943018 -224.1328125 1783.60546875 C-228.79802599 1779.59416594 -233.07891135 1775.17459899 -237 1770.4375 C-239.05328476 1767.98210722 -241.20046957 1765.89034703 -243.64379883 1763.82495117 C-248.20967621 1759.87478835 -252.45524556 1755.65406474 -256.69921875 1751.36328125 C-257.49729446 1750.56141891 -258.29537018 1749.75955658 -259.11763 1748.93339539 C-261.64338029 1746.39552845 -264.16584245 1743.85443315 -266.6875 1741.3125 C-270.02183464 1737.95152366 -273.35949825 1734.59390488 -276.69921875 1731.23828125 C-277.45764572 1730.47155594 -278.21607269 1729.70483063 -278.9974823 1728.91487122 C-282.52159794 1725.37446471 -286.02611957 1722.04298196 -290 1719 C-291.0972291 1717.82311258 -292.16158081 1716.61454246 -293.1875 1715.375 C-298.57916564 1709.08081642 -304.38537084 1703.12771493 -310.75 1697.8125 C-315.51489068 1693.75459513 -319.62335187 1689.08393944 -323.85302734 1684.48535156 C-327.45897855 1680.58676317 -331.12351514 1676.94354825 -335.203125 1673.53515625 C-339.85381408 1669.56185014 -344.10231116 1665.1463295 -348 1660.4375 C-350.07393765 1657.95604067 -352.25130805 1655.84234702 -354.71704102 1653.75170898 C-358.84066707 1650.18457165 -362.69853266 1646.41410903 -366.52734375 1642.53515625 C-367.20172989 1641.85698349 -367.87611603 1641.17881073 -368.57093811 1640.48008728 C-370.69560354 1638.34333508 -372.81694741 1636.2033334 -374.9375 1634.0625 C-377.75628311 1631.21722279 -380.57830241 1628.37521339 -383.40234375 1625.53515625 C-384.05017319 1624.87902847 -384.69800262 1624.2229007 -385.36546326 1623.54689026 C-386.89152706 1622.01235069 -388.44308684 1620.50323113 -390 1619 C-393.42343467 1619 -398.29606566 1624.07175453 -401 1626 Z M1081.95117188 1621.36767578 C1081.29697266 1622.0532959 1080.64277344 1622.73891602 1079.96875 1623.4453125 C1079.24042969 1624.19296875 1078.51210937 1624.940625 1077.76171875 1625.7109375 C1077.01535156 1626.50757813 1076.26898437 1627.30421875 1075.5 1628.125 C1074.75363281 1628.8984375 1074.00726562 1629.671875 1073.23828125 1630.46875 C1071.83477868 1631.92441815 1070.43754406 1633.38617566 1069.04882812 1634.85595703 C1066.73620744 1637.27605175 1064.3691305 1639.63508977 1062 1642 C1060.96939136 1643.03231404 1059.93906702 1644.06491195 1058.90898132 1645.0977478 C1058.34992096 1645.65825333 1057.7908606 1646.21875885 1057.21485901 1646.79624939 C1056.61890427 1647.39377518 1056.02294952 1647.99130096 1055.40893555 1648.60693359 C1048.87371622 1655.15852021 1042.33592851 1661.70753773 1035.79669476 1668.25511742 C1031.84791421 1672.20911766 1027.90007469 1676.16404814 1023.9543457 1680.12109375 C1020.12528394 1683.96106293 1016.29374646 1687.79854602 1012.46051979 1691.63435745 C1011.00650273 1693.09021221 1009.55336126 1694.54694203 1008.10114098 1696.00458908 C1006.06286305 1698.05018386 1004.02141777 1700.0925688 1001.97924805 1702.13427734 C1001.389366 1702.72775467 1000.79948395 1703.32123199 1000.19172668 1703.93269348 C996.53065726 1707.58489495 992.741502 1711.03009153 988.80981159 1714.38968849 C985.98866857 1716.89984982 983.50422938 1719.6796574 981 1722.5 C977.19692124 1726.70293239 973.35637538 1730.61018992 969.00390625 1734.25390625 C964.78174016 1737.93286968 960.92884794 1742.01346914 957 1746 C955.33414623 1747.66747917 953.66733311 1749.33400004 952 1751 C951.00084819 1751.99905783 950.00174574 1752.99816501 949.00268555 1753.99731445 C929.66756185 1773.33243815 910.33243815 1792.66756185 890.99731445 1812.00268555 C890.49051997 1812.50950048 889.98372549 1813.01631542 889.4615736 1813.53848839 C888.0503185 1814.94968363 886.63884882 1816.36066427 885.22737122 1817.77163696 C883.1706835 1819.8292405 881.1210789 1821.89356461 879.07421875 1823.9609375 C877.6120367 1825.43234884 876.1497957 1826.9037016 874.6875 1828.375 C873.96626953 1829.10460938 873.24503906 1829.83421875 872.50195312 1830.5859375 C868.40085467 1834.70542653 864.20616327 1838.63085452 859.80151367 1842.42333984 C857.36533455 1844.55545053 855.08439626 1846.81974801 852.8125 1849.125 C852.01457031 1849.93195313 851.21664063 1850.73890625 850.39453125 1851.5703125 C849.60433594 1852.37210938 848.81414062 1853.17390625 848 1854 C846.33378049 1855.6671137 844.66703149 1857.33369824 843 1859 C840.84764329 1861.15632012 838.69635528 1863.31370597 836.54492188 1865.47094727 C830.17331137 1871.85888932 823.79916107 1878.24429084 817.4235611 1884.62825108 C813.57222676 1888.48481555 809.72183784 1892.34231448 805.87353516 1896.2019043 C802.14172705 1899.94458396 798.40747542 1903.68480951 794.67152405 1907.4233532 C793.25131472 1908.84540657 791.83198413 1910.26833811 790.41355896 1911.6921711 C788.42972751 1913.68327142 786.44277839 1915.67121017 784.45507812 1917.65844727 C783.87311172 1918.24400894 783.29114532 1918.82957062 782.69154358 1919.43287659 C779.60374042 1922.51291366 776.44575038 1925.31412941 773 1928 C771.9027709 1929.17688742 770.83841919 1930.38545754 769.8125 1931.625 C763.72242263 1938.73450336 757.03344679 1945.19455981 749.9375 1951.2890625 C745.29057797 1955.39259445 740.95269138 1959.78722149 737 1964.5625 C734.38823141 1967.67572816 731.50580892 1970.21755613 728.4140625 1972.84375 C723.61591499 1977.12947399 719.15097027 1981.77166859 714.6340332 1986.35009766 C712.95452307 1988.04591859 711.26685726 1989.73342832 709.57853699 1991.42047119 C707.63283486 1993.36739584 705.69042819 1995.3175845 703.74804688 1997.26782227 C699.77108669 2001.26074148 695.79195609 2005.25148647 691.81119537 2009.2406168 C689.41267866 2011.64436273 687.01511336 2014.04904246 684.61962891 2016.45581055 C681.84296078 2019.24546508 679.06221027 2022.03103021 676.28125 2024.81640625 C675.42591675 2025.67690079 674.5705835 2026.53739532 673.68933105 2027.42396545 C672.88499634 2028.2283757 672.08066162 2029.03278595 671.25195312 2029.86157227 C670.54977661 2030.56596939 669.8476001 2031.27036652 669.12414551 2031.99610901 C666.84987378 2034.14162711 664.44942421 2036.05893328 662 2038 C660.9027709 2039.17688742 659.83841919 2040.38545754 658.8125 2041.625 C653.3207453 2048.03602668 647.38178251 2054.04418313 640.9375 2059.5 C638.02966759 2061.98749228 635.51153281 2064.61339897 633 2067.5 C627.64784064 2073.58749951 621.69739536 2078.99447169 615.7578125 2084.5 C611.73306071 2088.23229578 607.84038463 2092.07904786 604 2096 C602.33417543 2097.66751595 600.66736111 2099.33402169 599 2101 C597.8927749 2102.10713036 596.78560024 2103.21431118 595.6784668 2104.3215332 C586.78564453 2113.21435547 577.89282227 2122.10717773 569 2131 C571.8454204 2139.79946069 576.87751162 2146.94883207 582.21875 2154.43359375 C584.05031497 2157.07249328 585.74727925 2159.76875693 587.4375 2162.5 C592.20773027 2170.06805072 597.67515049 2176.69359028 604 2183 C605.08391381 2184.16913886 606.16164402 2185.34402956 607.234375 2186.5234375 C615.43434181 2195.55633867 615.43434181 2195.55633867 624.80078125 2203.33203125 C627.50459952 2205.38270692 629.90720547 2207.67143224 632.375 2210 C637.55522879 2214.76293258 642.96807838 2218.41345201 649 2222 C651.20895945 2223.37399391 653.41727541 2224.74902281 655.625 2226.125 C660.68528338 2229.22167986 665.75170175 2232.23389536 671 2235 C672.66869141 2235.89138672 672.66869141 2235.89138672 674.37109375 2236.80078125 C692.40690207 2246.24922062 711.25400954 2252.27343963 730.95629883 2257.23144531 C732.98550535 2257.74383339 735.01146718 2258.26924708 737.03393555 2258.80761719 C743.88802524 2260.60486492 750.65201068 2261.80605722 757.6875 2262.625 C758.73059326 2262.74979736 759.77368652 2262.87459473 760.84838867 2263.00317383 C769.55877836 2264.01252079 778.23491782 2264.75105092 787 2265 C787.7027002 2265.02191406 788.40540039 2265.04382812 789.12939453 2265.06640625 C816.97893778 2265.81254271 845.84435627 2263.12405394 872.71826172 2255.62451172 C875.45172961 2254.87636161 878.1958338 2254.17507201 880.94140625 2253.47265625 C899.0656185 2248.78695048 916.66276102 2243.06478522 934 2236 C934 2235.34 934 2234.68 934 2234 C934.71752441 2233.88084229 935.43504883 2233.76168457 936.17431641 2233.63891602 C939.08585478 2232.98058736 941.4995986 2232.01882555 944.2109375 2230.77734375 C945.2009375 2230.32544678 946.1909375 2229.8735498 947.2109375 2229.40795898 C948.25507812 2228.92270752 949.29921875 2228.43745605 950.375 2227.9375 C951.45265625 2227.43871338 952.5303125 2226.93992676 953.640625 2226.42602539 C967.03731631 2220.1764448 979.63717991 2213.14264204 992.09521484 2205.20068359 C993.91172275 2204.05564567 995.74151484 2202.93797575 997.58203125 2201.83203125 C1003.1849317 2198.45985485 1008.48805292 2195.00828265 1013.57421875 2190.8984375 C1015.97843254 2189.01687889 1018.449477 2187.25587517 1020.95166016 2185.50756836 C1028.10277727 2180.50683468 1034.77920209 2175.12766367 1041.36474609 2169.40869141 C1043.04894315 2167.95783787 1044.74975802 2166.52907491 1046.45703125 2165.10546875 C1051.63578816 2160.78371826 1056.71778544 2156.45849083 1061.40625 2151.59765625 C1063.13632405 2149.86334182 1064.95088658 2148.27947497 1066.8125 2146.6875 C1073.78324515 2140.66607812 1080.18853251 2134.13980291 1086 2127 C1086.75023437 2126.2575 1087.50046875 2125.515 1088.2734375 2124.75 C1091.27657685 2121.7210457 1094.05056744 2118.55970919 1096.8125 2115.3125 C1097.34020996 2114.69383057 1097.86791992 2114.07516113 1098.41162109 2113.43774414 C1102.71446878 2108.37398702 1106.90793214 2103.2359136 1111 2098 C1112.16789062 2096.52660156 1112.16789062 2096.52660156 1113.359375 2095.0234375 C1118.83719403 2088.05947168 1123.85623229 2080.87737557 1128.70703125 2073.46484375 C1130.51686861 2070.70456419 1132.41785272 2068.03349787 1134.375 2065.375 C1139.70960757 2057.82602702 1144.03986047 2049.60414439 1148.55712891 2041.55224609 C1149.81319836 2039.33042714 1151.0910809 2037.12465745 1152.38671875 2034.92578125 C1160.92159013 2020.34018099 1168.18375856 2004.78444482 1173.90234375 1988.87890625 C1174.83249958 1986.43931604 1175.84737524 1984.09438021 1176.92578125 1981.71875 C1182.99617182 1968.16608677 1186.72790478 1953.74338357 1190.3125 1939.375 C1190.56864075 1938.35199295 1190.56864075 1938.35199295 1190.82995605 1937.30831909 C1194.91321241 1922.34734299 1194.91321241 1922.34734299 1196 1907 C1196.66 1907 1197.32 1907 1198 1907 C1201.45905401 1880.58248951 1201.45905401 1880.58248951 1203 1854 C1203.03996094 1852.76507812 1203.07992187 1851.53015625 1203.12109375 1850.2578125 C1203.51333227 1828.43089258 1203.0276938 1803.85224473 1196 1783 C1195.33204339 1780.27452797 1194.71685267 1777.53894857 1194.09765625 1774.80200195 C1189.81189098 1755.96056158 1184.15575079 1737.5472214 1176 1720 C1175.34 1720 1174.68 1720 1174 1720 C1173.76667969 1719.20078125 1173.53335938 1718.4015625 1173.29296875 1717.578125 C1169.11552896 1706.01759677 1162.47412402 1694.71636122 1155 1685 C1154.00970573 1683.68282587 1153.02019748 1682.36506061 1152.03125 1681.046875 C1140.18820388 1664.8536266 1140.18820388 1664.8536266 1126.046875 1650.765625 C1123.63102432 1648.68172327 1121.46310824 1646.42268562 1119.25 1644.125 C1113.93321968 1638.75951635 1108.14903228 1634.36505378 1102 1630 C1100.84093061 1629.15784822 1099.68208099 1628.31539389 1098.5234375 1627.47265625 C1097.37068204 1626.64719268 1096.21705734 1625.82294144 1095.0625 1625 C1093.50208984 1623.88625 1093.50208984 1623.88625 1091.91015625 1622.75 C1087.01454693 1619.75738154 1087.01454693 1619.75738154 1081.95117188 1621.36767578 Z M340 2234 C329.21686466 2244.45792967 321.63287821 2257.14890551 313.88671875 2269.90234375 C312.89617213 2271.52864493 311.90166927 2273.15293291 310.87182617 2274.75463867 C307.20921782 2280.47111442 304.05844698 2286.41152062 300.9375 2292.4375 C300.1630957 2293.91573242 300.1630957 2293.91573242 299.37304688 2295.42382812 C293.7278747 2304.77473643 293.7278747 2304.77473643 291 2315 C290.34 2315 289.68 2315 289 2315 C280.04500665 2333.89748286 280.04500665 2333.89748286 271.6875 2353.0625 C271.40447021 2353.73853271 271.12144043 2354.41456543 270.82983398 2355.11108398 C269.69038102 2357.91829847 269 2359.93672884 269 2363 C268.34 2363 267.68 2363 267 2363 C260.81154123 2378.45872031 254.82409785 2393.94334411 249.35009766 2409.67089844 C247.71842361 2414.33144909 246.09319518 2418.92976015 244.01171875 2423.41015625 C241.22542655 2429.49780136 239.28263471 2435.8809206 237.25 2442.25 C236.92767899 2443.25113327 236.92767899 2443.25113327 236.59884644 2444.27249146 C232.95115257 2455.61838589 229.66105784 2467.03967876 226.60058594 2478.55761719 C224.09822016 2487.93544123 224.09822016 2487.93544123 222.51953125 2491.78125 C219.90727817 2498.43196137 218.65272344 2505.59979128 217.125 2512.5625 C216.95047302 2513.35289673 216.77594604 2514.14329346 216.59613037 2514.9576416 C202.24275208 2574.01268783 202.24275208 2574.01268783 213.41796875 2631.60546875 C219.0011709 2640.40367677 225.9557228 2644.20146114 235.9375 2646.75 C236.948125 2646.8325 237.95875 2646.915 239 2647 C239.69480469 2647.06316406 240.38960937 2647.12632812 241.10546875 2647.19140625 C259.2605923 2648.06397808 276.66854948 2641.04698953 293 2634 C293 2633.34 293 2632.68 293 2632 C294.06492676 2631.83721558 294.06492676 2631.83721558 295.15136719 2631.67114258 C300.59651011 2630.38825794 305.35949077 2627.33500158 310.25 2624.6875 C311.40991455 2624.06174072 312.5698291 2623.43598145 313.76489258 2622.79125977 C324.04081695 2617.18249892 333.65282215 2610.81463769 342.83056641 2603.55126953 C345.33927664 2601.62736228 347.4373723 2600.12493264 350.55078125 2599.43359375 C354.04202582 2600.24097886 356.2997094 2601.9555736 359.1875 2604.0625 C360.23292969 2604.81660156 361.27835938 2605.57070312 362.35546875 2606.34765625 C362.92458984 2606.76217041 363.49371094 2607.17668457 364.08007812 2607.60375977 C371.53346469 2613.02414605 379.07066872 2617.95029147 387.125 2622.4375 C388.1363501 2623.00170654 389.1477002 2623.56591309 390.18969727 2624.1472168 C393.12160102 2625.77382572 396.05995261 2627.38817086 399 2629 C399.73557129 2629.40959961 400.47114258 2629.81919922 401.22900391 2630.24121094 C416.48521076 2638.68466089 434.47266475 2645.87415657 452 2647 C452.87269531 2647.05671875 453.74539063 2647.1134375 454.64453125 2647.171875 C464.99938282 2647.4899964 474.69837647 2645.46823017 482.68359375 2638.5390625 C489.41858443 2631.36673477 493.62626022 2621.66970077 495 2612 C495.16435547 2611.01386719 495.16435547 2611.01386719 495.33203125 2610.0078125 C498.50623316 2587.57678567 496.31577789 2556.6437058 489.0300293 2535.13671875 C488.07149753 2532.21772938 487.37881135 2529.388061 486.7734375 2526.37890625 C486.55042969 2525.29416016 486.32742188 2524.20941406 486.09765625 2523.09179688 C485.85917969 2521.92712891 485.62070313 2520.76246094 485.375 2519.5625 C480.66214344 2497.0994626 474.87506215 2474.90123966 468 2453 C467.34 2453 466.68 2453 466 2453 C465.89473495 2452.39785675 465.78946991 2451.7957135 465.68101501 2451.17532349 C464.49541527 2444.79686381 462.75996154 2438.80069937 460.62890625 2432.6796875 C460.14441261 2431.26443283 460.14441261 2431.26443283 459.65013123 2429.82058716 C458.62685855 2426.83664517 457.59470833 2423.85586106 456.5625 2420.875 C455.87379033 2418.86868126 455.18563457 2416.86217228 454.49804688 2414.85546875 C451.75427471 2406.86783451 448.99989909 2398.89567493 446 2391 C445.34 2391 444.68 2391 444 2391 C443.8860791 2390.31333252 443.7721582 2389.62666504 443.65478516 2388.91918945 C442.90074392 2385.55749258 441.76681661 2382.50669016 440.5234375 2379.29296875 C440.27709564 2378.65430878 440.03075378 2378.0156488 439.77694702 2377.3576355 C438.98090789 2375.29910098 438.17837109 2373.24318308 437.375 2371.1875 C437.10465942 2370.49179901 436.83431885 2369.79609802 436.55578613 2369.07931519 C432.61564933 2358.94215396 428.54872584 2348.88226706 424 2339 C423.34 2339 422.68 2339 422 2339 C421.62617187 2337.78183594 421.25234375 2336.56367188 420.8671875 2335.30859375 C418.76557584 2329.00991824 415.93938689 2323.06813886 413.125 2317.0625 C412.34962891 2315.38897461 412.34962891 2315.38897461 411.55859375 2313.68164062 C408.48082434 2307.06482401 405.30651985 2300.50551807 402 2294 C401.34 2294 400.68 2294 400 2294 C399.66355469 2292.81277344 399.66355469 2292.81277344 399.3203125 2291.6015625 C397.60615173 2286.9256565 395.29369222 2282.71974082 392.875 2278.375 C392.13141235 2277.03550293 392.13141235 2277.03550293 391.37280273 2275.66894531 C375.91246014 2247.36485444 375.91246014 2247.36485444 352 2227 C346.87902649 2227 343.71184237 2230.71909909 340 2234 Z " fill="#67817A" transform="translate(799,20)"/>
<path d="M0 0 C3.33013714 3.33013714 5.79594396 6.47681569 8.3125 10.375 C11.48486551 15.22390436 14.69969968 20.03746131 17.98828125 24.80859375 C18.67172607 25.80133301 19.3551709 26.79407227 20.05932617 27.81689453 C21.42725346 29.8006397 22.7984689 31.78212181 24.1730957 33.76123047 C24.79917725 34.67146973 25.42525879 35.58170898 26.0703125 36.51953125 C26.63508301 37.33526611 27.19985352 38.15100098 27.78173828 38.99145508 C29 41 29 41 29 43 C29.66 43 30.32 43 31 43 C31.23332031 42.31808594 31.46664062 41.63617187 31.70703125 40.93359375 C33.29391274 37.33314662 35.4261625 34.25936751 37.6875 31.0625 C38.66875933 29.65810414 39.64917788 28.25312056 40.62890625 26.84765625 C41.16273926 26.08340332 41.69657227 25.31915039 42.24658203 24.53173828 C44.19350507 21.72060045 46.11245636 18.89164626 48.02734375 16.05859375 C48.70643799 15.05497803 49.38553223 14.0513623 50.08520508 13.01733398 C51.43747497 11.01701039 52.78759878 9.01523419 54.13549805 7.01196289 C54.75336182 6.10051514 55.37122559 5.18906738 56.0078125 4.25 C56.56098145 3.43015625 57.11415039 2.6103125 57.68408203 1.765625 C58.11833496 1.18296875 58.55258789 0.6003125 59 0 C59.33 0 59.66 0 60 0 C60 21.78 60 43.56 60 66 C56.7 66 53.4 66 50 66 C49.67 56.1 49.34 46.2 49 36 C46.40125 39.733125 43.8025 43.46625 41.125 47.3125 C40.30789551 48.48594971 39.49079102 49.65939941 38.64892578 50.8684082 C38.0042334 51.79484131 37.35954102 52.72127441 36.6953125 53.67578125 C36.03547363 54.62364502 35.37563477 55.57150879 34.69580078 56.5480957 C33.44692931 58.35379915 32.21784739 60.17322891 31 62 C26.81856406 60.60618802 25.51136903 57.62450305 23.25 54.0625 C19.2962317 47.93667746 15.18777437 41.98253481 11 36 C10.67 45.9 10.34 55.8 10 66 C6.7 66 3.4 66 0 66 C0 44.22 0 22.44 0 0 Z " fill="#FFFFFF" transform="translate(2074,3026)"/>
<path d="M0 0 C14.85 0 29.7 0 45 0 C45 2.97 45 5.94 45 9 C39.39 9 33.78 9 28 9 C28 26.82 28 44.64 28 63 C24.7 63 21.4 63 18 63 C18 45.18 18 27.36 18 9 C12.06 9 6.12 9 0 9 C0 6.03 0 3.06 0 0 Z " fill="#FFFFFF" transform="translate(2021,3029)"/>
</svg>
